<?xml version="1.0" standalone="no"?>
<!DOCTYPE svg PUBLIC "-//W3C//DTD SVG 1.1//EN" "http://www.w3.org/Graphics/SVG/1.1/DTD/svg11.dtd" >
<svg xmlns="http://www.w3.org/2000/svg" xmlns:xlink="http://www.w3.org/1999/xlink" version="1.1">
<metadata>
Created by FontForge 20170910 at Mon Nov 20 20:44:13 2017
 By Jimmy Wärting
Copyright \(c\) 2017 by MadeType. All rights reserved.
</metadata>
<defs>
<font id="MADEGoodTimeScript" horiz-adv-x="419" >
  <font-face 
    font-family="MADE GoodTime Script"
    font-weight="400"
    font-stretch="normal"
    units-per-em="1000"
    panose-1="2 0 5 4 0 0 0 2 0 4"
    ascent="800"
    descent="-200"
    x-height="438"
    cap-height="742"
    bbox="-389.643 -394.946 1183 948"
    underline-thickness="50"
    underline-position="-100"
    unicode-range="U+0020-F6C3"
  />
<missing-glyph horiz-adv-x="243" 
 />
    <glyph glyph-name=".notdef" horiz-adv-x="243" 
 />
    <glyph glyph-name="B" unicode="B" horiz-adv-x="719" 
d="M607 393c84 -70 90 -199 41 -290c-75 -138 -249 -149 -383 -103c-34 12 -66 27 -97 45c-8 4 -16 9 -24 13c-9 -14 -19 -27 -31 -38c-43 -39 -133 -58 -172 -1c-16 24 -14 61 3 85c19 27 50 39 82 42c36 3 69 -9 100 -24c9 17 16 35 24 52c43 102 77 207 130 305
c45 82 111 170 212 179c30 3 29 -44 0 -46c-14 -2 -35 -8 -48 -15c-78 -40 -123 -135 -159 -213c-41 -91 -71 -187 -115 -277c-1 -3 -2 -5 -3 -8c2 -2 5 -3 8 -5c59 -34 121 -61 190 -69c62 -7 129 -3 182 33c79 53 110 170 66 254c-16 31 -41 53 -71 67
c-27 -10 -58 -15 -86 -13c-19 1 -37 9 -43 28c-5 14 -2 30 8 41c14 14 35 13 53 11c17 -2 34 -5 51 -10c6 -2 11 -4 17 -6c5 3 10 6 15 10c43 32 64 89 61 142c-3 50 -32 92 -74 118c-91 55 -226 46 -309 -22c-95 -78 -146 -233 -85 -347c15 -26 -26 -50 -40 -23
c-15 28 -24 58 -29 89c-19 139 56 297 186 355c108 48 260 42 346 -48c78 -83 64 -229 -24 -298c6 -4 12 -9 18 -13zM38 32c25 5 51 25 65 49c-3 2 -7 4 -11 6c-22 10 -44 15 -68 12s-52 -19 -47 -48c5 -21 42 -23 61 -19z" />
    <glyph glyph-name="C" unicode="C" horiz-adv-x="475" 
d="M471 191c15 26 55 3 40 -24c-42 -73 -100 -144 -179 -180c-60 -27 -128 -32 -190 -7c-52 21 -93 61 -116 112c-27 63 -30 132 -21 199c21 148 97 311 229 391c64 38 147 51 210 6c70 -50 86 -149 57 -226c-29 -78 -95 -149 -185 -136c-80 12 -118 102 -83 172
c13 27 53 3 40 -24c-13 -26 -7 -62 12 -83c24 -25 66 -24 95 -10c35 16 58 50 73 84c18 42 20 85 6 128c-20 58 -79 87 -137 75c-57 -12 -105 -51 -142 -93c-44 -50 -77 -110 -99 -172c-23 -64 -37 -133 -33 -202c2 -46 15 -94 45 -130c28 -33 67 -53 110 -59
c121 -16 213 83 268 179z" />
    <glyph glyph-name="D" unicode="D" horiz-adv-x="730" 
d="M708 424c11 -131 -29 -278 -129 -368c-46 -42 -102 -68 -164 -75c-70 -7 -143 13 -206 42c-22 11 -44 24 -65 36c-12 -17 -25 -34 -42 -46c-44 -33 -132 -46 -164 12c-14 26 -7 61 11 84c20 24 51 34 81 36c34 2 66 -10 96 -25c10 20 19 40 27 60c9 20 18 41 26 61
c-35 21 -65 50 -84 87c-64 123 -6 279 104 354c97 67 223 70 328 23c113 -51 172 -162 181 -281zM54 39c16 7 33 19 48 42c-10 5 -21 9 -32 13c-22 6 -52 8 -74 -6c-16 -10 -27 -34 -12 -46c18 -17 50 -13 70 -3zM511 62c107 67 152 202 152 322c0 111 -42 221 -145 274
c-94 48 -210 44 -297 -17c-97 -68 -146 -220 -67 -319c12 -15 27 -28 43 -38c24 60 50 121 83 177c46 80 111 159 209 168c30 3 29 -44 0 -47c-15 -1 -35 -7 -48 -13c-79 -39 -125 -131 -161 -208c-15 -32 -28 -65 -42 -98c18 -6 37 -10 55 -10c64 -3 129 26 161 83
c15 26 55 3 40 -23c-17 -31 -44 -55 -73 -74c-60 -39 -135 -42 -200 -18c-17 -42 -34 -83 -55 -123c1 0 2 0 2 -1c105 -58 232 -104 343 -35z" />
    <glyph glyph-name="E" unicode="E" horiz-adv-x="462" 
d="M458 192c15 26 55 2 40 -24c-42 -78 -98 -155 -182 -190c-78 -33 -175 -24 -241 30c-58 48 -82 127 -73 200c10 81 53 157 121 201c23 16 49 26 75 32c-11 14 -20 31 -26 49c-18 54 -12 116 15 165c36 64 115 104 188 82c37 -11 73 -39 87 -76c12 -35 8 -75 -8 -108
c-17 -35 -50 -59 -89 -63c-36 -3 -74 14 -89 48c-6 12 -4 25 8 32c10 6 27 3 32 -8c11 -25 40 -31 64 -21c27 11 41 44 42 72c1 26 -8 47 -29 64c-25 19 -56 24 -86 16c-47 -12 -79 -48 -92 -93c-11 -37 -9 -81 9 -115c10 -18 23 -31 39 -41c25 -2 50 -8 75 -19
c22 -10 10 -44 -12 -43c-28 0 -54 6 -76 17c-45 1 -90 -15 -125 -46c-92 -81 -118 -260 6 -326c61 -34 140 -27 199 10c57 36 96 96 128 155z" />
    <glyph glyph-name="F" unicode="F" horiz-adv-x="580" 
d="M824 726c27 14 50 -27 24 -40c-52 -26 -106 -35 -160 -34c-10 0 -22 -1 -30 -3c-32 -7 -58 -29 -78 -55c-26 -35 -45 -76 -61 -116c-13 -33 -25 -66 -36 -99c32 0 64 1 96 1c30 -1 30 -47 0 -47h-112c-17 -51 -36 -102 -58 -151c-38 -83 -95 -168 -188 -193
c-62 -16 -132 -3 -177 45c-49 54 -55 136 -28 203c26 66 87 110 161 108c79 -3 136 -71 121 -149c-5 -30 -50 -17 -45 12c7 34 -11 67 -42 82c-27 13 -62 11 -89 -1c-65 -28 -89 -115 -69 -179c17 -53 68 -84 122 -81c42 1 78 20 107 46c63 58 97 148 126 229
c3 9 7 19 10 28h-29c-30 0 -30 47 0 47h45c21 64 43 129 75 189c19 37 45 72 77 97c-18 4 -36 8 -54 13c-112 31 -315 108 -378 -39c-25 -57 -9 -130 56 -151c29 -9 62 -6 87 12c24 19 41 50 42 81c0 30 47 30 46 0c-1 -45 -24 -89 -59 -116c-35 -28 -84 -35 -127 -22
c-79 24 -118 105 -98 183c15 62 59 112 119 133c95 33 198 1 290 -26c102 -31 214 -57 314 -7z" />
    <glyph glyph-name="G" unicode="G" horiz-adv-x="525" 
d="M278 514c13 27 53 4 40 -23c-13 -28 -5 -68 19 -87c31 -24 77 -16 107 4c32 21 53 57 65 92c14 42 14 90 -10 129c-34 56 -108 60 -165 43c-55 -16 -104 -50 -144 -91c-49 -51 -86 -113 -110 -179c-23 -65 -39 -135 -32 -204c4 -47 22 -94 59 -124c36 -29 88 -38 133 -31
c117 20 165 156 218 246c15 26 54 4 40 -23c0 0 0 -2 -1 -2c-45 -99 -90 -198 -138 -295c-18 -38 -37 -76 -61 -111c-45 -65 -109 -117 -192 -103c-82 14 -115 105 -86 177c5 12 16 20 29 16c11 -3 21 -17 16 -28c-13 -32 -15 -71 9 -98c25 -27 69 -29 101 -15
c36 14 64 46 85 78c23 34 41 70 59 107l24 48c-50 -38 -111 -52 -173 -42c-57 9 -107 42 -136 91c-34 58 -39 130 -30 196c20 157 104 321 246 401c65 37 147 57 218 26c82 -34 112 -130 89 -212c-22 -81 -87 -163 -180 -156c-40 2 -77 22 -96 57s-21 77 -3 113z" />
    <glyph glyph-name="H" unicode="H" horiz-adv-x="883" 
d="M765 307c-26 -59 -55 -119 -69 -183c-4 -21 -9 -51 4 -70c12 -18 34 -22 52 -14c27 11 49 37 66 59c23 29 43 61 61 93c15 27 55 3 40 -23c-23 -40 -47 -79 -77 -114c-24 -28 -54 -57 -91 -64c-31 -6 -63 5 -83 29c-21 25 -25 58 -21 89c8 72 42 140 71 207c2 4 4 8 5 12
c-60 -25 -128 0 -186 27c-4 2 -8 4 -13 6c-6 -17 -13 -33 -21 -50c-44 -102 -95 -214 -180 -289c-36 -32 -78 -55 -125 -59c-55 -5 -116 11 -153 53c-67 76 -53 205 11 278c47 53 134 76 196 34c45 -30 68 -94 37 -143c-16 -25 -56 -1 -40 24c10 15 10 35 1 54
c-12 25 -39 38 -65 40c-61 5 -108 -44 -126 -96c-26 -77 -8 -173 82 -194c42 -10 80 -4 115 17c36 21 65 53 90 87c57 80 98 171 136 262c-52 18 -111 26 -130 -36c-9 -28 -54 -16 -45 13c8 24 23 46 43 62c18 15 40 20 63 20c31 2 59 -6 87 -16c34 84 65 170 103 253
c-70 12 -136 46 -209 50c-49 3 -105 -2 -144 -36c-31 -28 -51 -75 -46 -119c6 -48 47 -85 96 -87c53 -1 98 44 100 98c1 30 47 30 46 0c-2 -80 -70 -150 -152 -144c-64 5 -122 51 -134 115c-11 58 10 122 51 164c45 45 111 58 173 56c43 -1 85 -11 126 -24s82 -28 125 -30
c9 -1 20 -7 23 -13c4 -7 4 -15 1 -22c0 0 0 -1 -1 -1c-45 -90 -79 -185 -116 -279c27 -12 54 -25 83 -33c36 -10 74 -9 104 14c21 16 35 39 47 63c39 86 79 173 119 259c13 27 53 3 40 -24c-29 -64 -152 -334 -170 -375z" />
    <glyph glyph-name="I" unicode="I" horiz-adv-x="478" 
d="M585 701c6 -12 -3 -27 -6 -30c-27 -30 -47 -72 -62 -112c-21 -53 -37 -108 -54 -163c-46 -155 -116 -450 -337 -412c-58 10 -105 50 -125 105c-22 60 -7 136 30 187c37 50 99 76 161 64c68 -14 110 -79 97 -146c-5 -30 -50 -17 -44 12c12 64 -53 100 -109 87
c-60 -13 -94 -73 -98 -131c-4 -50 16 -97 61 -121c38 -20 88 -17 123 0c68 32 106 107 133 176c36 88 59 181 88 271c19 60 39 125 75 179c-52 -6 -100 -26 -135 -67c-40 -46 -66 -123 -54 -182c6 -30 -39 -42 -45 -13c-15 77 14 166 64 225c53 63 133 88 213 84
c10 1 19 -4 24 -13z" />
    <glyph glyph-name="J" unicode="J" horiz-adv-x="538" 
d="M675 698c17 -1 24 -15 22 -28c-2 -12 -12 -19 -23 -18c-13 0 -21 -2 -23 -3c-33 -7 -59 -29 -79 -55c-26 -35 -45 -76 -60 -115c-39 -97 -66 -199 -110 -294c-37 -83 -93 -168 -185 -195c-64 -18 -138 -3 -184 47c-53 57 -52 135 -21 202c28 64 87 109 159 106
c78 -4 134 -72 120 -149c-6 -30 -51 -17 -45 12c6 34 -12 67 -43 82c-27 13 -61 11 -87 -2c-60 -28 -94 -115 -74 -177c18 -56 76 -86 133 -82c40 3 74 23 102 48c62 59 95 149 124 230c32 88 57 180 101 263c21 39 48 76 84 100c-58 16 -114 35 -172 48
c-60 12 -134 16 -187 -18c-36 -23 -60 -68 -62 -111c-2 -52 35 -99 88 -105c57 -7 107 40 109 97c1 30 47 30 46 0c-1 -41 -19 -81 -49 -108c-31 -29 -72 -40 -113 -35c-71 10 -125 69 -127 141c-2 59 28 121 77 156c61 44 147 43 218 30c89 -16 194 -62 261 -67z" />
    <glyph glyph-name="K" unicode="K" horiz-adv-x="804" 
d="M937 689c26 -15 3 -55 -23 -40c-56 33 -122 -9 -166 -45c-61 -50 -112 -111 -157 -175c39 11 81 4 101 -39c13 -29 10 -62 4 -93c-9 -42 -26 -82 -45 -120c-16 -34 -41 -73 -38 -112c2 -21 21 -31 41 -26c31 8 56 34 77 56c26 30 49 63 68 97c14 26 54 3 40 -23
c-22 -40 -49 -78 -80 -112c-26 -27 -58 -56 -96 -64c-30 -6 -62 2 -81 27c-20 27 -17 63 -9 93c23 78 83 147 82 232c0 22 -6 36 -26 42c-21 6 -46 -6 -64 -21c-43 -33 -77 -84 -103 -133c-4 -8 -15 -31 -16 -32c-34 -64 -73 -126 -126 -174c-33 -31 -73 -56 -119 -63
c-56 -8 -118 6 -159 46c-74 72 -63 202 0 277c48 56 135 85 201 42c45 -30 70 -95 38 -144c-16 -25 -56 -1 -40 24c10 15 10 35 1 54c-12 25 -38 38 -65 40c-61 5 -113 -48 -130 -101c-13 -39 -14 -81 1 -119c16 -39 51 -64 93 -72c43 -7 79 1 114 23c34 22 64 56 88 90
c25 34 46 70 66 106c6 14 13 27 20 40c65 133 110 277 173 411c-72 9 -140 41 -213 44c-49 3 -104 -2 -142 -37c-31 -28 -51 -76 -46 -119c7 -49 49 -85 98 -86c53 -1 97 45 98 98c1 30 48 30 47 0c-3 -79 -68 -148 -148 -144c-65 3 -123 47 -138 111c-13 58 8 123 49 166
c44 46 110 60 172 58c44 -1 87 -10 129 -22c41 -12 82 -24 125 -25c12 0 24 -6 27 -15c2 -7 1 -14 -2 -20c-36 -71 -65 -145 -94 -219c47 66 101 128 165 177c58 45 138 83 208 41z" />
    <glyph glyph-name="L" unicode="L" horiz-adv-x="615" 
d="M329 240c-31 -70 -65 -140 -112 -200v-1c30 -23 60 -48 90 -72c98 -75 241 -119 354 -49c25 16 49 -25 23 -40c-27 -17 -56 -29 -87 -35c-64 -13 -131 -6 -192 17c-66 24 -120 65 -173 109l-45 36c-34 -34 -75 -61 -122 -69c-49 -9 -115 -4 -148 38c-36 45 -9 109 37 134
c58 31 127 13 181 -16c16 -8 30 -17 44 -26c30 37 53 79 74 122c41 81 72 167 107 251c-74 13 -142 49 -188 107c-8 9 -10 23 0 32c9 9 25 10 33 0c15 -18 32 -35 52 -49c36 -24 78 -39 121 -46c22 50 45 99 73 146c31 52 71 106 129 129c33 14 73 15 105 -2
c61 -31 57 -102 33 -156c-52 -118 -183 -174 -309 -167c-27 -64 -52 -129 -80 -193zM523 654c-39 -49 -81 -143 -95 -175c39 0 77 7 113 20c48 17 90 48 118 90c24 36 54 110 -5 130c-37 13 -76 2 -131 -65zM-4 -18c41 -7 106 5 152 50c-31 20 -65 37 -101 43
c-25 5 -52 4 -74 -10c-16 -11 -31 -33 -25 -52c5 -19 30 -29 48 -31z" />
    <glyph glyph-name="M" unicode="M" horiz-adv-x="950" 
d="M945 192c16 25 56 2 41 -24c-31 -50 -63 -105 -108 -143c-39 -33 -92 -50 -138 -20c-78 50 -27 166 0 230c24 58 51 115 76 173c21 49 45 103 45 157c0 31 -11 57 -37 68c-31 13 -64 4 -90 -17c-59 -48 -112 -178 -120 -196s-42 -100 -61 -142
c-38 -90 -77 -179 -113 -270c-4 -12 -15 -20 -28 -16c-11 3 -21 17 -17 28c37 95 78 188 118 281c17 39 34 78 50 118c16 37 31 74 38 114c4 23 5 51 -5 71c-9 20 -24 29 -45 33c-51 12 -91 -34 -119 -71c-37 -49 -79 -156 -82 -162c-56 -135 -121 -267 -179 -402
c-5 -11 -23 -14 -32 -8c-12 7 -14 20 -9 32c57 132 122 260 177 393c29 71 50 163 11 234c-38 69 -135 82 -201 49c-61 -31 -100 -110 -88 -177c9 -47 42 -82 91 -85c45 -2 88 21 108 61c14 27 54 3 40 -24c-28 -55 -93 -89 -155 -83c-67 7 -118 55 -130 123
c-14 86 31 186 110 225c86 43 206 28 260 -57c21 -32 30 -68 32 -106c10 16 21 30 32 44c41 47 101 78 163 54c42 -16 62 -49 68 -88c19 29 43 55 72 74c65 42 161 22 183 -58c12 -46 0 -96 -14 -140c-21 -61 -50 -120 -77 -179c-22 -49 -45 -99 -59 -151
c-4 -18 -8 -37 -7 -56c1 -12 4 -22 13 -30c27 -26 68 -8 93 16c39 36 66 82 93 127z" />
    <glyph glyph-name="N" unicode="N" horiz-adv-x="692" 
d="M687 192c16 25 56 2 41 -24c-31 -50 -63 -105 -108 -143c-39 -33 -92 -50 -138 -20c-78 50 -27 166 0 230c24 58 51 115 76 173c22 49 45 103 45 157c0 31 -11 57 -37 68c-31 13 -64 4 -90 -17c-58 -47 -94 -138 -118 -192s-129 -287 -188 -422c-5 -11 -22 -14 -32 -8
c-11 7 -13 20 -8 32c57 132 122 260 176 393c30 71 51 163 12 234c-38 69 -135 82 -202 49c-61 -31 -99 -110 -87 -177c8 -47 42 -82 91 -85c45 -2 88 21 108 61c14 27 54 3 40 -24c-28 -55 -93 -89 -155 -83c-68 7 -119 55 -130 123c-14 86 31 186 110 225
c85 43 206 28 260 -57c20 -31 30 -67 32 -103c21 32 46 61 78 81c64 42 161 22 182 -58c12 -46 1 -96 -14 -140c-21 -61 -50 -120 -76 -179c-22 -49 -45 -99 -59 -151c-5 -18 -9 -37 -8 -56c1 -12 4 -22 13 -30c28 -26 68 -8 93 16c39 36 66 82 93 127z" />
    <glyph glyph-name="O" unicode="O" horiz-adv-x="451" 
d="M469 452c-20 -81 -54 -160 -93 -233c-35 -65 -78 -131 -134 -179c-42 -35 -97 -62 -152 -45c-1 1 -2 1 -3 1c-1 1 -2 1 -2 1c-140 56 -83 248 -43 353c29 73 63 145 106 210c32 49 70 96 118 128c35 24 77 37 118 28c45 -9 78 -44 91 -86c19 -57 8 -122 -6 -178zM233 96
c56 57 96 130 130 202c30 64 56 132 69 202c8 42 12 94 -8 132c-14 28 -42 45 -71 41c-49 -7 -76 -33 -91 -47c-42 -38 -74 -86 -102 -135c-34 -59 -63 -122 -85 -187c-18 -51 -33 -106 -32 -161c0 -43 14 -86 57 -102c51 -17 99 20 133 55z" />
    <glyph glyph-name="P" unicode="P" horiz-adv-x="819" 
d="M546 551c-25 -45 -42 -94 -59 -143c-33 -95 -62 -194 -113 -282c-47 -79 -124 -151 -223 -143c-62 4 -120 40 -146 98c-28 63 -12 139 27 193c37 52 97 80 160 69c70 -13 113 -79 100 -147c-6 -30 -51 -17 -45 12c6 30 -7 59 -32 76c-24 16 -53 18 -80 11
c-58 -16 -95 -82 -98 -139c-2 -53 29 -100 78 -118c42 -16 89 -9 125 11c68 39 107 118 136 189c35 85 60 173 94 258c28 69 63 147 132 184c26 14 50 -26 23 -40c-18 -10 -29 -19 -43 -36c-13 -14 -25 -34 -36 -53zM778 717c86 -77 100 -200 58 -304
c-26 -63 -70 -117 -131 -150c-66 -37 -144 -41 -211 -5c-27 14 -3 54 23 40c62 -33 132 -20 188 19c50 35 83 89 99 148c23 85 0 177 -73 231c-43 31 -96 48 -148 53c-62 7 -125 3 -184 -16c-88 -28 -162 -96 -176 -190c-3 -22 -3 -45 9 -64c13 -22 38 -33 63 -34
c55 0 90 51 86 102c-3 30 44 29 47 0c6 -76 -55 -149 -133 -148c-39 0 -76 18 -99 50c-20 28 -24 62 -20 95c16 119 109 205 220 237c124 36 283 25 382 -64z" />
    <glyph glyph-name="Q" unicode="Q" horiz-adv-x="585" 
d="M617 -68c39 6 33 -41 5 -45c-114 -16 -242 30 -337 104c-16 -8 -32 -15 -50 -21c-53 -18 -115 -24 -168 -4c-52 19 -92 67 -71 124c10 26 29 48 56 57c28 9 59 4 87 -4c40 -14 75 -39 108 -64l42 -33c85 52 143 135 184 226c38 85 63 187 47 281c-11 65 -44 130 -112 144
c-72 15 -144 -28 -192 -80c-35 -38 -62 -84 -81 -132c-20 -50 -35 -104 -32 -158c2 -37 16 -81 58 -88c43 -8 76 34 83 72c6 29 51 17 45 -13c-5 -26 -18 -50 -36 -69c-38 -39 -98 -50 -143 -18c-43 30 -55 84 -54 133c1 62 20 123 45 179c23 53 56 104 99 144
c61 58 150 97 234 71c85 -26 124 -111 134 -193c14 -112 -19 -228 -70 -327c-41 -80 -97 -152 -170 -202c79 -52 180 -102 289 -84zM109 3c46 -8 93 2 135 20c-2 1 -3 2 -4 3c-25 20 -51 40 -79 56c-33 19 -98 43 -119 -3c-22 -46 31 -70 67 -76z" />
    <glyph glyph-name="R" unicode="R" horiz-adv-x="874" 
d="M545 551c-24 -45 -42 -94 -59 -143c-33 -95 -62 -194 -113 -282c-47 -79 -123 -151 -223 -143c-62 4 -120 40 -146 98c-27 63 -11 139 28 193c36 52 96 80 159 69c70 -13 113 -79 100 -147c-5 -30 -50 -17 -45 12c6 30 -7 59 -32 76c-24 16 -53 18 -80 11
c-58 -16 -95 -82 -97 -139c-3 -53 28 -100 77 -118c42 -16 89 -9 126 11c67 39 107 118 136 189c34 85 59 173 93 258c28 69 63 147 132 184c26 14 50 -26 23 -40c-17 -10 -29 -19 -43 -36c-13 -14 -25 -34 -36 -53zM870 195c15 26 55 2 41 -24c-13 -23 -27 -45 -42 -66
c-50 -68 -132 -143 -224 -106c-63 25 -88 89 -99 152c-4 29 -7 61 -11 88v2c-11 2 -22 6 -32 11c-23 11 -33 39 -17 61c16 23 53 15 71 -2c8 -8 13 -17 17 -28c75 -5 150 35 193 98c35 53 51 122 40 184c-12 62 -50 114 -104 146c-72 42 -163 49 -243 36
c-73 -11 -144 -42 -192 -100c-19 -24 -33 -52 -41 -82s-12 -64 8 -91c21 -30 67 -36 99 -19c33 18 49 55 46 92c-2 30 44 29 47 0c2 -24 -2 -47 -12 -68c-19 -44 -60 -75 -108 -80c-47 -4 -98 19 -119 63c-36 71 1 163 48 219c57 69 145 103 231 114c93 11 197 1 276 -54
c63 -44 103 -111 112 -187c9 -79 -18 -164 -69 -224c-33 -38 -75 -66 -122 -82c-25 -8 -52 -12 -78 -12h-4c1 -6 2 -13 2 -19c7 -57 11 -139 68 -170c94 -52 181 80 218 148z" />
    <glyph glyph-name="S" unicode="S" horiz-adv-x="492" 
d="M301 242c-2 -14 -9 -24 -23 -24c-11 0 -25 10 -23 23c3 23 -9 47 -28 63c-26 19 -63 21 -93 12c-61 -19 -97 -84 -97 -145c0 -60 33 -111 87 -138c52 -25 118 -20 168 8c63 36 95 108 95 179c0 39 -10 78 -25 115c-15 38 -37 73 -54 111c-30 68 -53 147 -17 217
c33 64 113 95 179 61c95 -48 76 -210 -32 -228c-29 -5 -41 39 -12 44c51 9 70 62 54 106c-8 23 -26 38 -50 43c-38 8 -74 -8 -94 -41c-40 -66 -3 -149 28 -211c39 -77 77 -154 68 -243c-7 -76 -45 -151 -113 -191c-55 -33 -126 -42 -188 -22c-63 20 -115 70 -133 134
c-16 56 -7 118 24 167c38 60 104 94 175 83c57 -9 112 -62 104 -123z" />
    <glyph glyph-name="T" unicode="T" horiz-adv-x="550" 
d="M814 726c27 14 50 -26 24 -40c-52 -26 -106 -35 -160 -34c-55 -2 -88 -31 -108 -58c-26 -35 -45 -76 -61 -116c-39 -98 -66 -200 -110 -296c-38 -83 -95 -168 -188 -193c-62 -16 -132 -3 -177 45c-49 54 -55 136 -28 203c26 66 88 110 161 108c79 -3 136 -71 121 -149
c-5 -30 -50 -17 -45 12c7 35 -11 67 -42 82c-27 13 -62 11 -89 -1c-65 -28 -89 -115 -69 -179c17 -53 68 -84 122 -81c42 1 78 20 107 46c63 58 97 148 126 229c32 88 57 181 101 264c19 37 45 72 77 97c-18 4 -36 8 -54 13c-112 31 -314 108 -378 -39
c-25 -57 -9 -130 56 -151c29 -9 62 -6 87 13c24 18 41 49 42 80c0 30 47 30 46 0c-1 -45 -24 -89 -59 -116c-35 -28 -84 -35 -127 -22c-79 24 -118 106 -98 184c15 62 59 111 119 132c95 33 198 1 291 -26c101 -30 214 -57 313 -7z" />
    <glyph glyph-name="U" unicode="U" horiz-adv-x="661" 
d="M512 226c-15 -33 -26 -67 -33 -102c-5 -21 -9 -51 4 -70c12 -18 33 -22 52 -14c27 11 48 37 66 59c23 29 42 61 60 93c15 27 55 3 41 -23c-23 -40 -48 -79 -77 -114c-24 -28 -55 -57 -92 -64c-31 -6 -63 5 -83 29c-13 16 -19 35 -21 55c-6 -8 -13 -16 -19 -23
c-32 -36 -75 -68 -125 -67c-47 1 -90 24 -107 69c-13 36 -8 78 2 113c11 41 28 81 45 120l30 69c21 49 46 97 64 149c21 61 44 150 -4 205c-45 52 -130 48 -186 18c-33 -18 -59 -46 -74 -80c-16 -35 -24 -79 -12 -115c25 -74 128 -89 178 -33c20 23 52 -10 33 -33
c-75 -84 -225 -51 -257 57c-14 47 -3 101 17 145c19 42 52 78 92 99c72 40 177 42 238 -21c64 -66 48 -169 22 -248c-18 -54 -44 -105 -66 -157c-8 -18 -29 -65 -40 -91s-26 -63 -35 -95c-8 -28 -12 -59 -3 -87c10 -27 43 -41 74 -37c41 5 73 41 96 72c30 40 53 84 73 130
c11 27 24 55 36 82c57 131 117 260 177 390c12 27 52 4 40 -24c-30 -64 -59 -128 -89 -192c-27 -61 -94 -211 -117 -264z" />
    <glyph glyph-name="V" unicode="V" horiz-adv-x="671" 
d="M898 756c12 -1 23 -9 23 -23c0 -11 -11 -25 -23 -23c-35 4 -68 4 -101 -9c-62 -25 -103 -91 -134 -147c-26 -47 -49 -96 -70 -144c-27 -58 -69 -155 -80 -180c-27 -63 -58 -126 -104 -178c-31 -36 -75 -68 -125 -67c-47 1 -89 25 -106 70c-13 35 -8 77 2 112
c12 46 69 174 76 190c21 50 46 99 63 150c22 64 44 157 -11 210c-46 43 -123 40 -175 12c-66 -34 -113 -121 -90 -195c23 -75 128 -91 178 -34c19 23 52 -10 33 -33c-75 -85 -229 -51 -258 60c-24 93 30 200 113 243c71 36 166 37 228 -17c71 -63 55 -173 29 -253
c-18 -55 -44 -106 -67 -158c-9 -21 -37 -85 -39 -92c-3 -6 -26 -62 -35 -94c-8 -28 -13 -59 -3 -86c10 -28 43 -42 74 -38c41 6 73 41 96 72c34 47 59 100 82 153c11 23 59 134 88 199c39 84 80 177 148 242c52 49 117 68 188 58z" />
    <glyph glyph-name="W" unicode="W" horiz-adv-x="933" 
d="M1160 756c12 -1 23 -9 23 -23c0 -11 -11 -25 -23 -23c-35 4 -68 4 -101 -9c-62 -25 -103 -91 -134 -147c-26 -47 -48 -96 -70 -144c-26 -58 -74 -166 -80 -180c-27 -63 -58 -126 -104 -178c-31 -36 -75 -68 -125 -67c-46 1 -89 25 -106 70c-3 9 -5 18 -6 28
c-8 -11 -17 -21 -25 -31c-32 -36 -75 -68 -125 -67c-47 1 -90 25 -107 70c-13 35 -8 77 2 112c11 41 29 81 45 120c10 23 20 46 30 68c22 50 46 99 64 150c21 63 44 155 -8 208c-46 48 -127 44 -181 15c-34 -18 -59 -47 -75 -81s-24 -79 -11 -115c25 -73 127 -89 177 -32
c20 23 52 -10 33 -33c-74 -85 -224 -52 -256 56c-14 48 -4 102 16 146c19 41 52 77 92 99c71 38 173 40 234 -18c68 -64 52 -171 26 -250c-18 -54 -43 -106 -66 -158c-8 -18 -31 -70 -40 -91c-13 -31 -26 -63 -35 -95c-8 -28 -12 -59 -3 -86c10 -28 43 -42 74 -38
c41 6 73 41 96 72c35 47 60 100 83 153c0 2 134 301 202 448c13 27 53 4 40 -23c-59 -127 -174 -385 -175 -386c-19 -46 -41 -92 -54 -140c-8 -28 -12 -59 -3 -86c10 -28 43 -42 74 -38c41 6 73 41 96 72c35 47 59 100 82 153c8 17 60 134 89 199c38 84 79 177 147 242
c52 49 117 68 188 58z" />
    <glyph glyph-name="X" unicode="X" horiz-adv-x="726" 
d="M815 612c2 -30 -44 -30 -47 0c-2 35 -33 60 -67 56c-25 -2 -47 -15 -65 -31c-30 -25 -54 -57 -75 -89c-28 -44 -52 -91 -73 -139c-34 -77 -61 -164 -59 -249c0 -30 5 -62 20 -88c17 -31 46 -45 81 -45c40 0 77 26 105 52c35 31 64 68 89 107c15 25 56 2 40 -24
c-56 -88 -156 -207 -275 -177c-86 23 -109 117 -106 195c0 14 1 29 3 43c-6 -12 -13 -23 -19 -34c-48 -79 -114 -168 -208 -193c-49 -14 -104 -6 -141 31c-47 47 -45 116 -20 173c5 11 22 14 32 8c11 -7 13 -20 8 -32c-21 -48 -14 -111 40 -134c38 -15 80 -2 113 18
c74 45 123 126 162 200c38 72 69 149 89 228c10 39 19 84 10 125c-10 42 -45 58 -87 57c-36 -1 -73 -22 -101 -47c-46 -41 -81 -94 -109 -148c-14 -27 -54 -3 -40 23c55 106 161 250 299 213c83 -22 94 -103 84 -178c19 33 40 65 64 95c23 28 52 56 85 72c27 13 59 20 88 12
c45 -11 76 -55 80 -100z" />
    <glyph glyph-name="Y" unicode="Y" horiz-adv-x="634" 
d="M743 714c12 -7 13 -21 8 -32c-19 -42 -38 -84 -57 -127c-88 -195 -174 -392 -268 -585c-19 -38 -38 -76 -62 -111c-45 -65 -109 -117 -192 -103s-116 105 -86 177c5 12 15 20 29 17c11 -4 21 -17 16 -29c-13 -32 -15 -71 9 -98c25 -27 69 -29 102 -15c36 14 63 46 84 78
c23 34 42 71 60 108c6 11 11 23 17 34c-27 -20 -57 -36 -90 -41c-49 -7 -106 6 -130 53c-19 37 -15 81 -6 120c11 45 30 87 48 129c10 23 20 46 30 68c22 51 47 100 64 152c21 62 43 155 -12 207c-44 43 -121 41 -173 14c-35 -17 -61 -45 -78 -80c-17 -33 -25 -78 -15 -114
c23 -77 128 -94 179 -36c20 23 52 -10 33 -33c-75 -85 -229 -51 -257 60c-24 93 29 200 113 243c70 36 166 37 227 -17c71 -63 55 -172 29 -252c-17 -55 -43 -106 -66 -159c-9 -19 -40 -91 -40 -92c-15 -33 -29 -67 -37 -102c-7 -29 -11 -64 4 -89c18 -31 67 -32 99 -21
c44 14 79 50 105 86c29 38 53 80 74 123c70 153 139 305 207 458c5 12 22 15 32 9z" />
    <glyph glyph-name="Z" unicode="Z" horiz-adv-x="687" 
d="M681 708c63 -3 116 -51 104 -117c-11 -62 -75 -94 -133 -94c-51 0 -96 18 -139 41c-28 -43 -51 -91 -73 -135c-45 -94 -85 -190 -135 -281c-16 -28 -33 -59 -53 -87c19 -15 37 -30 55 -45c56 -46 115 -84 187 -100c67 -15 137 -10 196 27c26 16 49 -24 23 -40
c-27 -17 -57 -29 -89 -36c-66 -13 -136 -3 -199 21c-69 27 -123 74 -181 120c-7 6 -14 11 -21 17c-24 -27 -51 -50 -83 -65c-46 -21 -104 -24 -151 -3c-52 24 -74 83 -46 135c32 59 109 66 167 48c37 -11 71 -30 104 -51c45 60 77 131 109 198c42 90 81 182 131 268
c6 10 13 21 19 31c-33 20 -66 42 -101 60c-44 22 -93 37 -143 28c-58 -9 -100 -52 -112 -109c-11 -46 0 -103 48 -122c22 -9 53 -11 75 0c25 13 44 40 49 68c5 29 50 17 45 -12c-6 -31 -24 -60 -48 -80c-48 -40 -122 -39 -170 0c-46 37 -56 101 -45 156
c13 62 57 116 117 137c53 19 114 13 165 -7s96 -50 143 -78c1 -1 2 -2 4 -3c45 60 104 113 181 110zM107 -29c28 9 55 31 77 55c-11 7 -22 13 -33 20c-31 17 -65 31 -101 31c-23 -1 -47 -8 -62 -26c-12 -17 -16 -41 -4 -58c13 -18 36 -26 57 -29c25 -3 44 -1 66 7zM713 560
c20 15 34 42 25 68c-9 23 -38 33 -61 34c-33 0 -64 -16 -89 -37c-18 -15 -34 -32 -48 -50c29 -15 60 -27 93 -30c28 -3 56 -1 80 15z" />
    <glyph glyph-name="AE" unicode="&#xc6;" horiz-adv-x="1069" 
d="M1066 192c14 26 54 3 40 -24c-43 -77 -98 -155 -183 -190c-77 -32 -174 -23 -240 30c-58 48 -83 127 -73 201c4 37 23 96 40 119c-46 -19 -99 -12 -143 15c-10 -20 -19 -40 -29 -60c-31 -65 -62 -132 -104 -192c-34 -50 -78 -98 -137 -119c-55 -19 -127 -11 -175 24
c-90 65 -91 201 -25 284c46 59 131 92 201 52c48 -28 75 -96 43 -146c-16 -26 -57 -2 -40 23c11 17 10 41 -4 62c-16 24 -50 36 -78 32c-65 -9 -108 -68 -119 -127c-8 -41 -1 -90 27 -123c33 -37 91 -52 138 -41c53 11 93 52 124 94c39 56 69 117 98 178c14 29 27 57 41 86
c-10 6 -21 10 -33 12c-13 1 -31 1 -44 -5c-16 -9 -29 -26 -34 -44c-9 -28 -54 -16 -45 13c7 23 21 44 40 60c18 15 39 20 62 22c26 2 52 -4 75 -16c10 21 21 42 31 62c31 59 61 120 101 173c18 24 41 50 68 67c-20 8 -39 16 -58 23c-74 28 -191 60 -250 -14
c-29 -37 -39 -101 12 -124c22 -10 50 -8 68 9c16 14 20 40 13 60c-10 28 35 40 45 12c11 -34 2 -76 -22 -102c-27 -28 -67 -37 -103 -28c-75 18 -100 100 -71 166c24 51 70 86 126 95c59 9 119 -3 175 -22c30 -10 60 -24 90 -35c37 -13 74 -21 113 -22c13 0 20 -9 22 -19
c39 27 87 38 133 24c38 -12 73 -39 87 -77c13 -34 8 -74 -7 -107c-17 -36 -50 -59 -90 -63c-36 -3 -74 14 -89 48c-5 11 -3 25 8 32c11 5 27 3 32 -9c11 -24 40 -30 64 -21c28 12 42 44 43 73c0 26 -8 47 -30 63c-24 19 -56 25 -86 17c-41 -11 -73 -38 -93 -97
c-10 -32 -7 -78 11 -112c9 -17 23 -30 38 -40c26 -2 51 -9 75 -19c22 -10 10 -44 -12 -44c-27 1 -53 7 -76 18c-45 1 -89 -16 -124 -46c-38 -33 -51 -65 -65 -99c-29 -84 -14 -181 70 -227c62 -34 141 -26 199 10c58 37 97 96 129 155zM777 498c-8 -17 -37 -81 -39 -84
c22 13 45 22 68 26c-11 15 -20 31 -27 50c-1 3 -1 5 -2 8zM656 384c20 17 35 39 46 62c25 54 49 107 74 161c6 15 19 56 -3 72c-9 7 -19 8 -30 7c-20 -1 -42 -18 -58 -35c-48 -48 -79 -113 -111 -173c-16 -31 -31 -62 -46 -93c10 -7 21 -13 34 -17c32 -9 67 -4 94 16z" />
    <glyph glyph-name="OE" unicode="&#x152;" horiz-adv-x="803" 
d="M799 192c14 26 55 3 40 -24c-42 -77 -98 -155 -182 -190c-78 -32 -174 -23 -240 30c-48 40 -73 100 -76 161c-29 -47 -63 -93 -105 -128c-42 -36 -96 -63 -151 -45c-1 0 -2 0 -3 1c-1 0 -2 0 -2 1c-140 55 -83 247 -43 351c29 73 62 145 106 211c32 48 69 95 118 128
c34 23 76 36 118 28c45 -10 77 -44 91 -87c18 -56 8 -121 -7 -177c-4 -18 -10 -37 -15 -55c5 4 10 8 16 12c24 16 49 26 76 31c-12 15 -21 31 -27 50c-18 53 -11 115 16 164c35 64 114 105 187 83c37 -12 73 -39 86 -77c13 -34 9 -74 -7 -107c-17 -36 -50 -59 -89 -63
c-36 -3 -74 14 -89 48c-5 11 -4 25 8 32c10 5 27 3 32 -9c11 -24 40 -30 64 -21c27 12 41 44 42 73c1 26 -8 47 -29 63c-25 19 -56 25 -86 17c-47 -12 -79 -48 -92 -93c-11 -38 -9 -81 9 -116c10 -17 23 -30 39 -40c25 -2 51 -9 75 -19c22 -10 10 -44 -12 -44
c-28 1 -54 7 -76 18c-45 1 -90 -15 -125 -46c-92 -82 -117 -259 6 -326c62 -34 141 -26 199 10c57 37 96 96 128 155zM228 96c56 58 96 130 129 202c30 64 56 131 69 201c8 42 13 95 -7 132c-15 28 -43 43 -72 41c-37 -3 -66 -24 -90 -46c-41 -39 -74 -86 -102 -136
c-34 -59 -63 -121 -85 -186c-18 -51 -33 -106 -32 -161c0 -42 14 -85 56 -102c51 -17 100 20 134 55z" />
    <glyph glyph-name="Oslash" unicode="&#xd8;" horiz-adv-x="490" 
d="M475 629c18 -56 7 -121 -7 -177c-20 -81 -54 -160 -93 -233c-35 -65 -77 -131 -134 -178c-39 -33 -89 -59 -140 -48c-9 -22 -19 -43 -28 -65c-5 -11 -22 -14 -32 -8c-12 7 -13 20 -8 32c8 20 17 39 25 59c-106 68 -54 241 -16 338c28 73 62 145 105 211
c32 48 70 95 119 128c31 20 67 33 105 30c7 16 15 33 23 50c12 27 52 4 40 -23c-6 -14 -13 -28 -19 -41c29 -16 49 -43 60 -75zM75 304c-18 -51 -33 -106 -33 -161c1 -34 10 -68 35 -89c53 120 105 240 158 361c38 85 76 171 115 257c-34 -3 -65 -25 -88 -46
c-42 -40 -75 -86 -103 -136c-33 -59 -62 -121 -84 -186zM431 499c8 42 13 95 -7 132c-7 13 -17 23 -28 30c-14 -31 -28 -62 -42 -94c-60 -134 -119 -268 -178 -402c-19 -43 -37 -85 -56 -128c43 -3 83 29 113 59c55 58 96 130 129 202c30 64 56 131 69 201zM487 192
c14 26 54 2 40 -24c-40 -70 -135 -226 -232 -151c-10 8 -8 25 0 33c10 10 23 8 33 0c27 -21 60 10 79 29c32 33 57 73 80 113z" />
    <glyph glyph-name="afii10017" unicode="&#x410;" horiz-adv-x="812" 
d="M807 192c14 27 55 3 40 -23c-33 -59 -72 -125 -130 -162c-43 -28 -100 -22 -129 23c-30 48 -10 114 7 162c16 46 36 91 56 136c-47 -19 -100 -11 -143 16c-10 -20 -19 -41 -29 -61c-31 -65 -62 -132 -104 -192c-35 -50 -78 -98 -137 -119c-55 -20 -127 -11 -176 24
c-90 65 -90 201 -25 284c47 59 132 92 201 52c49 -28 76 -96 43 -147c-16 -25 -56 -1 -40 24c11 17 10 41 -3 62c-17 24 -50 36 -79 32c-64 -9 -107 -68 -119 -127c-8 -42 -1 -90 28 -123c32 -38 90 -52 138 -42c53 11 93 53 123 95c40 56 70 117 99 178c14 29 27 58 41 86
c-10 6 -21 10 -33 12c-14 1 -31 1 -44 -5c-16 -9 -29 -26 -34 -44c-9 -28 -54 -16 -45 13c7 23 21 45 40 60c18 15 38 21 62 22c26 2 52 -4 75 -16c10 21 21 42 31 63c31 59 61 119 101 172c18 24 41 51 68 68c-19 7 -38 16 -58 23c-74 28 -191 60 -250 -15
c-29 -37 -39 -101 12 -124c22 -10 50 -8 68 9c16 15 19 40 13 60c-10 29 35 41 45 13c11 -34 2 -77 -22 -103c-27 -28 -67 -37 -104 -28c-74 18 -100 100 -70 166c24 52 70 87 126 96c59 9 119 -3 175 -22c30 -10 60 -24 90 -35c37 -13 74 -22 114 -22c30 -1 30 -47 0 -47
h-1c1 -2 1 -4 2 -7c10 -29 2 -60 -9 -88c-1 -1 -152 -334 -175 -395c-10 -26 -19 -53 -24 -80c-3 -18 -5 -40 3 -57c18 -39 61 -20 85 1c41 36 70 85 97 132zM563 368c32 -9 67 -4 94 17c21 17 36 40 48 65c3 5 51 111 72 157c5 12 9 25 10 38c2 14 0 27 -13 35
c-9 6 -19 7 -29 7c-21 -2 -43 -19 -58 -35c-48 -49 -80 -114 -112 -174c-16 -31 -31 -62 -46 -92c10 -8 21 -14 34 -18z" />
    <glyph glyph-name="afii10019" unicode="&#x412;" horiz-adv-x="719" 
d="M607 393c84 -70 90 -199 41 -290c-75 -138 -249 -149 -383 -103c-34 12 -66 27 -97 45c-8 4 -16 9 -24 13c-9 -14 -19 -27 -31 -38c-43 -39 -133 -58 -172 -1c-16 24 -14 61 3 85c19 27 50 39 82 42c36 3 69 -9 100 -24c9 17 16 35 24 52c43 102 77 207 130 305
c45 82 111 170 212 179c30 3 29 -44 0 -46c-14 -2 -35 -8 -48 -15c-78 -40 -123 -135 -159 -213c-41 -91 -71 -187 -115 -277c-1 -3 -2 -5 -3 -8c2 -2 5 -3 8 -5c59 -34 121 -61 190 -69c62 -7 129 -3 182 33c79 53 110 170 66 254c-16 31 -41 53 -71 67
c-27 -10 -58 -15 -86 -13c-19 1 -37 9 -43 28c-5 14 -2 30 8 41c14 14 35 13 53 11c17 -2 34 -5 51 -10c6 -2 11 -4 17 -6c5 3 10 6 15 10c43 32 64 89 61 142c-3 50 -32 92 -74 118c-91 55 -226 46 -309 -22c-95 -78 -146 -233 -85 -347c15 -26 -26 -50 -40 -23
c-15 28 -24 58 -29 89c-19 139 56 297 186 355c108 48 260 42 346 -48c78 -83 64 -229 -24 -298c6 -4 12 -9 18 -13zM38 32c25 5 51 25 65 49c-3 2 -7 4 -11 6c-22 10 -44 15 -68 12s-52 -19 -47 -48c5 -21 42 -23 61 -19z" />
    <glyph glyph-name="afii10035" unicode="&#x421;" horiz-adv-x="475" 
d="M471 191c15 26 55 3 40 -24c-42 -73 -100 -144 -179 -180c-60 -27 -128 -32 -190 -7c-52 21 -93 61 -116 112c-27 63 -30 132 -21 199c21 148 97 311 229 391c64 38 147 51 210 6c70 -50 86 -149 57 -226c-29 -78 -95 -149 -185 -136c-80 12 -118 102 -83 172
c13 27 53 3 40 -24c-13 -26 -7 -62 12 -83c24 -25 66 -24 95 -10c35 16 58 50 73 84c18 42 20 85 6 128c-20 58 -79 87 -137 75c-57 -12 -105 -51 -142 -93c-44 -50 -77 -110 -99 -172c-23 -64 -37 -133 -33 -202c2 -46 15 -94 45 -130c28 -33 67 -53 110 -59
c121 -16 213 83 268 179z" />
    <glyph glyph-name="afii10021" unicode="&#x414;" horiz-adv-x="730" 
d="M708 424c11 -131 -29 -278 -129 -368c-46 -42 -102 -68 -164 -75c-70 -7 -143 13 -206 42c-22 11 -44 24 -65 36c-12 -17 -25 -34 -42 -46c-44 -33 -132 -46 -164 12c-14 26 -7 61 11 84c20 24 51 34 81 36c34 2 66 -10 96 -25c10 20 19 40 27 60c9 20 18 41 26 61
c-35 21 -65 50 -84 87c-64 123 -6 279 104 354c97 67 223 70 328 23c113 -51 172 -162 181 -281zM54 39c16 7 33 19 48 42c-10 5 -21 9 -32 13c-22 6 -52 8 -74 -6c-16 -10 -27 -34 -12 -46c18 -17 50 -13 70 -3zM511 62c107 67 152 202 152 322c0 111 -42 221 -145 274
c-94 48 -210 44 -297 -17c-97 -68 -146 -220 -67 -319c12 -15 27 -28 43 -38c24 60 50 121 83 177c46 80 111 159 209 168c30 3 29 -44 0 -47c-15 -1 -35 -7 -48 -13c-79 -39 -125 -131 -161 -208c-15 -32 -28 -65 -42 -98c18 -6 37 -10 55 -10c64 -3 129 26 161 83
c15 26 55 3 40 -23c-17 -31 -44 -55 -73 -74c-60 -39 -135 -42 -200 -18c-17 -42 -34 -83 -55 -123c1 0 2 0 2 -1c105 -58 232 -104 343 -35z" />
    <glyph glyph-name="afii10022" unicode="&#x415;" horiz-adv-x="462" 
d="M458 192c15 26 55 2 40 -24c-42 -78 -98 -155 -182 -190c-78 -33 -175 -24 -241 30c-58 48 -82 127 -73 200c10 81 53 157 121 201c23 16 49 26 75 32c-11 14 -20 31 -26 49c-18 54 -12 116 15 165c36 64 115 104 188 82c37 -11 73 -39 87 -76c12 -35 8 -75 -8 -108
c-17 -35 -50 -59 -89 -63c-36 -3 -74 14 -89 48c-6 12 -4 25 8 32c10 6 27 3 32 -8c11 -25 40 -31 64 -21c27 11 41 44 42 72c1 26 -8 47 -29 64c-25 19 -56 24 -86 16c-47 -12 -79 -48 -92 -93c-11 -37 -9 -81 9 -115c10 -18 23 -31 39 -41c25 -2 50 -8 75 -19
c22 -10 10 -44 -12 -43c-28 0 -54 6 -76 17c-45 1 -90 -15 -125 -46c-92 -81 -118 -260 6 -326c61 -34 140 -27 199 10c57 36 96 96 128 155z" />
    <glyph glyph-name="afii10031" unicode="&#x41d;" horiz-adv-x="878" 
d="M755 307c-26 -59 -55 -119 -69 -183c-4 -21 -9 -51 4 -70c12 -18 34 -22 52 -14c27 11 49 37 66 59c23 29 43 61 61 93c15 27 55 3 40 -23c-23 -40 -47 -79 -77 -114c-24 -28 -54 -57 -91 -64c-31 -6 -63 5 -83 29c-21 25 -25 58 -21 89c8 72 42 140 71 207c2 4 4 8 5 12
c-60 -25 -128 0 -186 27c-4 2 -8 4 -13 6c-6 -17 -13 -33 -21 -50c-44 -102 -95 -214 -180 -289c-36 -32 -78 -55 -125 -59c-55 -5 -116 11 -153 53c-67 76 -53 205 11 278c47 53 134 76 196 34c45 -30 68 -94 37 -143c-16 -25 -56 -1 -40 24c10 15 10 35 1 54
c-12 25 -39 38 -65 40c-61 5 -108 -44 -126 -96c-26 -77 -8 -173 82 -194c42 -10 80 -4 115 17c36 21 65 53 90 87c57 80 98 171 136 262c-52 18 -111 26 -130 -36c-9 -28 -54 -16 -45 13c8 24 23 46 43 62c18 15 40 20 63 20c31 2 59 -6 87 -16c34 84 65 170 103 253
c-70 12 -136 46 -209 50c-49 3 -105 -2 -144 -36c-31 -28 -51 -75 -46 -119c6 -48 47 -85 96 -87c53 -1 98 44 100 98c1 30 47 30 46 0c-2 -80 -70 -150 -152 -144c-64 5 -122 51 -134 115c-11 58 10 122 51 164c45 45 111 58 173 56c43 -1 85 -11 126 -24s82 -28 125 -30
c9 -1 20 -7 23 -13c4 -7 4 -15 1 -22c0 0 0 -1 -1 -1c-45 -90 -79 -185 -116 -279c27 -12 54 -25 83 -33c36 -10 74 -9 104 14c21 16 35 39 47 63c39 86 79 173 119 259c13 27 53 3 40 -24c-29 -64 -152 -334 -170 -375z" />
    <glyph glyph-name="afii10028" unicode="&#x41a;" horiz-adv-x="814" 
d="M947 689c26 -15 3 -55 -23 -40c-56 33 -122 -9 -166 -45c-61 -50 -112 -111 -157 -175c39 11 81 4 101 -39c13 -29 10 -62 4 -93c-9 -42 -26 -82 -45 -120c-16 -34 -41 -73 -38 -112c2 -21 21 -31 41 -26c31 8 56 34 77 56c26 30 49 63 68 97c14 26 54 3 40 -23
c-22 -40 -49 -78 -80 -112c-26 -27 -58 -56 -96 -64c-30 -6 -62 2 -81 27c-20 27 -17 63 -9 93c23 78 83 147 82 232c0 22 -6 36 -26 42c-21 6 -46 -6 -64 -21c-43 -33 -77 -84 -103 -133c-4 -8 -15 -31 -16 -32c-34 -64 -73 -126 -126 -174c-33 -31 -73 -56 -119 -63
c-56 -8 -118 6 -159 46c-74 72 -63 202 0 277c48 56 135 85 201 42c45 -30 70 -95 38 -144c-16 -25 -56 -1 -40 24c10 15 10 35 1 54c-12 25 -38 38 -65 40c-61 5 -113 -48 -130 -101c-13 -39 -14 -81 1 -119c16 -39 51 -64 93 -72c43 -7 79 1 114 23c34 22 64 56 88 90
c25 34 46 70 66 106c6 14 13 27 20 40c65 133 110 277 173 411c-72 9 -140 41 -213 44c-49 3 -104 -2 -142 -37c-31 -28 -51 -76 -46 -119c7 -49 49 -85 98 -86c53 -1 97 45 98 98c1 30 48 30 47 0c-3 -79 -68 -148 -148 -144c-65 3 -123 47 -138 111c-13 58 8 123 49 166
c44 46 110 60 172 58c44 -1 87 -10 129 -22c41 -12 82 -24 125 -25c12 0 24 -6 27 -15c2 -7 1 -14 -2 -20c-36 -71 -65 -145 -94 -219c47 66 101 128 165 177c58 45 138 83 208 41z" />
    <glyph glyph-name="afii10036" unicode="&#x422;" horiz-adv-x="950" 
d="M945 192c16 25 56 2 41 -24c-31 -50 -63 -105 -108 -143c-39 -33 -92 -50 -138 -20c-78 50 -27 166 0 230c24 58 51 115 76 173c21 49 45 103 45 157c0 31 -11 57 -37 68c-31 13 -64 4 -90 -17c-59 -48 -112 -178 -120 -196s-42 -100 -61 -142
c-38 -90 -77 -179 -113 -270c-4 -12 -15 -20 -28 -16c-11 3 -21 17 -17 28c37 95 78 188 118 281c17 39 34 78 50 118c16 37 31 74 38 114c4 23 5 51 -5 71c-9 20 -24 29 -45 33c-51 12 -91 -34 -119 -71c-37 -49 -79 -156 -82 -162c-56 -135 -121 -267 -179 -402
c-5 -11 -23 -14 -32 -8c-12 7 -14 20 -9 32c57 132 122 260 177 393c29 71 50 163 11 234c-38 69 -135 82 -201 49c-61 -31 -100 -110 -88 -177c9 -47 42 -82 91 -85c45 -2 88 21 108 61c14 27 54 3 40 -24c-28 -55 -93 -89 -155 -83c-67 7 -118 55 -130 123
c-14 86 31 186 110 225c86 43 206 28 260 -57c21 -32 30 -68 32 -106c10 16 21 30 32 44c41 47 101 78 163 54c42 -16 62 -49 68 -88c19 29 43 55 72 74c65 42 161 22 183 -58c12 -46 0 -96 -14 -140c-21 -61 -50 -120 -77 -179c-22 -49 -45 -99 -59 -151
c-4 -18 -8 -37 -7 -56c1 -12 4 -22 13 -30c27 -26 68 -8 93 16c39 36 66 82 93 127z" />
    <glyph glyph-name="afii10033" unicode="&#x41f;" horiz-adv-x="692" 
d="M687 192c16 25 56 2 41 -24c-31 -50 -63 -105 -108 -143c-39 -33 -92 -50 -138 -20c-78 50 -27 166 0 230c24 58 51 115 76 173c22 49 45 103 45 157c0 31 -11 57 -37 68c-31 13 -64 4 -90 -17c-58 -47 -94 -138 -118 -192s-129 -287 -188 -422c-5 -11 -22 -14 -32 -8
c-11 7 -13 20 -8 32c57 132 122 260 176 393c30 71 51 163 12 234c-38 69 -135 82 -202 49c-61 -31 -99 -110 -87 -177c8 -47 42 -82 91 -85c45 -2 88 21 108 61c14 27 54 3 40 -24c-28 -55 -93 -89 -155 -83c-68 7 -119 55 -130 123c-14 86 31 186 110 225
c85 43 206 28 260 -57c20 -31 30 -67 32 -103c21 32 46 61 78 81c64 42 161 22 182 -58c12 -46 1 -96 -14 -140c-21 -61 -50 -120 -76 -179c-22 -49 -45 -99 -59 -151c-5 -18 -9 -37 -8 -56c1 -12 4 -22 13 -30c28 -26 68 -8 93 16c39 36 66 82 93 127z" />
    <glyph glyph-name="afii10032" unicode="&#x41e;" horiz-adv-x="451" 
d="M469 452c-20 -81 -54 -160 -93 -233c-35 -65 -78 -131 -134 -179c-42 -35 -97 -62 -152 -45c-1 1 -2 1 -3 1c-1 1 -2 1 -2 1c-140 56 -83 248 -43 353c29 73 63 145 106 210c32 49 70 96 118 128c35 24 77 37 118 28c45 -9 78 -44 91 -86c19 -57 8 -122 -6 -178zM233 96
c56 57 96 130 130 202c30 64 56 132 69 202c8 42 12 94 -8 132c-14 28 -42 45 -71 41c-49 -7 -76 -33 -91 -47c-42 -38 -74 -86 -102 -135c-34 -59 -63 -122 -85 -187c-18 -51 -33 -106 -32 -161c0 -43 14 -86 57 -102c51 -17 99 20 133 55z" />
    <glyph glyph-name="afii10034" unicode="&#x420;" horiz-adv-x="819" 
d="M546 551c-25 -45 -42 -94 -59 -143c-33 -95 -62 -194 -113 -282c-47 -79 -124 -151 -223 -143c-62 4 -120 40 -146 98c-28 63 -12 139 27 193c37 52 97 80 160 69c70 -13 113 -79 100 -147c-6 -30 -51 -17 -45 12c6 30 -7 59 -32 76c-24 16 -53 18 -80 11
c-58 -16 -95 -82 -98 -139c-2 -53 29 -100 78 -118c42 -16 89 -9 125 11c68 39 107 118 136 189c35 85 60 173 94 258c28 69 63 147 132 184c26 14 50 -26 23 -40c-18 -10 -29 -19 -43 -36c-13 -14 -25 -34 -36 -53zM778 717c86 -77 100 -200 58 -304
c-26 -63 -70 -117 -131 -150c-66 -37 -144 -41 -211 -5c-27 14 -3 54 23 40c62 -33 132 -20 188 19c50 35 83 89 99 148c23 85 0 177 -73 231c-43 31 -96 48 -148 53c-62 7 -125 3 -184 -16c-88 -28 -162 -96 -176 -190c-3 -22 -3 -45 9 -64c13 -22 38 -33 63 -34
c55 0 90 51 86 102c-3 30 44 29 47 0c6 -76 -55 -149 -133 -148c-39 0 -76 18 -99 50c-20 28 -24 62 -20 95c16 119 109 205 220 237c124 36 283 25 382 -64z" />
    <glyph glyph-name="afii10020" unicode="&#x413;" horiz-adv-x="530" 
d="M814 726c27 14 50 -26 24 -40c-52 -26 -106 -35 -160 -34c-55 -2 -88 -31 -108 -58c-26 -35 -45 -76 -61 -116c-39 -98 -66 -200 -110 -296c-38 -83 -95 -168 -188 -193c-62 -16 -132 -3 -177 45c-49 54 -55 136 -28 203c26 66 88 110 161 108c79 -3 136 -71 121 -149
c-5 -30 -50 -17 -45 12c7 35 -11 67 -42 82c-27 13 -62 11 -89 -1c-65 -28 -89 -115 -69 -179c17 -53 68 -84 122 -81c42 1 78 20 107 46c63 58 97 148 126 229c32 88 57 181 101 264c19 37 45 72 77 97c-18 4 -36 8 -54 13c-112 31 -314 108 -378 -39
c-25 -57 -9 -130 56 -151c29 -9 62 -6 87 13c24 18 41 49 42 80c0 30 47 30 46 0c-1 -45 -24 -89 -59 -116c-35 -28 -84 -35 -127 -22c-79 24 -118 106 -98 184c15 62 59 111 119 132c95 33 198 1 291 -26c101 -30 214 -57 313 -7z" />
    <glyph glyph-name="afii10026" unicode="&#x418;" horiz-adv-x="661" 
d="M512 226c-15 -33 -26 -67 -33 -102c-5 -21 -9 -51 4 -70c12 -18 33 -22 52 -14c27 11 48 37 66 59c23 29 42 61 60 93c15 27 55 3 41 -23c-23 -40 -48 -79 -77 -114c-24 -28 -55 -57 -92 -64c-31 -6 -63 5 -83 29c-13 16 -19 35 -21 55c-6 -8 -13 -16 -19 -23
c-32 -36 -75 -68 -125 -67c-47 1 -90 24 -107 69c-13 36 -8 78 2 113c11 41 28 81 45 120l30 69c21 49 46 97 64 149c21 61 44 150 -4 205c-45 52 -130 48 -186 18c-33 -18 -59 -46 -74 -80c-16 -35 -24 -79 -12 -115c25 -74 128 -89 178 -33c20 23 52 -10 33 -33
c-75 -84 -225 -51 -257 57c-14 47 -3 101 17 145c19 42 52 78 92 99c72 40 177 42 238 -21c64 -66 48 -169 22 -248c-18 -54 -44 -105 -66 -157c-8 -18 -29 -65 -40 -91s-26 -63 -35 -95c-8 -28 -12 -59 -3 -87c10 -27 43 -41 74 -37c41 5 73 41 96 72c30 40 53 84 73 130
c11 27 24 55 36 82c57 131 117 260 177 390c12 27 52 4 40 -24c-30 -64 -59 -128 -89 -192c-27 -61 -94 -211 -117 -264z" />
    <glyph glyph-name="afii10039" unicode="&#x425;" horiz-adv-x="736" 
d="M825 612c2 -30 -44 -30 -47 0c-2 35 -33 60 -67 56c-25 -2 -47 -15 -65 -31c-30 -25 -54 -57 -75 -89c-28 -44 -52 -91 -73 -139c-34 -77 -61 -164 -59 -249c0 -30 5 -62 20 -88c17 -31 46 -45 81 -45c40 0 77 26 105 52c35 31 64 68 89 107c15 25 56 2 40 -24
c-56 -88 -156 -207 -275 -177c-86 23 -109 117 -106 195c0 14 1 29 3 43c-6 -12 -13 -23 -19 -34c-48 -79 -114 -168 -208 -193c-49 -14 -104 -6 -141 31c-47 47 -45 116 -20 173c5 11 22 14 32 8c11 -7 13 -20 8 -32c-21 -48 -14 -111 40 -134c38 -15 80 -2 113 18
c74 45 123 126 162 200c38 72 69 149 89 228c10 39 19 84 10 125c-10 42 -45 58 -87 57c-36 -1 -73 -22 -101 -47c-46 -41 -81 -94 -109 -148c-14 -27 -54 -3 -40 23c55 106 161 250 299 213c83 -22 94 -103 84 -178c19 33 40 65 64 95c23 28 52 56 85 72c27 13 59 20 88 12
c45 -11 76 -55 80 -100z" />
    <glyph glyph-name="afii10037" unicode="&#x423;" horiz-adv-x="634" 
d="M743 714c12 -7 13 -21 8 -32c-19 -42 -38 -84 -57 -127c-88 -195 -174 -392 -268 -585c-19 -38 -38 -76 -62 -111c-45 -65 -109 -117 -192 -103s-116 105 -86 177c5 12 15 20 29 17c11 -4 21 -17 16 -29c-13 -32 -15 -71 9 -98c25 -27 69 -29 102 -15c36 14 63 46 84 78
c23 34 42 71 60 108c6 11 11 23 17 34c-27 -20 -57 -36 -90 -41c-49 -7 -106 6 -130 53c-19 37 -15 81 -6 120c11 45 30 87 48 129c10 23 20 46 30 68c22 51 47 100 64 152c21 62 43 155 -12 207c-44 43 -121 41 -173 14c-35 -17 -61 -45 -78 -80c-17 -33 -25 -78 -15 -114
c23 -77 128 -94 179 -36c20 23 52 -10 33 -33c-75 -85 -229 -51 -257 60c-24 93 29 200 113 243c70 36 166 37 227 -17c71 -63 55 -172 29 -252c-17 -55 -43 -106 -66 -159c-9 -19 -40 -91 -40 -92c-15 -33 -29 -67 -37 -102c-7 -29 -11 -64 4 -89c18 -31 67 -32 99 -21
c44 14 79 50 105 86c29 38 53 80 74 123c70 153 139 305 207 458c5 12 22 15 32 9z" />
    <glyph glyph-name="afii10018" unicode="&#x411;" horiz-adv-x="723" 
d="M728 727c26 13 50 -27 23 -41c-51 -25 -105 -34 -160 -33c-1 -1 -3 -1 -6 -1c-17 0 -34 -4 -50 -12c-62 -33 -94 -112 -117 -174c-3 -10 -7 -20 -10 -29c58 1 118 -10 168 -39c36 -22 67 -53 85 -91c18 -40 20 -85 14 -128c-13 -84 -67 -161 -145 -195
c-48 -21 -102 -26 -153 -12c-31 9 -72 27 -86 60c-5 11 -3 25 9 31c9 6 26 4 31 -8c5 -10 12 -17 23 -23c70 -43 165 -19 219 39c49 50 74 135 51 203c-22 68 -99 108 -166 114c-23 2 -45 2 -67 1c-18 -52 -37 -104 -59 -155c-19 -45 -41 -89 -69 -129
c-26 -38 -58 -75 -98 -99c-34 -19 -75 -25 -110 -4c-31 18 -45 53 -45 88c0 80 49 155 102 211c57 61 130 108 213 126c10 2 21 4 32 6c28 81 63 182 132 233c-18 3 -35 8 -53 12c-112 31 -314 109 -377 -38c-25 -58 -9 -130 55 -151c29 -9 62 -7 87 12c24 19 41 50 42 80
s47 30 46 0c-1 -44 -23 -88 -58 -115c-36 -28 -84 -35 -127 -22c-79 24 -118 105 -98 183c15 62 58 111 118 132c96 34 199 2 291 -26c101 -30 213 -57 313 -6zM249 171c38 67 66 139 91 211c-35 -7 -68 -19 -100 -37c-61 -35 -119 -91 -153 -153c-20 -37 -60 -133 1 -154
c28 -10 59 9 79 27c34 30 60 67 82 106z" />
    <glyph glyph-name="afii10024" unicode="&#x416;" horiz-adv-x="1049" 
d="M1128 611c2 -30 -44 -29 -46 0c-3 35 -34 59 -67 56c-21 -1 -47 -15 -66 -31c-30 -25 -54 -57 -75 -89c-28 -44 -52 -91 -73 -139c-33 -77 -60 -164 -59 -249c1 -30 5 -62 20 -88c17 -31 47 -45 81 -45c41 0 77 26 106 52c34 31 63 68 88 107c16 25 56 2 40 -23
c-56 -89 -156 -208 -274 -178c-87 23 -110 117 -107 195c2 60 15 119 35 175c-39 -30 -73 -66 -104 -103c-60 -70 -109 -149 -147 -232l-9 -24c-5 -11 -16 -20 -29 -16c-11 3 -21 17 -16 29c1 4 154 386 209 518c-80 -91 -155 -185 -227 -283c-1 -1 -2 -3 -3 -4
c-9 -17 -18 -34 -28 -51c-48 -79 -114 -168 -208 -193c-49 -13 -103 -5 -141 31c-47 47 -45 116 -20 173c5 12 22 14 32 8c11 -7 13 -20 8 -31c-21 -49 -14 -112 40 -134c38 -16 80 -3 113 17c74 45 123 126 162 201c38 71 69 148 89 227c10 39 19 84 10 125
c-10 42 -45 58 -87 57c-36 -1 -73 -22 -101 -47c-46 -41 -81 -94 -109 -148c-14 -27 -54 -3 -40 23c55 106 161 250 299 213c113 -30 92 -168 68 -253c-5 -16 -9 -32 -15 -48c68 85 139 167 212 247c8 18 16 37 24 55c4 11 22 14 31 8c12 -7 14 -20 9 -32
c-8 -17 -15 -35 -23 -53v-1c-9 -21 -18 -42 -27 -64c-42 -101 -84 -203 -125 -305c5 7 10 13 16 20c48 56 103 110 167 149c8 16 16 33 24 49c25 51 54 101 90 145c24 29 52 56 86 72c27 13 58 20 88 12c45 -11 75 -55 79 -100z" />
    <glyph glyph-name="afii10025" unicode="&#x417;" horiz-adv-x="536" 
d="M402 401c44 -32 73 -80 80 -134c16 -105 -42 -222 -135 -274c-99 -55 -241 -40 -310 54c-26 36 -40 83 -36 127c6 54 30 111 73 145c37 29 86 38 129 21c54 -21 86 -72 71 -129c-8 -29 -52 -17 -45 12c11 43 -25 75 -65 79c-40 3 -74 -24 -93 -58
c-38 -67 -30 -151 34 -201c71 -55 186 -45 252 14c62 54 99 149 74 229c-11 32 -32 62 -59 80c-13 9 -29 17 -42 18c-8 -2 -17 -3 -26 -4c-23 -2 -33 34 -12 44c11 5 23 7 35 7c45 11 81 42 102 84c18 35 26 78 15 114c-7 20 -24 41 -45 53c-19 11 -43 15 -65 12
c-44 -6 -83 -50 -81 -97c2 -19 11 -38 29 -46c19 -9 46 -7 58 11c17 25 57 1 40 -23c-24 -36 -69 -48 -109 -33c-36 13 -58 45 -63 81c-9 69 45 140 112 151c69 12 140 -22 166 -89c20 -53 7 -117 -20 -165c-19 -32 -44 -58 -74 -75c4 -3 7 -5 10 -8z" />
    <glyph glyph-name="afii10029" unicode="&#x41b;" horiz-adv-x="778" 
d="M774 194c15 26 55 2 41 -24c-20 -34 -41 -68 -65 -99c-20 -25 -43 -51 -72 -67c-48 -26 -109 -11 -129 43c-22 56 6 125 26 178c54 136 118 270 179 403c4 9 17 43 4 58c-25 28 -70 -29 -84 -47c-54 -66 -92 -146 -131 -221c-64 -123 -110 -262 -201 -368
c-35 -42 -81 -77 -137 -84c-57 -9 -122 7 -164 49c-73 74 -62 203 5 276c48 54 134 82 198 38c45 -30 68 -94 37 -142c-16 -26 -56 -2 -40 23c10 16 10 37 0 56c-14 26 -44 39 -72 39c-63 -1 -111 -58 -126 -114c-10 -40 -8 -85 14 -121c25 -43 74 -60 123 -60s90 29 122 64
c41 46 71 101 98 155c64 128 120 260 196 381c20 30 41 61 66 87c7 6 13 12 21 18c-29 9 -56 22 -84 33c-74 27 -192 59 -250 -15c-29 -37 -39 -101 12 -124c22 -10 50 -8 68 9c15 15 19 40 13 60c-10 28 35 41 45 12c11 -34 2 -76 -23 -102c-26 -28 -66 -37 -103 -28
c-74 18 -100 100 -70 166c24 52 70 86 126 95c59 10 119 -3 174 -21c31 -11 60 -25 91 -36c36 -13 74 -21 113 -22c26 0 29 -36 9 -45c3 -7 5 -14 6 -22c3 -36 -31 -105 -31 -105c-26 -55 -51 -109 -75 -164c-27 -59 -53 -118 -77 -178c-12 -29 -24 -58 -31 -89
c-6 -21 -11 -46 -6 -68c4 -17 16 -31 33 -34c18 -3 35 8 48 18c45 36 76 90 103 139z" />
    <glyph glyph-name="afii10030" unicode="&#x41c;" horiz-adv-x="1030" 
d="M898 288c-24 -52 -48 -106 -60 -162c-4 -22 -9 -51 4 -71c12 -18 33 -22 52 -14c27 12 48 37 66 59c23 29 42 61 60 94c15 26 55 2 40 -24c-22 -40 -47 -79 -76 -114c-24 -28 -55 -57 -92 -64c-30 -6 -63 5 -83 29c-20 25 -24 58 -20 89c-12 -15 -25 -30 -38 -43
c-48 -51 -123 -108 -196 -69s-50 144 -32 208c4 11 7 22 11 33c-55 -80 -117 -156 -194 -214c-39 -30 -83 -54 -133 -60c-55 -7 -115 7 -155 47c-74 71 -64 201 0 276c48 55 133 84 199 43c47 -29 72 -95 40 -144c-16 -26 -57 -2 -40 23c10 15 10 35 1 54
c-12 24 -39 38 -66 40c-60 5 -112 -48 -129 -101c-13 -38 -14 -82 1 -119c16 -40 52 -65 95 -72c42 -7 80 2 117 23c43 23 80 56 114 92c82 87 148 189 209 292c49 83 94 170 139 256c-71 12 -136 46 -208 51c-50 2 -106 -2 -144 -37c-31 -28 -52 -75 -47 -118
c6 -49 48 -86 96 -87c54 -2 98 44 100 97c1 30 47 30 46 0c-2 -80 -70 -149 -151 -143c-65 4 -122 50 -135 115c-11 57 10 121 51 163c45 46 111 58 173 57c44 -2 85 -12 126 -25s82 -27 125 -30c14 -2 21 -6 24 -14c3 -6 2 -17 -2 -24c-39 -85 -82 -168 -123 -253
c-35 -75 -70 -150 -94 -230c-13 -44 -44 -146 22 -164c24 -6 50 5 72 19c31 20 57 48 80 76c45 53 82 113 112 176c1 4 122 273 182 402c12 27 52 4 40 -23c-30 -64 -59 -128 -89 -193c-26 -58 -86 -193 -90 -202z" />
    <glyph glyph-name="afii10038" unicode="&#x424;" horiz-adv-x="834" 
d="M770 710c126 -31 113 -192 84 -288c-23 -75 -59 -149 -101 -216c-52 -84 -123 -171 -221 -202c-51 -17 -112 -16 -155 20c-18 14 -29 32 -37 50c-16 -34 -32 -68 -49 -103c-19 -38 -38 -76 -62 -111c-45 -65 -109 -117 -193 -103c-82 14 -115 105 -85 177
c5 12 15 20 28 17c12 -4 22 -17 17 -29c-13 -31 -15 -71 9 -98c25 -27 69 -29 101 -15c36 14 64 46 85 78c23 34 42 71 60 108c9 19 18 37 27 56c-16 -12 -33 -23 -51 -32c-56 -30 -125 -34 -176 8c-72 59 -58 176 -38 255c15 56 38 111 66 162c30 56 66 111 110 158
c64 68 180 152 277 97c38 -21 57 -55 64 -94c33 61 54 125 58 138c5 19 9 41 4 61c-10 35 -52 51 -86 49c-47 -1 -90 -27 -132 -45c-47 -21 -95 -38 -147 -29c-53 8 -106 50 -104 108c1 30 47 30 46 0s26 -51 52 -59c25 -8 51 -6 76 1c95 24 183 104 283 54
c89 -44 61 -145 28 -220c46 39 100 62 162 47zM224 71c43 27 80 64 111 105l132 288c25 68 42 191 -52 204c-41 6 -82 -12 -115 -33c-45 -29 -83 -68 -115 -110c-61 -83 -112 -179 -133 -281c-12 -60 -21 -162 47 -193c43 -20 87 -4 125 20zM813 447c20 78 35 224 -84 221
c-14 0 -30 -4 -44 -10c-20 -9 -38 -22 -54 -37c-48 -44 -83 -100 -113 -157c-4 -7 -94 -209 -132 -292c-1 -2 -3 -8 -3 -9c-14 -48 0 -105 55 -120c44 -11 92 5 129 28c76 46 129 125 171 202c31 56 59 112 75 174z" />
    <glyph glyph-name="afii10040" unicode="&#x426;" horiz-adv-x="684" 
d="M681 188c14 27 54 3 40 -23c-37 -70 -85 -130 -146 -179c15 -48 4 -103 -20 -146c-22 -41 -74 -74 -120 -55c-44 17 -55 67 -38 107c18 45 61 71 101 96c-29 14 -52 35 -62 66c-2 7 -4 15 -5 23c-7 -10 -14 -19 -22 -28c-32 -36 -75 -67 -125 -67c-47 1 -90 25 -106 70
c-13 36 -8 77 1 113c11 40 29 80 46 119c9 23 19 46 29 69c22 49 46 97 64 149c21 60 43 147 -2 202c-43 54 -131 51 -187 21c-33 -18 -59 -47 -75 -81c-15 -34 -23 -78 -11 -115c25 -73 128 -88 177 -32c20 23 53 -10 33 -33c-74 -84 -224 -51 -256 57
c-14 47 -4 101 16 145c19 41 51 76 91 98c73 41 182 43 242 -23c61 -68 44 -169 18 -247c-17 -53 -43 -103 -65 -154c-8 -19 -34 -79 -40 -92c-13 -31 -26 -62 -35 -95c-7 -28 -12 -59 -2 -86c9 -28 43 -42 74 -38c40 6 73 41 96 73c32 43 57 92 78 142v1
c65 154 136 306 206 457c13 27 53 4 40 -23c-59 -127 -118 -255 -174 -383v-2c-20 -47 -42 -95 -56 -144c-12 -41 -19 -94 25 -117c9 -4 21 -8 31 -13c58 45 104 102 139 168zM479 -171c39 17 56 69 56 109c0 6 0 12 -1 18c-18 -12 -37 -23 -54 -36c-15 -10 -30 -24 -38 -40
c-6 -12 -10 -28 -4 -40c8 -15 27 -17 41 -11z" />
    <glyph glyph-name="afii10041" unicode="&#x427;" horiz-adv-x="668" 
d="M546 308c-26 -59 -55 -119 -69 -182c-4 -22 -9 -51 4 -71c12 -17 33 -22 52 -14c27 12 48 37 66 59c23 29 42 61 60 93c15 26 55 3 40 -23c-23 -40 -47 -79 -77 -114c-23 -27 -54 -56 -91 -63c-30 -6 -62 5 -82 29c-21 24 -25 57 -21 88c3 30 11 60 22 88
c-27 -21 -59 -36 -94 -34c-46 3 -87 27 -102 72c-12 35 -7 76 3 111c13 48 35 94 54 139c0 1 1 1 1 2c20 52 34 109 27 160c-8 57 -51 94 -106 99c-59 6 -121 -18 -158 -66c-35 -45 -57 -127 -17 -176c41 -50 119 -54 162 -5c20 22 52 -11 33 -33c-65 -73 -185 -59 -238 19
c-47 68 -20 168 28 228c48 61 129 89 205 78c76 -12 128 -67 137 -143c10 -83 -24 -168 -58 -242v-1c-10 -23 -19 -47 -25 -72c-8 -28 -13 -58 -3 -86c9 -27 43 -42 74 -37c42 7 74 46 98 78c27 39 50 81 71 124c43 98 88 195 133 292c13 27 53 3 40 -24
c-29 -64 -59 -128 -88 -192c-9 -20 -69 -153 -81 -181z" />
    <glyph glyph-name="afii10023" unicode="&#x401;" horiz-adv-x="462" 
d="M360 872c3 -16 -2 -35 -15 -44c-17 -12 -40 -4 -46 15c-4 14 0 30 12 42c7 6 15 8 23 8c13 -1 23 -10 26 -21zM497 872c4 -16 -1 -35 -15 -44c-16 -12 -39 -4 -45 15c-5 14 0 30 11 42c7 6 16 8 24 8c12 -1 22 -10 25 -21zM458 192c15 26 55 2 40 -24
c-42 -78 -98 -155 -182 -190c-78 -33 -175 -24 -241 30c-58 48 -82 127 -73 200c10 81 53 157 121 201c23 16 49 26 75 32c-11 14 -20 31 -26 49c-18 54 -12 116 15 165c36 64 115 104 188 82c37 -11 73 -39 87 -76c12 -35 8 -75 -8 -108c-17 -35 -50 -59 -89 -63
c-36 -3 -74 14 -89 48c-6 12 -4 25 8 32c10 6 27 3 32 -8c11 -25 40 -31 64 -21c27 11 41 44 42 72c1 26 -8 47 -29 64c-25 19 -56 24 -86 16c-47 -12 -79 -48 -92 -93c-11 -37 -9 -81 9 -115c10 -18 23 -31 39 -41c25 -2 50 -8 75 -19c22 -10 10 -44 -12 -43
c-28 0 -54 6 -76 17c-45 1 -90 -15 -125 -46c-92 -81 -118 -260 6 -326c61 -34 140 -27 199 10c57 36 96 96 128 155z" />
    <glyph glyph-name="afii10027" unicode="&#x419;" horiz-adv-x="661" 
d="M476 838c-13 27 27 50 40 23c10 -19 30 -32 54 -35c33 -5 60 9 78 35c17 25 57 2 40 -23c-27 -40 -68 -64 -118 -59c-38 4 -76 24 -94 59zM512 226c-15 -33 -26 -67 -33 -102c-5 -21 -9 -51 4 -70c12 -18 33 -22 52 -14c27 11 48 37 66 59c23 29 42 61 60 93
c15 27 55 3 41 -23c-23 -40 -48 -79 -77 -114c-24 -28 -55 -57 -92 -64c-31 -6 -63 5 -83 29c-13 16 -19 35 -21 55c-6 -8 -13 -16 -19 -23c-32 -36 -75 -68 -125 -67c-47 1 -90 24 -107 69c-13 36 -8 78 2 113c11 41 28 81 45 120l30 69c21 49 46 97 64 149
c21 61 44 150 -4 205c-45 52 -130 48 -186 18c-33 -18 -59 -46 -74 -80c-16 -35 -24 -79 -12 -115c25 -74 128 -89 178 -33c20 23 52 -10 33 -33c-75 -84 -225 -51 -257 57c-14 47 -3 101 17 145c19 42 52 78 92 99c72 40 177 42 238 -21c64 -66 48 -169 22 -248
c-18 -54 -44 -105 -66 -157c-8 -18 -29 -65 -40 -91s-26 -63 -35 -95c-8 -28 -12 -59 -3 -87c10 -27 43 -41 74 -37c41 5 73 41 96 72c30 40 53 84 73 130c11 27 24 55 36 82c57 131 117 260 177 390c12 27 52 4 40 -24c-30 -64 -59 -128 -89 -192
c-27 -61 -94 -211 -117 -264z" />
    <glyph glyph-name="afii10042" unicode="&#x428;" horiz-adv-x="930" 
d="M772 227c-14 -33 -25 -67 -33 -101c-4 -22 -9 -51 5 -71c11 -17 33 -22 51 -14c27 12 48 37 66 59c23 29 42 61 60 93c15 26 55 3 40 -23c-22 -40 -47 -79 -77 -114c-23 -27 -54 -56 -91 -63c-30 -6 -62 5 -82 29c-13 16 -19 35 -21 55c-6 -8 -13 -16 -19 -24
c-32 -36 -75 -67 -125 -66c-47 1 -89 24 -106 69c-3 9 -5 19 -7 29c-8 -11 -16 -22 -25 -32c-32 -36 -75 -67 -125 -66c-46 1 -89 24 -105 69c-13 36 -8 77 1 112c11 41 29 81 45 119c10 24 20 47 31 71c21 49 46 97 63 148c21 63 44 155 -10 208c-45 45 -123 42 -176 15
c-66 -34 -112 -121 -89 -195c23 -75 127 -91 177 -34c20 22 52 -11 33 -33c-75 -85 -228 -50 -257 60c-24 92 30 199 113 242c70 36 167 37 228 -19c70 -63 53 -172 27 -252c-17 -53 -43 -104 -66 -155c-8 -18 -28 -66 -35 -83c-14 -31 -30 -71 -39 -103
c-7 -28 -12 -59 -3 -86c10 -28 43 -42 74 -37c41 5 73 40 96 71c34 47 58 100 82 152c11 27 134 301 202 448c12 27 52 3 40 -24c-59 -126 -118 -252 -173 -379c-3 -9 -42 -97 -55 -145c-8 -28 -13 -59 -3 -86c10 -28 43 -42 74 -37c40 5 73 40 95 71c30 40 53 84 73 129
c11 28 23 55 35 82c57 130 116 260 176 389c13 27 53 3 40 -24c-29 -64 -59 -128 -88 -192c-27 -60 -104 -234 -117 -262z" />
    <glyph glyph-name="afii10043" unicode="&#x429;" horiz-adv-x="954" 
d="M951 206c14 27 54 3 40 -23c-38 -69 -86 -129 -146 -178c15 -48 3 -102 -20 -146c-22 -41 -74 -73 -120 -55c-43 18 -54 67 -38 107c19 45 61 71 101 96c-29 13 -52 34 -61 65c-3 8 -4 15 -5 23c-7 -9 -14 -19 -22 -27c-32 -36 -75 -68 -125 -67c-47 1 -89 24 -106 69
c-3 10 -5 20 -6 29c-8 -11 -17 -21 -26 -31c-31 -36 -75 -68 -124 -67c-47 1 -90 24 -106 69c-13 36 -8 77 1 113c11 40 29 80 45 119c10 22 20 45 30 68c22 50 46 98 64 149c20 61 43 150 -4 204c-45 51 -130 48 -185 18c-33 -18 -59 -46 -74 -80c-16 -34 -24 -79 -12 -115
c25 -73 128 -88 177 -32c20 23 52 -10 33 -33c-74 -84 -224 -51 -255 57c-14 47 -4 100 16 144c18 41 51 76 90 98c72 40 178 42 239 -20c64 -66 47 -170 21 -249c-18 -53 -43 -103 -65 -154c-8 -18 -39 -90 -40 -91c-13 -31 -26 -62 -35 -94c-7 -29 -12 -59 -3 -87
c10 -27 43 -41 74 -37c41 5 73 41 96 72c34 46 60 99 82 152c1 2 134 301 202 447c12 27 52 3 40 -24c-59 -126 -117 -252 -173 -379c-3 -7 -42 -97 -55 -144c-8 -29 -13 -59 -3 -87c10 -27 43 -41 74 -37c40 5 73 41 96 72c32 43 56 92 77 141c0 1 0 1 1 2
c64 154 135 305 205 456c12 27 52 3 40 -24c-59 -126 -118 -253 -174 -381v-2c-20 -47 -41 -95 -55 -144c-12 -41 -19 -93 24 -116c9 -5 21 -8 31 -13c58 45 103 102 139 167zM749 -151c39 16 56 69 56 108c0 6 0 12 -1 19c-18 -12 -37 -24 -54 -37c-14 -10 -29 -23 -38 -40
c-6 -11 -10 -27 -3 -40c8 -15 26 -16 40 -10z" />
    <glyph glyph-name="afii10044" unicode="&#x42a;" horiz-adv-x="435" 
d="M328 385c72 -41 63 -146 41 -213c-28 -81 -96 -180 -190 -185c-37 -2 -77 12 -99 42c-18 24 -24 55 -23 84c3 61 30 118 54 173c45 106 93 211 142 316c-25 -3 -48 7 -68 23c-22 19 -37 51 -70 40c-25 -9 -35 -38 -38 -62c-1 -12 -10 -23 -23 -23c-12 0 -25 11 -23 23
c3 33 13 67 39 88c25 22 60 28 91 16c18 -8 30 -21 43 -35c10 -11 22 -23 37 -25c30 -3 49 36 59 58c6 11 17 14 26 10c12 -5 22 -19 14 -34c-44 -95 -89 -191 -132 -287c4 1 9 3 13 4c36 11 75 5 107 -13zM329 200c13 48 22 127 -35 150c-21 9 -46 10 -68 1
c-32 -13 -52 -43 -68 -72v-1c-14 -32 -28 -64 -40 -98c-8 -21 -13 -44 -14 -65c-1 -22 0 -43 14 -60c15 -19 47 -25 71 -21c37 8 67 37 89 66c23 29 40 63 51 100z" />
    <glyph glyph-name="afii10045" unicode="&#x42b;" horiz-adv-x="631" 
d="M519 308c-26 -59 -55 -119 -69 -182c-4 -22 -9 -51 5 -71c11 -17 33 -22 51 -14c27 12 48 37 66 59c23 29 42 61 60 93c15 26 55 3 40 -23c-22 -40 -47 -79 -77 -114c-23 -27 -54 -56 -91 -63c-30 -6 -62 5 -82 29c-21 24 -24 57 -21 88c8 72 42 140 71 206
c15 35 31 70 46 104c-58 -52 -132 -96 -207 -104c10 -29 11 -62 8 -92c-9 -89 -54 -188 -140 -226c-75 -33 -165 7 -184 88c-8 40 -4 81 5 120c12 57 34 113 57 167c48 110 96 221 146 332c5 11 21 14 31 8c12 -7 14 -20 9 -32c-49 -109 -97 -219 -144 -329
c-21 -48 -39 -96 -52 -146c-7 -32 -13 -69 -8 -101c3 -17 11 -42 32 -56c28 -19 65 -22 97 -5c66 36 101 118 106 190c1 28 -1 59 -15 82v1c-25 3 -50 11 -75 25c-16 9 -15 40 6 43c34 5 67 -1 91 -23c52 -2 105 20 150 49c75 49 137 121 175 201l42 93c13 27 53 3 40 -24
c-29 -64 -59 -128 -88 -192c-27 -60 -55 -121 -81 -181z" />
    <glyph glyph-name="afii10046" unicode="&#x42c;" horiz-adv-x="349" 
d="M252 385c72 -41 63 -146 40 -213c-27 -81 -95 -180 -189 -185c-37 -2 -77 12 -100 42c-18 24 -23 55 -22 84c3 61 29 118 54 173c60 141 125 280 189 419c13 27 53 3 40 -24c-44 -95 -89 -191 -132 -287c4 1 8 3 13 4c35 11 75 5 107 -13zM252 200c14 48 22 127 -34 150
c-22 9 -46 10 -69 1c-31 -13 -52 -43 -67 -72v-1c-14 -32 -28 -64 -40 -98c-8 -21 -13 -44 -15 -65c-1 -22 1 -43 15 -60c15 -19 47 -25 71 -21c37 8 66 37 89 66s40 63 50 100z" />
    <glyph glyph-name="afii10047" unicode="&#x42d;" horiz-adv-x="498" 
d="M470 389c18 14 48 -7 34 -29s-33 -37 -55 -46c-13 -44 -31 -87 -52 -128c-46 -87 -119 -182 -223 -194c-48 -6 -100 9 -133 46c-35 41 -48 96 -37 149c6 29 50 17 44 -12c-9 -45 8 -98 47 -122c35 -22 82 -20 118 -3c82 38 133 129 167 208c6 15 12 31 18 46
c-20 0 -39 5 -57 13c-25 11 -49 36 -78 34c-22 -2 -40 -16 -49 -36c-5 -11 -22 -14 -32 -8c-11 7 -13 20 -8 32c23 50 86 71 136 48c29 -13 52 -36 87 -37c5 0 10 0 15 1c6 20 11 40 15 61c10 43 15 88 12 132c-3 29 -10 58 -27 82c-13 19 -34 30 -59 35
c-89 18 -161 -82 -191 -154c-5 -12 -15 -20 -29 -17c-11 3 -21 17 -16 29c42 101 141 223 265 183c77 -26 103 -106 104 -181c0 -44 -6 -88 -16 -132z" />
    <glyph glyph-name="afii10048" unicode="&#x42e;" horiz-adv-x="1069" 
d="M1073 447c-21 -80 -54 -159 -93 -232c-35 -65 -77 -130 -134 -178c-41 -35 -96 -62 -151 -45c-2 1 -3 1 -5 2c-128 51 -90 218 -52 325c-43 5 -85 23 -126 42c-7 -16 -14 -33 -21 -49c-44 -102 -95 -214 -180 -289c-35 -31 -76 -54 -124 -58c-55 -5 -115 11 -152 53
c-67 75 -53 204 11 277c47 53 133 75 195 34c44 -30 68 -94 37 -143c-16 -25 -56 -1 -40 24c10 15 10 35 1 53c-12 25 -39 39 -65 41c-60 5 -108 -44 -125 -96c-26 -76 -8 -173 81 -193c42 -10 80 -4 115 17c36 21 65 53 89 86c58 80 99 171 136 261
c-50 18 -111 26 -129 -35c-9 -29 -54 -16 -45 12c12 40 45 75 87 81c36 4 71 -2 105 -15c33 84 64 170 103 252c-71 11 -136 46 -208 50c-49 3 -106 -2 -144 -37c-31 -27 -51 -74 -46 -117c6 -49 47 -86 96 -87c53 -2 97 44 99 97c1 30 47 30 46 0
c-2 -80 -70 -149 -151 -143c-64 5 -121 50 -134 115c-11 57 10 121 51 162c45 46 111 59 172 57c44 -2 85 -11 126 -25c41 -13 82 -27 125 -30c6 -1 17 -1 23 -11c5 -10 3 -18 0 -24c-45 -90 -80 -184 -117 -277c42 -19 83 -39 127 -39c26 66 58 130 97 190
c32 48 69 95 118 127c34 23 76 37 117 28c45 -10 77 -44 91 -86c18 -57 8 -121 -6 -177zM838 93c55 57 96 129 129 200c30 64 56 132 69 201c7 42 12 94 -8 132c-14 28 -42 44 -71 40c-48 -6 -75 -32 -90 -46c-42 -38 -74 -86 -102 -135c-20 -35 -39 -72 -55 -110
c10 1 21 -7 24 -17c4 -13 -5 -24 -16 -29c-10 -3 -20 -6 -30 -8c-2 -7 -5 -14 -7 -21c-18 -52 -33 -106 -33 -161c1 -42 15 -85 57 -101c51 -18 99 20 133 55z" />
    <glyph glyph-name="afii10049" unicode="&#x42f;" horiz-adv-x="660" 
d="M656 193c15 26 55 3 40 -23c-30 -53 -63 -110 -111 -148c-35 -28 -81 -44 -121 -16c-40 27 -44 75 -37 119c9 56 34 109 56 161c13 30 26 60 40 90c-2 0 -4 -1 -6 -2c-28 -60 -55 -121 -88 -179c-28 -52 -61 -103 -104 -144c-66 -62 -162 -91 -247 -50
c-67 33 -95 109 -86 180c11 88 78 172 171 181c45 5 94 -18 118 -58c19 -31 22 -74 2 -105c-16 -25 -56 -2 -40 23c7 11 9 23 7 35c-2 16 -11 30 -23 40c-35 31 -84 20 -120 -4c-98 -67 -99 -251 40 -263c82 -8 144 42 190 105c51 69 88 149 124 227c-47 -3 -94 8 -129 37
c-59 48 -60 138 -34 203c26 64 81 122 153 126c35 1 77 -10 101 -37c22 -24 29 -58 29 -90c0 -53 -16 -106 -35 -156c5 4 12 12 17 17c7 8 20 9 28 4c11 -7 13 -20 8 -32c-25 -56 -51 -113 -75 -170c-19 -44 -39 -89 -49 -136c-6 -28 -12 -70 18 -86s62 13 81 33
c33 35 59 77 82 118zM374 426c33 -19 72 -23 109 -14c26 61 53 128 52 195c-1 20 -5 43 -21 57c-19 16 -51 21 -76 16c-48 -10 -86 -58 -100 -104c-17 -51 -16 -120 36 -150z" />
    <glyph glyph-name="a" unicode="a" horiz-adv-x="425" 
d="M422 191c14 26 54 2 40 -24c-27 -49 -58 -99 -100 -136c-32 -28 -78 -51 -118 -26c-21 13 -30 32 -32 54c-25 -28 -55 -49 -90 -58c-60 -15 -114 19 -127 79c-16 80 17 167 56 235c36 66 99 138 179 145c33 2 68 -10 90 -35c5 -6 9 -11 12 -18l18 39c13 27 53 4 40 -23
c-26 -56 -50 -112 -74 -169c-19 -44 -39 -88 -51 -134c-6 -21 -19 -68 7 -77c29 -11 61 23 78 41c28 32 51 69 72 107zM130 53c52 27 87 86 109 139c1 1 25 57 36 83c6 16 13 31 20 47c-1 3 -1 6 0 10c8 28 4 57 -24 73c-23 13 -51 9 -74 -2c-61 -31 -100 -93 -127 -154
c-23 -49 -47 -120 -25 -174c14 -35 53 -38 85 -22z" />
    <glyph glyph-name="b" unicode="b" horiz-adv-x="407" 
d="M403 192c15 26 55 2 40 -24c-39 -70 -134 -225 -231 -150c-10 8 -8 25 0 33c10 9 23 7 33 0c27 -21 60 10 79 29c32 33 57 72 79 112zM294 341c16 -71 -8 -147 -40 -210c-29 -57 -75 -118 -138 -140c-54 -20 -111 7 -128 63c-19 60 1 131 22 189c65 157 133 314 203 469
c5 11 22 14 32 8c12 -7 14 -20 8 -32c-68 -151 -135 -304 -198 -458c-18 -49 -40 -115 -21 -167c14 -37 53 -38 83 -21c48 27 81 78 104 127c22 48 42 110 27 164c-5 15 -13 31 -24 38c-12 8 -25 9 -40 5c-29 -7 -41 37 -12 45c59 14 108 -23 122 -80z" />
    <glyph glyph-name="c" unicode="c" horiz-adv-x="326" 
d="M279 308c-15 -26 -55 -2 -40 24c12 20 27 69 -5 81c-25 10 -56 -4 -76 -20c-48 -36 -81 -96 -101 -151c-18 -51 -35 -123 0 -172c30 -42 90 -36 132 -15c60 30 105 83 134 143c13 26 53 3 40 -24c-38 -79 -109 -155 -197 -177c-70 -17 -141 13 -166 83
c-25 73 1 158 34 225c31 62 82 139 155 154c37 8 78 1 98 -33c21 -36 12 -83 -8 -118z" />
    <glyph glyph-name="d" unicode="d" horiz-adv-x="436" 
d="M352 301c-21 -46 -43 -93 -61 -141c-9 -26 -48 -139 19 -117c28 9 50 36 68 58c22 28 41 59 58 90c14 26 54 2 40 -24c-22 -39 -46 -77 -75 -111c-25 -28 -58 -58 -98 -61c-32 -3 -63 15 -74 46c-1 6 -3 11 -4 17c-31 -36 -71 -63 -119 -64c-38 -2 -73 18 -93 50
c-22 36 -25 81 -20 122c8 57 35 115 66 163c35 57 87 112 154 127c35 8 75 7 105 -16c13 -10 23 -22 29 -36c49 106 97 211 146 316c13 27 53 4 40 -23c-33 -71 -65 -142 -98 -213c-28 -61 -56 -122 -83 -183zM123 43c64 17 106 92 130 149c1 2 2 3 2 5c16 39 34 78 52 117
c1 4 3 8 5 12c-1 3 -1 6 0 9c6 32 -8 72 -44 78c-27 5 -57 -3 -80 -16c-47 -26 -80 -72 -105 -118c-22 -40 -42 -86 -45 -132c-2 -29 0 -62 19 -85c16 -20 42 -26 66 -19z" />
    <glyph glyph-name="e" unicode="e" horiz-adv-x="337" 
d="M334 194c14 27 54 3 40 -23c-49 -93 -143 -194 -259 -177c-42 6 -80 31 -98 70c-20 42 -19 91 -11 136c9 46 28 91 52 132c23 41 52 80 90 107c35 24 82 33 121 13c46 -24 49 -80 32 -123c-38 -94 -149 -145 -244 -114c-6 -22 -9 -43 -10 -65c-1 -30 4 -65 27 -87
c21 -22 55 -28 84 -24c81 13 140 88 176 155zM131 359c-23 -29 -44 -63 -59 -100c43 -13 88 -7 127 18c32 20 62 55 66 95c3 32 -22 49 -53 44c-33 -4 -60 -32 -81 -57z" />
    <glyph glyph-name="f" unicode="f" horiz-adv-x="202" 
d="M248 643c-46 -103 -91 -208 -137 -312c-39 -89 -78 -179 -116 -269c83 -13 166 63 203 131c14 26 54 3 40 -23c-44 -83 -137 -158 -232 -155c38 -72 31 -166 8 -243c-16 -52 -39 -121 -87 -153c-25 -17 -60 -19 -86 -3c-23 14 -31 39 -31 65c1 59 25 118 47 172
c23 58 48 115 72 172c1 3 3 6 4 9c-13 12 -9 45 18 43c84 197 170 394 257 590c5 11 22 14 32 8c12 -7 14 -20 8 -32zM-26 -198c16 62 20 134 -9 190c-17 -41 -35 -81 -52 -122c-21 -52 -43 -104 -53 -160c-3 -14 -9 -42 3 -53c17 -15 40 0 52 13c31 36 47 87 59 132z" />
    <glyph glyph-name="g" unicode="g" horiz-adv-x="413" 
d="M410 196c14 26 54 3 40 -24c-37 -65 -85 -122 -148 -164c-36 -24 -74 -42 -113 -62c-23 -61 -46 -122 -70 -182c-18 -46 -40 -98 -80 -129c-46 -37 -112 -19 -126 41c-13 60 19 119 56 164c43 53 103 93 161 127c7 4 15 8 22 12c6 14 12 29 17 44
c-15 -10 -31 -18 -49 -22c-60 -15 -114 19 -127 79c-16 80 17 167 56 235c36 66 99 138 179 145c33 2 68 -10 90 -35c4 -4 7 -9 10 -14c5 12 10 24 15 35c5 12 22 14 32 9c12 -7 14 -21 8 -32c-35 -79 -105 -253 -107 -257c-16 -40 -32 -80 -47 -119c-5 -12 -10 -24 -14 -36
c20 11 41 22 60 35c58 38 101 90 135 150zM127 53c50 26 83 78 105 128c20 50 59 142 61 151c7 28 4 57 -24 73c-23 13 -51 9 -74 -2c-61 -31 -101 -93 -128 -154c-22 -49 -46 -120 -24 -174c14 -35 53 -38 84 -22zM96 -165c10 25 19 50 29 74c-47 -29 -92 -61 -125 -104
c-14 -18 -27 -38 -35 -60c-8 -21 -15 -54 0 -74c12 -15 31 -10 41 -3c17 11 29 30 39 47c22 38 36 80 51 120z" />
    <glyph glyph-name="h" unicode="h" horiz-adv-x="403" 
d="M400 190c14 26 54 3 39 -23c-21 -39 -46 -75 -76 -108c-25 -27 -55 -53 -90 -65c-29 -9 -62 -4 -83 18c-22 22 -24 54 -18 83c8 43 31 82 49 122c16 33 30 69 34 106c3 24 1 57 -27 62c-23 3 -47 -13 -64 -27c-49 -41 -87 -98 -114 -156c0 -1 0 -2 -1 -2
c-28 -66 -57 -132 -86 -199c-5 -11 -22 -14 -31 -8c-12 7 -14 20 -9 32c11 25 22 51 33 76c89 206 177 412 272 616c12 27 52 3 40 -24c-25 -53 -49 -106 -73 -160c-20 -47 -41 -94 -62 -141c3 3 7 6 10 8c23 17 50 32 79 31c30 0 59 -17 71 -44c16 -34 10 -73 1 -107
c-11 -41 -29 -81 -48 -119c-15 -29 -36 -67 -31 -101c4 -21 25 -27 44 -21c30 8 54 34 75 57c25 28 47 60 66 94z" />
    <glyph glyph-name="i" unicode="i" horiz-adv-x="185" 
d="M181 191c14 26 55 2 40 -24c-26 -49 -58 -99 -100 -136c-32 -28 -77 -51 -118 -26c-39 25 -36 76 -27 115c13 54 37 104 58 155c25 57 49 115 76 171c13 27 53 4 40 -23c-26 -56 -51 -112 -75 -169c-18 -44 -38 -88 -51 -134c-6 -21 -19 -68 8 -77c29 -11 60 23 77 41
c29 32 52 69 72 107zM204 569c4 -16 -2 -34 -15 -44c-16 -12 -40 -3 -46 15c-4 14 0 30 12 42c7 7 16 8 24 8c12 0 22 -10 25 -21z" />
    <glyph glyph-name="j" unicode="j" horiz-adv-x="171" 
d="M167 193c16 26 55 2 40 -25c-37 -64 -87 -121 -149 -162c-37 -23 -77 -41 -115 -60c-24 -61 -48 -121 -73 -181c-19 -46 -40 -98 -80 -128c-48 -36 -120 -17 -132 43s23 119 61 163c43 52 107 92 166 125c7 4 14 7 21 11c21 48 43 97 63 146c44 107 88 213 138 319
c5 12 22 13 32 8c11 -7 13 -21 8 -32c-58 -123 -109 -248 -161 -374c-4 -12 -11 -24 -16 -35c21 10 41 21 61 34c58 37 103 88 136 148zM-153 -165c10 25 20 50 29 74c-46 -28 -91 -59 -127 -101c-14 -17 -26 -37 -36 -59c-9 -21 -17 -52 -1 -72c11 -14 28 -11 41 -5
c16 11 30 28 40 45c23 38 38 78 54 118zM210 565c3 -16 -2 -34 -16 -44c-16 -11 -39 -2 -45 16c-5 14 1 30 13 42c6 7 15 8 23 8c12 -1 23 -11 25 -22z" />
    <glyph glyph-name="k" unicode="k" horiz-adv-x="405" 
d="M401 182c15 26 55 3 40 -23c-25 -45 -55 -89 -94 -123c-52 -46 -145 -84 -197 -17c-20 25 -28 57 -34 88c-3 15 -5 31 -7 46c-1 4 -2 10 -3 15c-7 2 -13 5 -19 10c-10 7 -16 20 -9 31c13 22 38 16 53 2h1c11 -1 23 3 34 7c25 10 49 27 69 45c29 27 62 69 59 111
c-1 29 -25 42 -49 38c-37 -5 -71 -31 -97 -56c-32 -30 -58 -66 -76 -106c-1 -2 -3 -4 -4 -6l-105 -243c-5 -11 -22 -14 -32 -8c-12 7 -13 20 -8 32c11 25 21 51 32 76c89 206 178 412 272 616c12 27 52 3 40 -24c-25 -53 -49 -106 -72 -160c-19 -41 -37 -82 -55 -123
c3 2 6 5 9 7c35 26 82 51 127 39c49 -11 70 -60 63 -106c-10 -59 -54 -109 -100 -143c-23 -16 -54 -35 -86 -41c0 -1 1 -1 1 -2c7 -45 9 -133 71 -135c38 -1 71 21 97 46c32 31 57 68 79 107z" />
    <glyph glyph-name="l" unicode="l" horiz-adv-x="208" 
d="M200 668c13 27 53 4 40 -23c-30 -65 -140 -314 -166 -374c-23 -55 -54 -116 -56 -177c-1 -18 1 -39 18 -51c18 -13 38 -7 55 4c51 33 84 94 113 145c15 26 55 3 40 -23c-21 -37 -44 -74 -71 -107c-22 -27 -49 -54 -82 -67c-58 -22 -112 20 -119 79c-4 32 4 65 14 96
c11 36 26 71 41 106c55 132 113 263 173 392z" />
    <glyph glyph-name="m" unicode="m" horiz-adv-x="620" 
d="M617 190c14 26 54 3 40 -23c-22 -39 -47 -75 -77 -108c-25 -27 -55 -53 -90 -65c-29 -9 -61 -4 -83 18s-24 54 -18 83c8 43 31 82 49 121c16 33 30 70 34 107c3 24 1 57 -27 62c-22 3 -47 -13 -64 -27c-49 -41 -87 -98 -113 -155c-1 -4 -3 -7 -4 -11
c-26 -64 -52 -127 -79 -191c-5 -11 -22 -14 -31 -8c-12 7 -14 20 -9 32c27 62 52 124 77 187c16 40 37 82 36 127c-1 33 -23 53 -54 43c-36 -11 -66 -45 -89 -74c-21 -26 -40 -55 -56 -86c-32 -73 -64 -147 -96 -221c-5 -11 -22 -14 -31 -8c-12 7 -14 20 -9 32l24 54
c20 46 40 93 60 140c3 6 8 18 11 23c29 68 59 136 90 204c13 27 53 3 40 -24c-4 -8 -7 -17 -11 -26c24 20 51 35 82 35c50 1 81 -38 85 -84c17 19 36 38 56 53c23 17 50 32 79 31c30 0 59 -16 71 -44c16 -34 10 -74 1 -109c-11 -40 -29 -79 -48 -117
c-15 -29 -36 -67 -30 -101c3 -21 24 -27 43 -21c30 8 54 34 75 57c25 28 47 60 66 94z" />
    <glyph glyph-name="n" unicode="n" horiz-adv-x="412" 
d="M409 190c14 26 54 3 40 -23c-21 -39 -47 -75 -76 -108c-25 -27 -55 -53 -91 -65c-28 -9 -61 -4 -83 18s-23 54 -18 83c8 43 32 82 50 121c15 34 30 71 34 109c3 24 0 55 -27 60c-23 3 -47 -13 -65 -27c-48 -40 -86 -97 -112 -154c-30 -67 -59 -135 -88 -203
c-5 -11 -22 -14 -32 -8c-11 7 -13 20 -8 32c8 18 15 36 23 54c53 122 106 245 162 367c12 27 52 3 40 -24c-4 -9 -9 -18 -13 -28c3 2 5 4 8 6c22 17 50 32 79 31c29 0 58 -16 70 -43c16 -34 10 -74 1 -109c-11 -41 -29 -80 -48 -118c-14 -29 -35 -67 -30 -101
c3 -21 24 -27 43 -21c30 8 55 34 75 57c26 28 47 60 66 94z" />
    <glyph glyph-name="o" unicode="o" horiz-adv-x="422" 
d="M418 192c15 26 55 2 40 -24c-39 -70 -134 -226 -231 -150c-10 7 -8 25 0 32c10 10 23 8 33 0c27 -21 60 10 79 30c32 32 57 72 79 112zM313 292c-10 -53 -30 -105 -54 -153c-36 -71 -104 -172 -197 -153c-1 0 -6 1 -7 1c-97 30 -80 148 -54 224c28 82 72 176 146 227
c52 35 130 32 159 -31c17 -36 14 -77 7 -115zM159 72c33 36 57 81 76 125c16 40 32 82 36 124c4 46 -7 78 -33 91c-23 10 -60 -6 -87 -30c-27 -25 -47 -57 -64 -90c-19 -36 -36 -74 -48 -114c-14 -47 -31 -130 32 -147c35 -8 66 18 88 41z" />
    <glyph glyph-name="p" unicode="p" horiz-adv-x="415" 
d="M411 192c15 26 55 2 40 -24c-39 -70 -134 -226 -231 -150c-10 7 -8 25 0 33c9 9 23 7 33 0c27 -21 60 10 79 29c32 32 57 72 79 112zM285 201c-17 -44 -39 -86 -68 -124c-42 -53 -111 -106 -180 -75c-26 11 -42 30 -51 51c-24 -58 -137 -345 -173 -428
c-5 -12 -22 -14 -32 -9c-12 7 -13 21 -8 32c0 1 217 541 218 542c36 92 73 184 114 275c5 11 22 14 31 8c12 -7 14 -20 9 -32c-1 -3 -3 -6 -4 -9c23 16 49 28 76 26c68 -4 98 -69 97 -130c-2 -43 -14 -86 -29 -127zM139 64c26 20 47 47 65 74c21 35 37 72 48 111
c10 31 17 63 15 96c-1 20 -7 41 -22 54c-13 12 -30 15 -46 11c-59 -17 -101 -83 -124 -136c-1 0 -1 0 -1 -1c-11 -26 -32 -79 -42 -104c-9 -30 -18 -66 -4 -96c8 -20 25 -31 44 -34c25 -3 48 11 67 25z" />
    <glyph glyph-name="q" unicode="q" horiz-adv-x="440" 
d="M437 196c14 26 53 3 40 -24c-44 -91 -141 -152 -241 -150c38 -65 35 -147 18 -222c-11 -44 -24 -90 -47 -129c-20 -32 -49 -63 -89 -64c-24 -2 -50 9 -63 30c-11 17 -12 38 -11 58c5 48 22 96 39 141c24 61 50 122 76 182c-18 -11 -37 -18 -58 -21c-29 -4 -60 3 -82 23
c-22 21 -31 52 -33 82c-3 38 6 78 19 114c16 47 39 92 68 133c43 59 123 138 204 98c24 -11 38 -30 45 -51c8 18 16 36 24 53c5 12 22 15 31 9c12 -7 14 -20 9 -32c-47 -106 -93 -213 -139 -320c-5 -12 -11 -25 -16 -38c86 -5 168 49 206 128zM61 47c18 -8 37 -6 55 1
c56 24 93 88 116 142c1 3 3 6 5 9c9 20 18 41 27 62c0 2 1 3 2 5c18 42 38 144 -33 145c-31 0 -59 -20 -81 -40c-27 -27 -49 -59 -68 -92c-30 -54 -63 -126 -50 -189c3 -19 11 -35 27 -43zM214 -166c11 55 10 112 -16 159c-21 -50 -42 -100 -63 -151
c-16 -40 -31 -81 -40 -123c-3 -16 -9 -38 -3 -54c6 -14 26 -14 38 -8c24 10 41 41 51 66c16 35 25 74 33 111z" />
    <glyph glyph-name="r" unicode="r" horiz-adv-x="383" 
d="M380 197c14 26 54 2 40 -24c-38 -68 -90 -146 -165 -176c-49 -20 -113 -5 -132 50c-17 52 14 111 38 156c13 23 27 46 39 69c16 30 34 67 19 101c-11 24 -40 31 -60 46c-1 1 -2 2 -4 3c-32 -95 -77 -185 -126 -272c-15 -26 -55 -3 -40 23c56 99 106 204 138 313
c1 3 1 5 2 8c11 27 53 17 45 -13c0 0 0 -1 -1 -2c-4 -19 27 -32 42 -40c29 -16 49 -41 54 -75c9 -61 -29 -117 -58 -168c-20 -36 -51 -83 -46 -125c2 -19 16 -31 34 -36c18 -4 37 3 54 12c56 33 96 94 127 150z" />
    <glyph glyph-name="s" unicode="s" horiz-adv-x="347" 
d="M276 144c2 -48 -17 -100 -53 -132c-38 -32 -92 -42 -139 -23c-41 16 -65 53 -68 97c-2 30 45 29 47 0c2 -43 40 -62 80 -60c39 2 69 35 80 71c16 49 -2 90 -28 132c-22 36 -52 74 -59 118c-13 -19 -25 -39 -37 -59c-36 -60 -65 -124 -105 -182c-16 -25 -56 -1 -40 23
c42 62 73 130 111 193c20 33 42 66 68 95c20 22 45 44 74 52c30 8 39 -33 13 -45c-19 -7 -36 -35 -38 -54c-4 -26 12 -51 25 -72c29 -49 65 -95 69 -154z" />
    <glyph glyph-name="t" unicode="t" horiz-adv-x="219" 
d="M74 247c-12 -28 -24 -57 -33 -86c-9 -26 -16 -54 -14 -82c1 -18 9 -35 27 -42s36 2 50 12c48 34 80 92 108 141c15 26 55 3 40 -23c-20 -36 -42 -70 -67 -102c-21 -27 -46 -53 -77 -67c-52 -24 -114 3 -125 61c-13 65 19 136 44 194c27 65 54 129 83 194h-47
c-30 0 -30 46 0 46h67c22 48 44 97 66 145c5 11 22 14 31 8c12 -6 14 -20 9 -31c-19 -41 -37 -81 -55 -122h66c29 0 29 -46 0 -46h-87l-12 -27c-25 -58 -50 -115 -74 -173z" />
    <glyph glyph-name="u" unicode="u" 
d="M416 190c14 26 54 2 40 -24c-26 -48 -55 -97 -96 -134c-34 -30 -78 -50 -122 -29c-25 13 -37 35 -41 59c-12 -15 -26 -28 -41 -40c-43 -33 -108 -41 -148 4c-37 40 -31 101 -15 148c14 44 36 87 55 129c21 48 43 96 65 144c5 11 22 14 31 8c12 -7 14 -20 9 -32
c-22 -48 -44 -95 -65 -143c-16 -36 -34 -73 -46 -107c-12 -32 -26 -81 -4 -112c29 -39 79 -15 106 12c34 34 59 78 79 122c12 31 26 60 39 90c23 54 47 108 71 162c5 11 22 14 32 8c12 -7 14 -20 8 -32c-23 -52 -47 -105 -69 -157c-6 -14 -29 -68 -34 -80
c-8 -20 -15 -39 -21 -59c-7 -27 -19 -73 16 -85c32 -10 64 23 83 44c27 31 48 67 68 104z" />
    <glyph glyph-name="v" unicode="v" horiz-adv-x="410" 
d="M406 192c15 26 55 2 40 -24c-39 -70 -134 -226 -231 -150c-10 7 -9 25 0 33c9 9 22 7 32 0c28 -21 61 10 80 29c32 32 57 72 79 112zM319 447c22 -31 16 -73 8 -107c-9 -41 -26 -81 -43 -120c-29 -71 -66 -150 -128 -198c-44 -33 -109 -41 -149 4c-36 40 -30 101 -14 148
c14 44 36 87 54 129c22 48 44 96 65 144c6 11 22 14 32 8c12 -7 14 -20 8 -32c-21 -48 -43 -95 -64 -143c-16 -36 -34 -73 -47 -107c-12 -32 -26 -81 -3 -112c29 -39 79 -15 106 12c44 44 73 105 96 162c1 1 31 73 40 108c7 25 15 57 -1 80c-18 25 23 48 40 24z" />
    <glyph glyph-name="w" unicode="w" horiz-adv-x="641" 
d="M632 192c15 26 55 2 41 -24c-40 -70 -135 -226 -232 -150c-10 7 -8 25 0 33c10 9 23 7 33 0c27 -21 60 10 79 29c32 32 57 72 79 112zM554 340c-10 -41 -27 -81 -43 -120c-30 -70 -65 -148 -126 -196c-44 -34 -110 -44 -151 2c-14 15 -21 32 -25 51
c-15 -21 -33 -39 -53 -55c-43 -33 -108 -41 -148 4c-37 40 -31 101 -15 148c14 44 36 87 55 129c21 48 43 96 65 144c5 11 22 14 31 8c12 -7 14 -20 9 -32c-22 -48 -44 -95 -65 -143c-16 -36 -34 -73 -47 -107c-12 -32 -25 -81 -3 -112c29 -39 79 -15 106 12
c44 44 73 105 97 162c0 1 61 143 92 212c3 5 9 9 15 10c12 2 23 -5 26 -13c3 -6 3 -14 -1 -21c-21 -47 -41 -94 -61 -142c-15 -36 -31 -73 -45 -110c-12 -32 -26 -83 0 -112c30 -36 77 -12 103 14c44 44 73 105 97 162c0 1 30 73 40 108c6 25 14 57 -2 80
c-17 25 23 48 40 24c22 -31 17 -73 9 -107z" />
    <glyph glyph-name="x" unicode="x" horiz-adv-x="492" 
d="M488 192c15 26 55 2 40 -24c-37 -65 -82 -146 -157 -173c-31 -12 -71 -10 -98 9c-23 16 -37 40 -43 66c-3 12 -5 24 -6 36c-15 -28 -34 -53 -57 -74c-26 -24 -61 -43 -97 -37c-43 6 -72 47 -69 90c2 30 48 30 46 0c-1 -16 4 -32 18 -40c13 -8 28 -5 41 1
c30 12 51 40 67 66c31 50 54 107 71 163c7 22 14 46 16 68c3 21 2 42 -6 56c-7 14 -28 17 -43 14c-24 -3 -44 -27 -60 -45c-53 -62 -89 -138 -128 -210c-14 -26 -54 -3 -40 24c27 49 53 99 84 147c25 40 52 81 90 109c49 36 127 29 146 -36c4 -10 5 -22 6 -33
c19 29 41 55 69 73c18 12 41 20 63 18c33 -4 64 -29 69 -62c6 -30 -38 -42 -44 -13c-5 19 -23 32 -42 27s-34 -18 -47 -32c-42 -45 -70 -106 -88 -163c-15 -45 -29 -102 -10 -148c18 -46 71 -40 105 -15c46 34 77 89 104 138z" />
    <glyph glyph-name="y" unicode="y" horiz-adv-x="403" 
d="M400 196c14 26 54 3 40 -23c-37 -66 -85 -123 -148 -165c-36 -23 -75 -42 -113 -62c-23 -61 -46 -122 -70 -182c-18 -46 -40 -98 -80 -129c-46 -37 -113 -19 -126 42c-13 59 19 119 56 164c43 53 103 92 161 126c7 4 14 8 22 12c5 14 11 28 16 42
c-43 -33 -108 -41 -148 4c-36 40 -30 99 -15 147c14 44 35 86 53 128c21 49 42 97 64 146c5 11 22 14 32 8c11 -7 13 -20 8 -32c-21 -47 -42 -95 -63 -143c-16 -36 -32 -72 -46 -109c-12 -32 -25 -83 0 -112c30 -36 77 -12 103 14c45 44 73 105 97 162c1 1 1 3 2 4
c28 70 57 140 88 209c5 11 22 14 32 8c12 -7 14 -20 8 -32c-55 -124 -104 -250 -154 -376c-5 -12 -10 -24 -14 -35c20 10 41 22 60 34c58 38 101 90 135 150zM86 -164c10 24 19 49 28 73c-46 -28 -91 -61 -124 -104c-14 -18 -27 -38 -35 -60c-9 -21 -15 -54 0 -74
c6 -8 14 -11 23 -10c20 2 38 22 57 54c22 38 36 80 51 121z" />
    <glyph glyph-name="z" unicode="z" horiz-adv-x="385" 
d="M382 195c14 26 54 3 40 -24c-27 -48 -59 -94 -100 -132c-33 -31 -101 -77 -116 -84c-6 -36 -15 -69 -23 -94c-17 -56 -39 -116 -73 -165c-25 -38 -63 -75 -112 -78c-39 -2 -75 26 -84 64c-10 40 6 84 27 119c52 84 139 134 222 183c2 18 3 37 2 56c-2 31 -15 69 -51 72
c-23 2 -31 30 -11 43c50 36 92 82 122 139c16 32 36 86 16 109c-8 9 -27 9 -38 6c-14 -4 -27 -14 -39 -25c-62 -62 -91 -151 -135 -224c-15 -26 -55 -3 -40 23c29 49 52 102 81 151c25 41 55 87 98 110s103 15 121 -35c18 -49 -6 -108 -30 -150c-25 -44 -58 -83 -96 -115
c39 -25 50 -76 49 -131c25 16 49 33 71 53c41 37 73 81 99 129zM142 -116c4 13 7 26 10 39c-55 -32 -109 -67 -150 -117c-22 -27 -44 -62 -45 -98c0 -23 14 -46 41 -43c37 3 66 42 83 71c26 46 46 98 61 148z" />
    <glyph glyph-name="space" unicode=" " horiz-adv-x="243" 
 />
    <glyph glyph-name="afii10065" unicode="&#x430;" horiz-adv-x="425" 
d="M422 191c14 26 54 2 40 -24c-27 -49 -58 -99 -100 -136c-32 -28 -78 -51 -118 -26c-21 13 -30 32 -32 54c-25 -28 -55 -49 -90 -58c-60 -15 -114 19 -127 79c-16 80 17 167 56 235c36 66 99 138 179 145c33 2 68 -10 90 -35c5 -6 9 -11 12 -18l18 39c13 27 53 4 40 -23
c-26 -56 -50 -112 -74 -169c-19 -44 -39 -88 -51 -134c-6 -21 -19 -68 7 -77c29 -11 61 23 78 41c28 32 51 69 72 107zM130 53c52 27 87 86 109 139c1 1 25 57 36 83c6 16 13 31 20 47c-1 3 -1 6 0 10c8 28 4 57 -24 73c-23 13 -51 9 -74 -2c-61 -31 -100 -93 -127 -154
c-23 -49 -47 -120 -25 -174c14 -35 53 -38 85 -22z" />
    <glyph glyph-name="afii10083" unicode="&#x441;" horiz-adv-x="338" 
d="M289 308c-15 -26 -55 -2 -40 23c12 21 27 69 -4 81c-25 11 -56 -3 -76 -18c-47 -35 -79 -94 -100 -147c-19 -52 -37 -123 -3 -173c28 -42 87 -44 130 -24c62 28 106 89 138 147c15 27 55 3 40 -23c-42 -76 -107 -161 -198 -179c-71 -14 -142 18 -166 88
c-24 73 3 158 36 225c31 62 82 137 155 151c36 7 76 0 96 -34c22 -36 12 -82 -8 -117z" />
    <glyph glyph-name="afii10070" unicode="&#x435;" horiz-adv-x="337" 
d="M334 194c14 27 54 3 40 -23c-49 -93 -143 -194 -259 -177c-42 6 -80 31 -98 70c-20 42 -19 91 -11 136c9 46 28 91 52 132c23 41 52 80 90 107c35 24 82 33 121 13c46 -24 49 -80 32 -123c-38 -94 -149 -145 -244 -114c-6 -22 -9 -43 -10 -65c-1 -30 4 -65 27 -87
c21 -22 55 -28 84 -24c81 13 140 88 176 155zM131 359c-23 -29 -44 -63 -59 -100c43 -13 88 -7 127 18c32 20 62 55 66 95c3 32 -22 49 -53 44c-33 -4 -60 -32 -81 -57z" />
    <glyph glyph-name="afii10069" unicode="&#x434;" horiz-adv-x="413" 
d="M410 196c14 26 54 3 40 -24c-37 -65 -85 -122 -148 -164c-36 -24 -74 -42 -113 -62c-23 -61 -46 -122 -70 -182c-18 -46 -40 -98 -80 -129c-46 -37 -112 -19 -126 41c-13 60 19 119 56 164c43 53 103 93 161 127c7 4 15 8 22 12c6 14 12 29 17 44
c-15 -10 -31 -18 -49 -22c-60 -15 -114 19 -127 79c-16 80 17 167 56 235c36 66 99 138 179 145c33 2 68 -10 90 -35c4 -4 7 -9 10 -14c5 12 10 24 15 35c5 12 22 14 32 9c12 -7 14 -21 8 -32c-35 -79 -105 -253 -107 -257c-16 -40 -32 -80 -47 -119c-5 -12 -10 -24 -14 -36
c20 11 41 22 60 35c58 38 101 90 135 150zM127 53c50 26 83 78 105 128c20 50 59 142 61 151c7 28 4 57 -24 73c-23 13 -51 9 -74 -2c-61 -31 -101 -93 -128 -154c-22 -49 -46 -120 -24 -174c14 -35 53 -38 84 -22zM96 -165c10 25 19 50 29 74c-47 -29 -92 -61 -125 -104
c-14 -18 -27 -38 -35 -60c-8 -21 -15 -54 0 -74c12 -15 31 -10 41 -3c17 11 29 30 39 47c22 38 36 80 51 120z" />
    <glyph glyph-name="afii10084" unicode="&#x442;" horiz-adv-x="630" 
d="M627 190c14 26 54 3 40 -23c-22 -39 -47 -75 -77 -108c-25 -27 -55 -53 -90 -65c-29 -9 -61 -4 -83 18s-24 54 -18 83c8 43 31 82 49 121c16 33 30 70 34 107c3 24 1 57 -27 62c-22 3 -47 -13 -64 -27c-49 -41 -87 -98 -113 -155c-1 -4 -3 -7 -4 -11
c-26 -64 -52 -127 -79 -191c-5 -11 -22 -14 -31 -8c-12 7 -14 20 -9 32c27 62 52 124 77 187c16 40 37 82 36 127c-1 33 -23 53 -54 43c-36 -11 -66 -45 -89 -74c-21 -26 -40 -55 -56 -86c-32 -73 -64 -147 -96 -221c-5 -11 -22 -14 -31 -8c-12 7 -14 20 -9 32l24 54
c20 46 40 93 60 140c3 6 8 18 11 23c29 68 59 136 90 204c13 27 53 3 40 -24c-4 -8 -7 -17 -11 -26c24 20 51 35 82 35c50 1 81 -38 85 -84c17 19 36 38 56 53c23 17 50 32 79 31c30 0 59 -16 71 -44c16 -34 10 -74 1 -109c-11 -40 -29 -79 -48 -117
c-15 -29 -36 -67 -30 -101c3 -21 24 -27 43 -21c30 8 54 34 75 57c25 28 47 60 66 94z" />
    <glyph glyph-name="afii10081" unicode="&#x43f;" horiz-adv-x="412" 
d="M409 190c14 26 54 3 40 -23c-21 -39 -47 -75 -76 -108c-25 -27 -55 -53 -91 -65c-28 -9 -61 -4 -83 18s-23 54 -18 83c8 43 32 82 50 121c15 34 30 71 34 109c3 24 0 55 -27 60c-23 3 -47 -13 -65 -27c-48 -40 -86 -97 -112 -154c-30 -67 -59 -135 -88 -203
c-5 -11 -22 -14 -32 -8c-11 7 -13 20 -8 32c8 18 15 36 23 54c53 122 106 245 162 367c12 27 52 3 40 -24c-4 -9 -9 -18 -13 -28c3 2 5 4 8 6c22 17 50 32 79 31c29 0 58 -16 70 -43c16 -34 10 -74 1 -109c-11 -41 -29 -80 -48 -118c-14 -29 -35 -67 -30 -101
c3 -21 24 -27 43 -21c30 8 55 34 75 57c26 28 47 60 66 94z" />
    <glyph glyph-name="afii10080" unicode="&#x43e;" horiz-adv-x="432" 
d="M428 192c15 26 55 2 40 -24c-39 -70 -134 -226 -231 -150c-10 7 -8 25 0 32c10 10 23 8 33 0c27 -21 60 10 79 30c32 32 57 72 79 112zM323 292c-10 -53 -30 -105 -54 -153c-36 -71 -104 -172 -197 -153c-1 0 -6 1 -7 1c-97 30 -80 148 -54 224c28 82 72 176 146 227
c52 35 130 32 159 -31c17 -36 14 -77 7 -115zM169 72c33 36 57 81 76 125c16 40 32 82 36 124c4 46 -7 78 -33 91c-23 10 -60 -6 -87 -30c-27 -25 -47 -57 -64 -90c-19 -36 -36 -74 -48 -114c-14 -47 -31 -130 32 -147c35 -8 66 18 88 41z" />
    <glyph glyph-name="afii10082" unicode="&#x440;" horiz-adv-x="425" 
d="M421 192c15 26 55 2 40 -24c-39 -70 -134 -226 -231 -150c-10 7 -8 25 0 33c9 9 23 7 33 0c27 -21 60 10 79 29c32 32 57 72 79 112zM295 201c-17 -44 -39 -86 -68 -124c-42 -53 -111 -106 -180 -75c-26 11 -42 30 -51 51c-24 -58 -137 -345 -173 -428
c-5 -12 -22 -14 -32 -9c-12 7 -13 21 -8 32c0 1 217 541 218 542c36 92 73 184 114 275c5 11 22 14 31 8c12 -7 14 -20 9 -32c-1 -3 -3 -6 -4 -9c23 16 49 28 76 26c68 -4 98 -69 97 -130c-2 -43 -14 -86 -29 -127zM149 64c26 20 47 47 65 74c21 35 37 72 48 111
c10 31 17 63 15 96c-1 20 -7 41 -22 54c-13 12 -30 15 -46 11c-59 -17 -101 -83 -124 -136c-1 0 -1 0 -1 -1c-11 -26 -32 -79 -42 -104c-9 -30 -18 -66 -4 -96c8 -20 25 -31 44 -34c25 -3 48 11 67 25z" />
    <glyph glyph-name="afii10074" unicode="&#x438;" 
d="M416 190c14 26 54 2 40 -24c-26 -48 -55 -97 -96 -134c-34 -30 -78 -50 -122 -29c-25 13 -37 35 -41 59c-12 -15 -26 -28 -41 -40c-43 -33 -108 -41 -148 4c-37 40 -31 101 -15 148c14 44 36 87 55 129c21 48 43 96 65 144c5 11 22 14 31 8c12 -7 14 -20 9 -32
c-22 -48 -44 -95 -65 -143c-16 -36 -34 -73 -46 -107c-12 -32 -26 -81 -4 -112c29 -39 79 -15 106 12c34 34 59 78 79 122c12 31 26 60 39 90c23 54 47 108 71 162c5 11 22 14 32 8c12 -7 14 -20 8 -32c-23 -52 -47 -105 -69 -157c-6 -14 -29 -68 -34 -80
c-8 -20 -15 -39 -21 -59c-7 -27 -19 -73 16 -85c32 -10 64 23 83 44c27 31 48 67 68 104z" />
    <glyph glyph-name="afii10075" unicode="&#x439;" 
d="M182 572c-13 27 27 50 40 23c10 -19 30 -32 54 -35c33 -5 60 9 78 35c17 25 57 2 40 -23c-27 -40 -68 -64 -118 -59c-38 4 -76 24 -94 59zM416 190c14 26 54 2 40 -24c-26 -48 -55 -97 -96 -134c-34 -30 -78 -50 -122 -29c-25 13 -37 35 -41 59c-12 -15 -26 -28 -41 -40
c-43 -33 -108 -41 -148 4c-37 40 -31 101 -15 148c14 44 36 87 55 129c21 48 43 96 65 144c5 11 22 14 31 8c12 -7 14 -20 9 -32c-22 -48 -44 -95 -65 -143c-16 -36 -34 -73 -46 -107c-12 -32 -26 -81 -4 -112c29 -39 79 -15 106 12c34 34 59 78 79 122c12 31 26 60 39 90
c23 54 47 108 71 162c5 11 22 14 32 8c12 -7 14 -20 8 -32c-23 -52 -47 -105 -69 -157c-6 -14 -29 -68 -34 -80c-8 -20 -15 -39 -21 -59c-7 -27 -19 -73 16 -85c32 -10 64 23 83 44c27 31 48 67 68 104z" />
    <glyph glyph-name="afii10087" unicode="&#x445;" horiz-adv-x="492" 
d="M488 192c15 26 55 2 40 -24c-37 -65 -82 -146 -157 -173c-31 -12 -71 -10 -98 9c-23 16 -37 40 -43 66c-3 12 -5 24 -6 36c-15 -28 -34 -53 -57 -74c-26 -24 -61 -43 -97 -37c-43 6 -72 47 -69 90c2 30 48 30 46 0c-1 -16 4 -32 18 -40c13 -8 28 -5 41 1
c30 12 51 40 67 66c31 50 54 107 71 163c7 22 14 46 16 68c3 21 2 42 -6 56c-7 14 -28 17 -43 14c-24 -3 -44 -27 -60 -45c-53 -62 -89 -138 -128 -210c-14 -26 -54 -3 -40 24c27 49 53 99 84 147c25 40 52 81 90 109c49 36 127 29 146 -36c4 -10 5 -22 6 -33
c19 29 41 55 69 73c18 12 41 20 63 18c33 -4 64 -29 69 -62c6 -30 -38 -42 -44 -13c-5 19 -23 32 -42 27s-34 -18 -47 -32c-42 -45 -70 -106 -88 -163c-15 -45 -29 -102 -10 -148c18 -46 71 -40 105 -15c46 34 77 89 104 138z" />
    <glyph glyph-name="afii10085" unicode="&#x443;" horiz-adv-x="403" 
d="M400 196c14 26 54 3 40 -23c-37 -66 -85 -123 -148 -165c-36 -23 -75 -42 -113 -62c-23 -61 -46 -122 -70 -182c-18 -46 -40 -98 -80 -129c-46 -37 -113 -19 -126 42c-13 59 19 119 56 164c43 53 103 92 161 126c7 4 14 8 22 12c5 14 11 28 16 42
c-43 -33 -108 -41 -148 4c-36 40 -30 99 -15 147c14 44 35 86 53 128c21 49 42 97 64 146c5 11 22 14 32 8c11 -7 13 -20 8 -32c-21 -47 -42 -95 -63 -143c-16 -36 -32 -72 -46 -109c-12 -32 -25 -83 0 -112c30 -36 77 -12 103 14c45 44 73 105 97 162c1 1 1 3 2 4
c28 70 57 140 88 209c5 11 22 14 32 8c12 -7 14 -20 8 -32c-55 -124 -104 -250 -154 -376c-5 -12 -10 -24 -14 -35c20 10 41 22 60 34c58 38 101 90 135 150zM86 -164c10 24 19 49 28 73c-46 -28 -91 -61 -124 -104c-14 -18 -27 -38 -35 -60c-9 -21 -15 -54 0 -74
c6 -8 14 -11 23 -10c20 2 38 22 57 54c22 38 36 80 51 121z" />
    <glyph glyph-name="afii10073" unicode="&#x437;" horiz-adv-x="385" 
d="M382 195c14 26 54 3 40 -24c-27 -48 -59 -94 -100 -132c-33 -31 -101 -77 -116 -84c-6 -36 -15 -69 -23 -94c-17 -56 -39 -116 -73 -165c-25 -38 -63 -75 -112 -78c-39 -2 -75 26 -84 64c-10 40 6 84 27 119c52 84 139 134 222 183c2 18 3 37 2 56c-2 31 -15 69 -51 72
c-23 2 -31 30 -11 43c50 36 92 82 122 139c16 32 36 86 16 109c-8 9 -27 9 -38 6c-14 -4 -27 -14 -39 -25c-62 -62 -91 -151 -135 -224c-15 -26 -55 -3 -40 23c29 49 52 102 81 151c25 41 55 87 98 110s103 15 121 -35c18 -49 -6 -108 -30 -150c-25 -44 -58 -83 -96 -115
c39 -25 50 -76 49 -131c25 16 49 33 71 53c41 37 73 81 99 129zM142 -116c4 13 7 26 10 39c-55 -32 -109 -67 -150 -117c-22 -27 -44 -62 -45 -98c0 -23 14 -46 41 -43c37 3 66 42 83 71c26 46 46 98 61 148z" />
    <glyph glyph-name="afii10066" unicode="&#x431;" horiz-adv-x="430" 
d="M421 192c15 26 55 2 41 -24c-40 -70 -135 -226 -232 -150c-10 7 -8 24 0 32c10 10 23 8 33 0c27 -21 60 10 79 30c32 32 57 72 79 112zM537 807c14 27 54 3 40 -23c-17 -33 -45 -55 -82 -59c-29 -4 -57 7 -86 14c-53 15 -125 30 -168 -16c-21 -22 -33 -56 -27 -87
c4 -21 13 -40 24 -58c24 -42 55 -79 73 -124c28 -67 18 -133 4 -188c-9 -34 -29 -90 -50 -130c-36 -69 -106 -167 -196 -150c-1 0 -6 1 -7 1c-92 28 -77 151 -54 223c16 49 38 97 65 140c21 34 47 66 81 88c32 22 72 29 106 17l-6 12c-23 40 -54 76 -72 118
c-12 28 -19 57 -14 88c5 34 22 68 48 90c52 47 127 41 191 25c22 -5 44 -15 67 -17c30 -3 49 10 63 36zM240 193c12 27 23 55 30 85c0 1 6 20 8 39c4 46 -7 84 -31 95c-32 13 -62 -5 -89 -30c-27 -24 -47 -56 -64 -88c-19 -37 -36 -76 -47 -116c-11 -43 -28 -131 31 -147
c32 -7 64 19 85 40c34 35 58 78 77 122z" />
    <glyph glyph-name="afii10067" unicode="&#x432;" horiz-adv-x="417" 
d="M413 190c15 26 55 2 40 -24c-39 -70 -134 -226 -231 -150c-10 7 -8 24 0 32c10 10 23 8 33 0c27 -21 60 10 79 30c32 32 57 72 79 112zM304 340c17 -71 -8 -147 -40 -210c-29 -57 -75 -118 -137 -140c-55 -20 -112 7 -129 63c-19 60 2 131 22 189c24 58 48 115 72 173
c-26 2 -24 44 4 46c6 1 11 1 17 2c12 28 24 56 36 83c19 44 39 88 59 132c16 33 33 72 68 90c27 14 62 11 83 -10c18 -17 23 -43 22 -67c-3 -61 -37 -120 -76 -166c-40 -48 -98 -86 -159 -102c-28 -64 -54 -129 -81 -194c-18 -49 -40 -115 -21 -167c14 -37 53 -38 84 -21
c47 27 80 78 103 127c23 48 42 110 27 164c-4 15 -13 31 -24 38c-12 8 -25 9 -40 5c-29 -7 -41 37 -12 45c59 14 108 -23 122 -80zM213 578c-14 -33 -29 -65 -43 -98c44 20 84 52 111 89c28 37 56 86 54 133c-1 17 -8 24 -14 27c-26 10 -45 -20 -56 -40
c-20 -36 -35 -74 -52 -111z" />
    <glyph glyph-name="afii10068" unicode="&#x433;" horiz-adv-x="378" 
d="M24 148c-15 -26 -55 -3 -41 23c31 54 56 110 84 165c20 38 43 79 79 105c29 22 68 26 100 7c30 -17 38 -51 34 -84c-10 -79 -63 -143 -98 -212c-13 -25 -29 -58 -24 -87c3 -23 29 -35 51 -33c31 3 60 27 82 48c34 33 60 73 83 114c15 27 55 3 40 -23
c-26 -47 -57 -93 -97 -130c-29 -27 -64 -51 -105 -55c-32 -4 -67 10 -86 38c-20 27 -17 62 -9 92c20 70 68 128 99 192c11 24 31 73 12 96c-19 24 -49 7 -66 -10c-28 -27 -46 -64 -63 -99c-24 -50 -48 -99 -75 -147z" />
    <glyph glyph-name="afii10072" unicode="&#x436;" horiz-adv-x="761" 
d="M757 192c15 26 55 2 41 -24c-37 -65 -83 -146 -157 -174c-31 -11 -71 -9 -99 10c-22 15 -36 40 -43 65c-13 51 -4 105 12 155c-80 -59 -143 -146 -186 -233c-7 -13 -20 -14 -30 -9c-10 4 -18 14 -13 27c41 108 84 216 128 323c-72 -53 -144 -145 -174 -205
c-25 -51 -50 -79 -68 -96c-26 -23 -62 -42 -98 -37c-43 7 -72 48 -69 90c2 30 49 30 47 0c-1 -15 3 -31 17 -40c13 -7 29 -4 42 1c28 12 48 38 64 63c32 50 55 107 73 164c7 23 13 48 17 71c6 37 -7 75 -50 70c-20 -2 -44 -26 -59 -43c-54 -62 -91 -140 -129 -212
c-13 -27 -54 -3 -40 23c27 51 53 103 85 151c25 39 53 79 90 107c50 36 129 26 146 -39c9 -33 5 -70 -4 -105c40 44 86 82 138 109l2 1c5 13 11 27 16 40c5 12 15 20 29 16c11 -3 21 -17 16 -28c-33 -82 -67 -164 -100 -246c41 44 87 83 139 111c25 54 58 111 107 144
c18 12 41 20 63 17c33 -3 64 -28 70 -61c5 -30 -39 -42 -45 -13c-3 14 -19 32 -42 27c-19 -4 -33 -18 -47 -33c-41 -44 -70 -105 -88 -163c-15 -44 -29 -102 -10 -148c19 -45 72 -39 105 -14c46 34 77 89 104 138z" />
    <glyph glyph-name="afii10076" unicode="&#x43a;" horiz-adv-x="414" 
d="M400 182c15 26 55 3 40 -23c-25 -45 -55 -88 -93 -122c-49 -45 -140 -86 -195 -25c-21 24 -31 57 -37 88c-3 14 -8 52 -11 68c-7 2 -14 5 -20 10c-11 7 -14 20 -8 31c11 24 37 15 53 1c21 -2 44 7 61 19c25 18 38 46 49 74c21 57 35 128 94 159c26 14 50 -26 23 -40
s-44 -46 -53 -74c-12 -34 -21 -68 -38 -100c-21 -40 -66 -77 -114 -85c1 -14 10 -68 21 -95s30 -41 60 -39c35 1 67 25 92 49c30 31 55 67 76 104zM134 459c11 -3 21 -16 17 -28c-59 -145 -119 -290 -174 -436c-11 -28 -56 -16 -45 12c55 146 115 291 174 436
c4 12 15 20 28 16z" />
    <glyph glyph-name="afii10077" unicode="&#x43b;" horiz-adv-x="555" 
d="M551 196c15 26 55 3 40 -23c-35 -62 -82 -130 -146 -166c-29 -17 -66 -25 -98 -13c-25 10 -45 29 -55 54c-17 48 5 104 20 149c12 33 24 66 35 100c11 33 24 73 12 105c-16 -41 -32 -81 -49 -122c-21 -51 -44 -102 -71 -151c-22 -39 -47 -79 -82 -107
c-44 -36 -118 -51 -160 -3c-40 44 -30 118 3 164c17 24 57 1 40 -24c-25 -35 -40 -115 20 -124c42 -6 74 25 98 54c26 34 47 73 66 111c36 74 65 152 96 229c-5 0 -10 -1 -16 -2c-29 -7 -37 38 -12 45c45 12 91 -4 109 -50c21 -54 -2 -118 -20 -169c-10 -31 -22 -61 -32 -92
c-8 -23 -16 -47 -16 -71c-1 -18 3 -33 17 -45c24 -20 56 -9 80 7c52 33 91 91 121 144z" />
    <glyph glyph-name="afii10078" unicode="&#x43c;" horiz-adv-x="676" 
d="M663 187c14 27 54 3 40 -23c-26 -48 -55 -97 -96 -134c-34 -31 -78 -51 -122 -29c-31 16 -42 45 -42 77c-6 -7 -11 -13 -17 -20c-39 -42 -97 -81 -156 -60c-41 14 -58 47 -62 84c-16 -23 -34 -45 -55 -63c-45 -36 -117 -47 -158 1c-39 45 -28 118 4 163
c17 24 57 1 40 -24c-25 -35 -40 -113 19 -124c42 -8 74 24 97 54c28 35 49 76 69 116c39 79 70 161 106 242c5 11 21 12 32 8c13 -5 16 -21 10 -34c-25 -55 -49 -110 -73 -165c-16 -39 -34 -79 -42 -121c-7 -36 -9 -90 39 -96c50 -6 94 45 121 81c39 52 69 111 104 190
c19 45 39 90 59 134c5 12 22 15 32 9c12 -7 14 -20 8 -32c-23 -52 -47 -105 -69 -158c-20 -45 -41 -90 -55 -138c-7 -27 -19 -73 16 -85c32 -11 64 22 83 44c27 31 48 67 68 103z" />
    <glyph glyph-name="afii10079" unicode="&#x43d;" horiz-adv-x="411" 
d="M407 187c15 27 55 3 40 -23c-25 -48 -55 -97 -95 -134c-34 -31 -78 -51 -122 -29c-46 23 -48 77 -38 121c4 18 10 36 16 54c-20 -10 -42 -15 -64 -16c-35 -1 -70 14 -92 40c-26 -65 -51 -129 -76 -194c-10 -28 -55 -16 -44 12c7 19 116 302 166 425c5 12 16 20 29 16
c11 -3 21 -16 16 -28c-12 -31 -59 -149 -70 -176c10 -33 42 -51 76 -48c37 2 65 22 97 59c14 31 55 125 79 178c5 12 22 15 32 9c11 -7 13 -20 8 -32c-24 -52 -47 -105 -70 -158c-19 -45 -40 -90 -54 -138c-8 -27 -19 -73 16 -85c32 -11 63 22 82 44c27 31 49 67 68 103z
" />
    <glyph glyph-name="afii10086" unicode="&#x444;" horiz-adv-x="663" 
d="M660 190c14 26 54 2 40 -24c-40 -70 -134 -226 -232 -150c-10 7 -8 24 0 32c10 10 23 8 33 0c27 -21 61 10 79 30c32 32 57 72 80 112zM534 199c-17 -45 -39 -87 -69 -124c-41 -53 -110 -106 -180 -75c-26 11 -42 29 -51 51c-23 -58 -47 -117 -70 -175
c-34 -85 -67 -170 -103 -254c-5 -11 -22 -14 -32 -8c-11 7 -13 20 -8 32c0 0 115 285 152 376c-16 -11 -33 -19 -51 -23c-60 -16 -114 19 -127 79c-16 80 18 167 56 235c37 66 100 138 180 145c32 3 67 -10 89 -35c4 -4 7 -8 10 -13c8 18 15 35 23 52c5 12 22 15 32 9
c11 -7 13 -20 8 -32c-1 -3 -2 -6 -4 -9c23 16 49 28 76 26c68 -4 99 -69 97 -130c-1 -43 -13 -86 -28 -127zM130 51c53 27 88 86 109 139c12 29 49 115 57 140c8 28 3 58 -24 73c-24 14 -52 10 -75 -2c-61 -31 -100 -93 -127 -154c-23 -49 -47 -120 -25 -174
c14 -35 53 -38 85 -22zM387 61c27 20 48 47 65 75c21 35 37 72 49 111c9 31 16 63 14 96c-1 43 -32 74 -67 65c-60 -16 -102 -83 -125 -136c0 0 -28 -69 -42 -105c-10 -30 -19 -66 -5 -97c9 -19 26 -30 45 -33c24 -3 48 10 66 24z" />
    <glyph glyph-name="afii10088" unicode="&#x446;" horiz-adv-x="435" 
d="M431 193c15 26 55 2 40 -24c-41 -74 -100 -137 -174 -178c-2 -1 -3 -2 -4 -3c5 -21 4 -44 0 -66c-8 -42 -35 -85 -82 -87c-44 -2 -73 38 -65 79c6 37 38 71 70 89c3 2 7 3 10 5c-10 11 -19 22 -25 36l-6 18c-12 -15 -27 -29 -43 -41c-42 -33 -106 -38 -145 5
c-36 40 -30 101 -15 149c14 43 35 84 53 126c21 49 42 97 64 145c5 12 22 14 32 9c11 -7 13 -21 8 -32c-22 -48 -43 -97 -64 -145c-15 -36 -32 -72 -45 -108c-12 -32 -25 -82 0 -111c31 -37 79 -10 105 17c44 46 72 107 97 164c9 21 61 139 91 206c5 12 22 14 32 8
c11 -6 13 -20 8 -31c-23 -52 -117 -266 -122 -281c-6 -19 -12 -39 -11 -60c0 -17 8 -30 20 -42c4 -4 7 -7 10 -11c70 38 123 94 161 164zM238 -98c10 18 15 43 11 66c-1 -1 -3 -2 -5 -3c-23 -11 -50 -35 -53 -62c-2 -9 2 -18 12 -21c15 -4 28 8 35 20z" />
    <glyph glyph-name="afii10089" unicode="&#x447;" horiz-adv-x="406" 
d="M402 197c15 26 55 2 40 -24c-38 -69 -92 -150 -171 -178c-51 -19 -117 5 -128 63c-10 57 24 114 51 161c15 26 31 53 43 81c9 23 22 65 -1 85c-18 16 -47 18 -68 29c-6 3 -12 6 -17 11c-32 -96 -76 -188 -127 -275c-15 -26 -55 -3 -40 23c59 101 108 208 140 320
c8 26 44 20 46 -6c1 -27 21 -35 44 -42c29 -9 58 -21 72 -50c29 -62 -14 -132 -44 -184c-22 -39 -52 -83 -54 -130c-2 -46 46 -55 81 -37c60 31 101 95 133 153z" />
    <glyph glyph-name="afii10090" unicode="&#x448;" horiz-adv-x="641" 
d="M638 190c14 26 54 2 40 -24c-25 -47 -55 -97 -95 -133c-34 -31 -78 -51 -122 -29c-25 12 -37 34 -41 58c-12 -14 -24 -27 -38 -38c-44 -34 -110 -43 -151 2c-13 14 -20 31 -24 48c-14 -18 -30 -35 -48 -50c-44 -34 -110 -43 -151 2c-36 40 -31 100 -15 147
c14 44 34 86 53 128c21 48 42 97 64 145c5 12 21 14 31 8c12 -6 14 -20 9 -31c-22 -48 -43 -96 -64 -144c-15 -35 -32 -71 -45 -108c-12 -32 -26 -83 -1 -112c31 -36 77 -12 104 14c35 35 61 81 81 128c13 34 86 197 108 245c5 12 22 14 31 8c12 -6 14 -20 9 -31
c-22 -48 -89 -206 -109 -252c-13 -31 -26 -83 0 -112c30 -36 77 -12 103 14c34 34 59 78 79 122c23 53 86 198 110 251c5 12 22 14 32 8c11 -6 13 -20 8 -31c-24 -52 -98 -225 -104 -238c-7 -19 -14 -38 -20 -58c-7 -27 -19 -73 16 -85c32 -10 64 23 82 44
c27 31 49 67 68 104zM266 -118h-155c-30 0 -30 46 0 46c69 0 86 -1 155 0c30 1 30 -46 0 -46z" />
    <glyph glyph-name="afii10091" unicode="&#x449;" horiz-adv-x="660" 
d="M656 193c15 26 55 2 40 -24c-41 -74 -100 -137 -175 -178c-1 -1 -2 -2 -4 -3c6 -21 5 -44 1 -66c-8 -42 -35 -85 -82 -87c-44 -2 -73 38 -66 79c7 37 39 71 71 89c3 2 7 3 10 5c-10 11 -19 22 -25 36c-3 6 -4 12 -6 18c-13 -15 -27 -29 -43 -41c-43 -33 -106 -38 -145 5
c-13 14 -21 31 -24 49c-15 -19 -31 -36 -49 -51c-44 -34 -110 -43 -151 2c-36 40 -31 100 -15 147c14 44 34 86 53 128c21 48 42 97 64 145c5 12 21 14 31 8c12 -6 14 -20 9 -31c-22 -48 -43 -96 -63 -144c-16 -35 -32 -71 -46 -108c-12 -32 -26 -83 0 -112
c30 -36 77 -12 103 14c44 44 72 105 96 162c30 66 72 163 94 211c5 12 21 14 31 9c12 -7 14 -21 9 -32c-22 -48 -96 -217 -109 -253c-12 -32 -25 -82 0 -111c31 -37 79 -10 105 17c44 46 72 107 97 164c0 2 60 139 91 206c5 12 22 14 32 8c11 -6 13 -20 8 -31
c-24 -52 -102 -232 -122 -281c-8 -19 -12 -39 -12 -60c1 -17 9 -30 21 -42c3 -4 7 -7 10 -11c70 38 123 94 161 164zM463 -98c10 18 15 43 11 66c-2 -1 -3 -2 -5 -3c-23 -11 -50 -35 -54 -62c-1 -9 3 -18 13 -21c15 -4 28 8 35 20z" />
    <glyph glyph-name="afii10093" unicode="&#x44b;" horiz-adv-x="530" 
d="M517 190c14 26 54 2 40 -24c-26 -47 -55 -97 -95 -133c-34 -31 -78 -51 -122 -29c-46 23 -48 76 -38 120c12 52 36 102 57 151c-44 -35 -95 -61 -149 -69c11 -24 13 -53 10 -79c-8 -62 -49 -122 -113 -134c-30 -6 -61 -1 -86 17c-26 19 -37 48 -40 79
c-4 55 20 110 40 160c28 66 57 132 89 197c12 27 52 4 40 -23c-29 -60 -56 -120 -82 -181c-16 -40 -34 -82 -40 -125c-2 -20 -2 -43 10 -60c12 -16 35 -22 54 -20c47 5 76 51 82 94c3 20 2 44 -10 62c-3 5 -7 9 -11 12c-14 1 -29 4 -43 8c-26 7 -19 43 6 45
c17 2 34 -1 48 -7c44 -2 88 12 126 33c65 37 114 95 145 162c6 13 22 14 32 8c10 -5 14 -17 8 -31c-24 -53 -47 -105 -70 -158c-19 -45 -41 -90 -54 -138c-8 -27 -19 -73 16 -85c32 -10 63 23 82 44c27 31 48 67 68 104z" />
    <glyph glyph-name="afii10095" unicode="&#x44d;" horiz-adv-x="428" 
d="M254 454c62 -22 79 -88 75 -147c-6 -78 -35 -156 -83 -218c-41 -54 -103 -107 -176 -92c-84 18 -107 112 -78 183c4 12 15 20 28 16c11 -3 21 -16 16 -28c-11 -29 -15 -65 -1 -94c14 -27 49 -38 78 -31c53 12 92 62 119 107c10 17 19 36 27 55c-39 0 -78 1 -117 1
c-30 1 -30 47 0 47c44 -1 87 -2 131 -2c6 23 9 47 10 71c1 42 -12 86 -60 92c-55 7 -99 -38 -124 -81c-15 -26 -55 -3 -40 23c38 67 114 127 195 98zM424 191c15 26 55 3 40 -23c-39 -70 -134 -226 -231 -150c-10 7 -8 25 0 32c10 10 23 8 33 0c27 -21 61 11 79 30
c32 32 57 72 79 111z" />
    <glyph glyph-name="afii10096" unicode="&#x44e;" horiz-adv-x="587" 
d="M583 192c15 26 55 2 40 -24c-39 -70 -134 -225 -231 -150c-10 8 -8 25 0 33c10 9 23 8 33 0c27 -21 60 10 79 29c32 33 57 72 79 112zM478 292c-10 -53 -30 -105 -54 -152c-36 -72 -104 -173 -197 -154c-1 0 -6 2 -7 2c-78 24 -82 105 -67 176c-23 -3 -45 1 -67 12
c-13 6 -24 15 -34 26c-25 -64 -50 -129 -75 -194c-10 -27 -55 -15 -45 13c7 18 14 36 22 55c47 123 95 246 145 369c4 11 15 20 28 16c11 -3 21 -17 16 -28c-12 -31 -24 -63 -37 -94c-11 -27 -21 -55 -32 -82c12 -38 56 -58 93 -43c29 81 72 174 145 224
c52 35 130 32 159 -31c16 -36 14 -77 7 -115zM324 73c33 35 57 80 76 125c16 39 32 81 36 123c3 47 -7 78 -33 91c-23 10 -60 -6 -87 -30c-27 -25 -47 -57 -64 -89c-19 -37 -36 -75 -48 -115c-14 -46 -31 -129 32 -146c35 -8 66 17 88 41z" />
    <glyph glyph-name="afii10097" unicode="&#x44f;" horiz-adv-x="465" 
d="M452 190c14 26 54 2 40 -24c-22 -39 -45 -77 -74 -111c-23 -27 -53 -53 -89 -59c-35 -6 -74 10 -89 43c-17 36 -6 79 5 114c7 22 16 44 25 66c-4 -2 -7 -3 -10 -4l-6 -12c-19 -47 -42 -93 -74 -133c-24 -31 -61 -64 -101 -73c-45 -9 -95 8 -112 53c-18 47 3 102 28 141
c16 25 57 2 40 -23c-17 -27 -43 -78 -21 -110c21 -30 66 -14 90 2c49 34 79 92 103 148c-8 0 -17 1 -25 3c-48 10 -79 47 -83 95c-5 76 58 175 144 141c68 -26 60 -102 40 -169c8 6 14 13 21 19c11 9 24 7 29 3c12 -6 13 -20 8 -31c-20 -48 -43 -96 -57 -146
c-7 -27 -16 -71 19 -81c32 -9 62 23 81 44c27 31 48 67 68 104zM147 297c7 -29 33 -42 61 -43c6 0 12 0 18 1c12 31 23 66 24 99c1 23 -4 45 -27 51c-55 16 -85 -64 -76 -108z" />
    <glyph glyph-name="afii10092" unicode="&#x44a;" horiz-adv-x="507" 
d="M503 191c15 26 55 3 40 -23c-39 -70 -134 -226 -231 -150c-10 7 -8 25 0 32c10 10 23 8 33 0c27 -21 60 11 79 30c32 32 57 72 79 111zM313 238c35 -52 14 -129 -19 -177c-35 -52 -105 -89 -165 -54c-31 18 -48 53 -50 87c-2 39 15 78 29 113c25 62 57 122 87 182
c-7 0 -15 1 -22 2c-12 2 -23 6 -33 12c-32 -87 -68 -172 -116 -252c-15 -25 -55 -2 -40 24c51 86 89 178 122 272c6 16 26 23 39 10c24 -23 51 -22 81 -22c9 1 20 -3 25 -10s6 -14 1 -24c-21 -43 -43 -86 -64 -129c12 4 24 6 37 7c35 1 69 -11 88 -41zM256 86
c21 33 44 91 18 128c-25 37 -89 16 -111 -15c-3 -5 -8 -8 -13 -9c-18 -43 -45 -107 -3 -140c37 -29 87 4 109 36z" />
    <glyph glyph-name="afii10094" unicode="&#x44c;" horiz-adv-x="398" 
d="M394 191c15 26 55 3 40 -23c-39 -70 -134 -226 -231 -150c-10 7 -8 25 0 32c10 10 23 8 33 0c27 -21 61 11 79 30c32 32 57 72 79 111zM210 230c30 -61 2 -145 -42 -192c-43 -45 -123 -66 -170 -13c-56 63 -14 150 15 215c32 72 67 142 101 212c13 27 53 3 40 -23
c-25 -53 -51 -105 -75 -157c13 4 27 7 42 7c36 0 72 -15 89 -49zM132 68c31 31 58 95 38 139c-21 45 -93 26 -115 -8c-4 -4 -8 -7 -13 -9c-3 -7 -5 -14 -8 -21c-12 -31 -26 -66 -11 -98c22 -47 79 -34 109 -3z" />
    <glyph glyph-name="afii10071" unicode="&#x451;" horiz-adv-x="337" 
d="M230 569c3 -16 -2 -35 -15 -44c-17 -12 -40 -4 -46 15c-4 14 0 30 12 42c7 6 15 8 23 8c13 -1 23 -10 26 -21zM367 569c4 -16 -1 -35 -15 -44c-16 -12 -39 -4 -45 15c-5 14 0 30 11 42c7 6 16 8 24 8c12 -1 22 -10 25 -21zM334 194c14 27 54 3 40 -23
c-49 -93 -143 -194 -259 -177c-42 6 -80 31 -98 70c-20 42 -19 91 -11 136c9 46 28 91 52 132c23 41 52 80 90 107c35 24 82 33 121 13c46 -24 49 -80 32 -123c-38 -94 -149 -145 -244 -114c-6 -22 -9 -43 -10 -65c-1 -30 4 -65 27 -87c21 -22 55 -28 84 -24
c81 13 140 88 176 155zM131 359c-23 -29 -44 -63 -59 -100c43 -13 88 -7 127 18c32 20 62 55 66 95c3 32 -22 49 -53 44c-33 -4 -60 -32 -81 -57z" />
    <glyph glyph-name="one" unicode="1" horiz-adv-x="361" 
d="M368 702c13 27 53 3 40 -24c-2 -5 -219 -476 -292 -636c21 0 43 -2 64 -4c29 -2 29 -49 0 -46c-56 5 -112 6 -167 3c-30 -2 -30 45 0 46c17 1 35 2 53 2c19 42 38 85 58 127c45 100 91 199 136 298c-30 -25 -63 -46 -102 -61c-28 -10 -40 35 -12 45
c108 40 176 150 222 250z" />
    <glyph glyph-name="two" unicode="2" horiz-adv-x="441" 
d="M148 113c-18 -20 -36 -39 -55 -58c36 -11 70 -25 108 -27c27 -2 58 1 80 18c20 16 26 40 26 64c0 30 46 30 46 0c0 -65 -40 -116 -106 -126c-36 -6 -74 -1 -109 8c-23 6 -44 15 -66 21c-8 2 -15 4 -23 5c-18 -11 -38 -18 -61 -13c-9 2 -18 13 -17 23c4 33 36 40 67 38
c13 11 25 25 33 33c22 21 43 44 63 68c91 103 179 217 235 344c19 42 56 138 -13 155c-28 7 -52 -14 -69 -35c-23 -29 -37 -67 -43 -104c-5 -29 -49 -17 -45 13c13 76 78 202 175 169c89 -31 72 -133 43 -202c-31 -75 -74 -144 -121 -210c-45 -64 -95 -126 -148 -184z" />
    <glyph glyph-name="three" unicode="3" horiz-adv-x="414" 
d="M429 589c-12 -57 -50 -110 -98 -144c14 -12 26 -28 33 -47c19 -45 15 -98 4 -145c-21 -88 -73 -177 -147 -230c-69 -48 -177 -56 -223 27c-38 69 -8 160 44 212c27 26 69 47 107 34c47 -17 56 -72 41 -114c-11 -27 -56 -15 -45 13c6 15 11 35 -1 50c-10 12 -26 9 -39 4
c-27 -10 -46 -35 -58 -59c-25 -46 -32 -115 19 -146c55 -32 121 5 160 44c52 52 89 126 101 198c7 37 6 148 -58 128c-29 -8 -41 36 -13 45c39 11 72 38 95 71c20 27 38 62 36 97c-2 36 -34 54 -67 39c-39 -18 -61 -61 -74 -99c-9 -28 -54 -16 -44 12c15 48 42 96 86 122
c36 22 84 25 116 -5c30 -27 34 -70 25 -107z" />
    <glyph glyph-name="four" unicode="4" horiz-adv-x="374" 
d="M381 633c12 27 52 4 40 -23c-41 -88 -82 -176 -123 -265l24 -12c27 -15 3 -55 -23 -40c-7 3 -14 7 -21 10c-40 -87 -80 -174 -120 -262c15 0 31 -1 46 -3c29 -2 29 -49 0 -46c-54 5 -107 6 -161 3c-30 -2 -30 45 0 46c22 1 44 2 65 2l126 273c-14 2 -29 1 -42 1
c-41 -2 -81 -8 -121 -20c-12 -4 -23 2 -29 11c-5 9 -7 22 4 31c115 95 182 231 231 368c10 28 55 16 44 -12c-43 -121 -99 -242 -187 -337c21 3 42 5 63 5c19 1 38 0 57 -3c42 91 84 182 127 273z" />
    <glyph glyph-name="five" unicode="5" horiz-adv-x="384" 
d="M441 716c14 26 54 3 40 -24c-27 -50 -87 -119 -151 -80c-13 9 -25 21 -33 35c-6 8 -9 20 -16 28c-16 18 -35 -16 -41 -30c-30 -79 -64 -156 -99 -233c49 18 106 15 145 -24c64 -65 39 -174 4 -246c-33 -70 -92 -138 -173 -147c-66 -8 -124 35 -135 102c-7 45 5 92 35 128
c27 33 71 48 111 32c12 -5 20 -15 16 -29c-3 -11 -16 -21 -28 -16c-36 15 -64 -9 -79 -41s-16 -73 5 -103c23 -31 66 -34 102 -19c61 25 99 90 120 149c18 52 31 139 -29 170c-44 23 -103 -2 -134 -39c-19 -22 -47 6 -37 28c47 99 92 198 131 300c12 29 30 60 63 68
c29 7 54 -10 68 -34c11 -20 25 -51 53 -42c29 9 48 42 62 67z" />
    <glyph glyph-name="six" unicode="6" horiz-adv-x="387" 
d="M435 583c-1 -13 -9 -23 -23 -23c-11 0 -25 10 -23 23c3 22 5 54 -12 72c-14 15 -41 11 -59 6c-56 -17 -98 -71 -130 -117c-65 -94 -110 -202 -137 -312c-11 -43 -22 -94 -7 -138c16 -46 66 -59 108 -41c51 21 87 68 110 117c19 43 36 98 23 145c-8 31 -36 52 -69 44
c-43 -11 -74 -55 -90 -93c-5 -12 -15 -21 -29 -17c-10 3 -21 17 -16 29c25 59 71 120 139 128c58 7 103 -36 113 -90c11 -64 -11 -133 -41 -189c-31 -57 -85 -113 -152 -126c-62 -12 -121 21 -141 81c-19 56 -4 121 10 176c35 132 94 268 186 370c39 43 95 88 157 83
c30 -2 55 -14 70 -40s17 -59 13 -88z" />
    <glyph glyph-name="seven" unicode="7" horiz-adv-x="381" 
d="M432 711c22 20 53 -11 32 -33l-13 -13c-28 -26 -53 -56 -76 -87c-53 -71 -97 -148 -137 -227c16 -2 31 -1 46 4c28 10 40 -34 12 -45c-25 -9 -53 -7 -79 -2c-46 -96 -86 -195 -121 -296c-9 -29 -54 -16 -44 12c20 61 43 122 69 182c16 38 32 76 50 113
c-19 5 -39 8 -55 -4c-10 -7 -26 -1 -32 9c-7 11 -2 24 8 31c31 23 65 15 99 7c24 47 49 94 77 139c26 44 55 87 86 127c-31 1 -60 12 -89 23c-24 9 -51 22 -76 13c-33 -12 -48 -44 -45 -78c2 -12 -11 -23 -23 -23c-13 0 -22 11 -23 23c-5 41 13 81 46 106c29 21 63 26 97 16
c32 -9 61 -24 93 -31c33 -7 61 3 86 23c4 4 8 7 12 11z" />
    <glyph glyph-name="eight" unicode="8" horiz-adv-x="430" 
d="M448 633c6 -41 -8 -80 -31 -114c-27 -41 -63 -72 -104 -97c8 -17 16 -34 23 -51c25 -59 45 -125 39 -190c-7 -64 -39 -123 -92 -159c-55 -37 -129 -45 -189 -17c-56 25 -89 83 -93 143c-4 69 30 133 77 181c42 42 94 70 147 97c10 5 20 10 30 16c-2 5 -5 10 -7 16
c-20 55 -35 123 -15 181c22 64 88 105 154 79c1 0 5 -2 6 -2c32 -15 51 -49 55 -83zM307 114c53 93 6 193 -34 285c-1 -1 -2 -1 -3 -2c-49 -26 -101 -49 -143 -86c-48 -42 -86 -101 -79 -167c6 -58 50 -103 108 -109c61 -6 120 26 151 79zM403 607c2 27 -6 55 -31 67
c-32 12 -64 2 -84 -27c-19 -29 -20 -65 -15 -99c3 -29 12 -56 22 -83c24 15 45 32 64 53c22 25 41 56 44 89z" />
    <glyph glyph-name="nine" unicode="9" horiz-adv-x="363" 
d="M-29 129c3 30 49 30 47 0c-2 -24 0 -55 21 -71c16 -13 41 -11 60 -5c55 17 96 76 125 123c62 101 107 220 126 337c8 47 15 115 -26 149c-29 23 -68 18 -98 1c-42 -23 -71 -63 -91 -105c-21 -45 -37 -103 -24 -153c8 -32 34 -54 69 -45c45 11 74 57 90 97
c10 28 55 16 44 -12c-23 -60 -69 -125 -138 -133c-59 -7 -103 38 -113 93c-11 66 10 138 42 195c27 50 70 95 124 115c49 18 105 8 139 -33c45 -54 37 -133 24 -198c-14 -72 -37 -142 -66 -209c-28 -67 -63 -132 -110 -189c-36 -43 -88 -87 -148 -84c-68 3 -102 64 -97 127z
" />
    <glyph glyph-name="zero" unicode="0" horiz-adv-x="401" 
d="M382 698c52 -30 60 -97 58 -152c-4 -70 -24 -140 -48 -206c-25 -64 -55 -127 -92 -185c-32 -51 -73 -104 -127 -134c-45 -25 -104 -28 -144 9c-37 33 -41 91 -37 138c4 64 23 128 45 189c23 62 50 123 82 180c50 89 142 217 259 163zM363 399c16 52 29 104 30 157
c2 37 -1 84 -38 104c-47 24 -92 -10 -123 -42c-42 -46 -73 -103 -101 -158c-24 -50 -46 -103 -63 -156c-17 -52 -31 -106 -31 -161c0 -35 6 -78 43 -91c44 -14 85 15 114 44c41 39 72 88 99 137c28 54 52 109 70 166z" />
    <glyph glyph-name="currency" unicode="&#xa4;" horiz-adv-x="428" 
d="M361 447c9 -9 8 -23 0 -33c-14 -16 -28 -33 -42 -50c4 -5 8 -11 11 -17c23 -43 17 -99 -13 -137c-4 -6 -9 -11 -14 -16c9 -16 19 -32 29 -49c15 -25 -25 -49 -40 -23c-10 16 -20 33 -30 49c-27 -9 -59 -9 -87 2c-3 1 -6 2 -8 3c-16 -19 -32 -39 -47 -59
c-8 -10 -25 -8 -33 0c-10 10 -8 23 0 33c14 18 28 36 42 53c-20 22 -30 51 -29 82v6c4 33 18 63 41 84c-10 17 -20 34 -29 51c-15 26 25 49 40 23c9 -17 19 -34 29 -50c7 2 13 3 20 4c27 4 57 0 81 -11c16 18 31 37 46 55c8 10 25 8 33 0zM205 212c34 -6 68 8 84 39
c13 24 13 60 -4 82c-20 25 -60 31 -89 22c-30 -9 -47 -37 -50 -67c-2 -39 21 -68 59 -76z" />
    <glyph glyph-name="at" unicode="@" horiz-adv-x="826" 
d="M745 483c33 -83 22 -183 -9 -265c-27 -73 -69 -153 -133 -199c-30 -22 -71 -32 -105 -13c-22 12 -32 32 -35 54c-24 -27 -54 -49 -89 -58c-60 -15 -114 20 -127 80c-16 79 17 166 56 234c36 66 99 138 179 145c33 2 67 -10 89 -35c5 -5 9 -11 13 -17c6 12 12 25 18 38
c13 27 52 4 40 -23c-13 -27 -25 -54 -37 -81c-21 -48 -42 -97 -62 -146c-16 -38 -37 -84 -34 -127c2 -28 27 -33 50 -24c29 12 52 41 70 66c42 60 72 128 84 200c12 69 6 151 -42 206c-49 55 -127 69 -198 59c-81 -10 -154 -53 -210 -111c-60 -63 -100 -143 -120 -227
c-19 -78 -27 -169 12 -243c65 -124 224 -134 335 -69c26 15 50 -25 24 -40c-18 -10 -37 -19 -56 -26c-72 -27 -153 -28 -224 2c-73 31 -124 97 -143 173c-23 96 -4 203 32 293s95 171 174 227c138 97 374 108 448 -73zM381 55c53 27 88 85 110 138c0 2 24 56 34 81
c7 16 14 33 21 49c0 3 0 6 1 10c7 28 3 58 -24 73c-23 13 -51 9 -74 -2c-61 -31 -101 -93 -128 -153c-22 -50 -46 -120 -24 -174c14 -35 53 -39 84 -22z" />
    <glyph glyph-name="Euro" unicode="&#x20ac;" horiz-adv-x="650" 
d="M596 664c33 -54 27 -130 6 -186c-11 -28 -56 -16 -45 12c19 50 29 125 -13 166c-35 33 -88 29 -128 10c-84 -40 -145 -122 -186 -202c-6 -14 -12 -27 -18 -41c66 -2 133 -3 199 -5c30 -1 30 -48 0 -47c-72 3 -144 4 -216 6c-6 -19 -11 -39 -16 -59c68 -1 136 -2 204 -5
c29 -1 29 -47 0 -46c-71 2 -142 4 -212 5c-5 -34 -7 -70 -1 -104c10 -67 49 -122 118 -132c101 -16 187 72 227 156c13 26 53 3 40 -24c-52 -110 -175 -212 -303 -171c-86 27 -126 109 -131 194c-2 28 0 55 3 83c-17 0 -34 1 -52 1c-29 1 -29 47 0 46c20 0 40 -1 60 -1
c3 14 7 28 10 41c2 6 4 12 5 17c-15 1 -31 1 -46 2c-30 1 -30 47 0 46c21 -1 41 -1 62 -2c15 40 34 78 56 115c53 83 137 176 241 187c53 6 108 -16 136 -62z" />
    <glyph glyph-name="dollar" unicode="$" horiz-adv-x="621" 
d="M543 725c91 -51 69 -210 -36 -228c-29 -5 -42 39 -12 44c51 9 70 64 54 108c-7 20 -22 36 -43 42c-33 9 -75 -6 -95 -34c-46 -64 -13 -147 17 -210c20 -39 41 -77 55 -118c14 -40 21 -83 19 -125c-5 -76 -42 -151 -107 -194c-55 -35 -127 -46 -190 -27h-1
c-15 -32 -30 -65 -45 -98c-5 -11 -22 -14 -32 -8c-11 7 -13 20 -8 32l42 93c-43 24 -77 64 -92 112c-17 56 -8 120 23 170c38 60 104 94 175 83c56 -9 112 -63 104 -124c-2 -12 -10 -23 -23 -23c-12 0 -25 11 -24 23c3 23 -8 47 -28 62c-25 20 -62 22 -92 13
c-62 -19 -98 -86 -97 -148c1 -60 36 -111 90 -135s120 -17 168 11c63 37 93 113 91 184c-3 84 -50 152 -83 227c-29 67 -48 148 -8 215c27 45 82 73 134 67c15 33 30 67 45 100c12 27 52 3 40 -24c-14 -29 -27 -60 -41 -90z" />
    <glyph glyph-name="ruble" horiz-adv-x="776" 
d="M789 642c58 -109 16 -255 -80 -329c-85 -66 -196 -72 -296 -41c-4 -13 -9 -26 -14 -38l138 -33c29 -6 17 -51 -12 -44c-48 10 -96 22 -143 33c-21 -47 -46 -93 -80 -132c-57 -66 -162 -108 -243 -58c-77 48 -89 156 -38 226c28 40 75 65 124 52c59 -16 76 -76 62 -130
c-8 -29 -53 -17 -45 12c5 19 7 50 -10 65c-15 12 -39 13 -56 6c-37 -14 -60 -60 -60 -98c-1 -31 10 -61 33 -82c27 -26 66 -30 100 -23c76 16 122 83 155 149l12 24c-22 6 -44 11 -66 16c-29 7 -17 52 12 45c24 -6 48 -11 72 -17c6 14 11 29 16 43c-23 10 -45 21 -65 35
c-25 16 -2 56 23 40c18 -12 37 -22 58 -31c11 33 21 65 33 98c30 86 66 196 152 243c26 14 50 -26 24 -40c-51 -28 -79 -85 -101 -136c-25 -56 -43 -116 -63 -175c-1 -2 -2 -4 -2 -6c94 -28 200 -21 273 51c68 68 91 186 37 268c-65 99 -207 117 -314 107
c-97 -9 -195 -59 -214 -161c-8 -44 10 -96 60 -110c57 -16 115 27 110 87c-2 30 44 30 47 0c1 -17 -1 -34 -7 -50c-27 -73 -112 -106 -182 -74c-32 14 -56 42 -68 75c-11 26 -10 54 -5 82c8 50 36 97 76 129c53 44 120 63 188 69c129 11 292 -22 359 -147z" />
    <glyph glyph-name="yen" unicode="&#xa5;" horiz-adv-x="485" 
d="M524 704c22 21 55 -12 33 -33c-68 -65 -134 -132 -201 -198c30 -1 60 -2 89 -3c30 -1 30 -47 0 -46c-43 1 -87 2 -131 3c-9 -19 -17 -39 -26 -58c43 -1 86 -2 129 -4c29 -1 30 -47 0 -46c-50 2 -100 3 -150 4c-48 -111 -96 -223 -144 -334c-5 -12 -22 -14 -32 -8
c-11 7 -13 20 -8 31c45 104 89 208 135 312c-38 1 -75 2 -112 3c-30 1 -30 48 0 47c44 -2 88 -3 132 -4c8 20 17 39 26 58c-43 1 -87 2 -130 4c-30 1 -30 47 0 46c44 -1 87 -2 131 -3c-24 72 -45 145 -70 217c-9 29 36 41 45 13c24 -71 45 -143 69 -214
c72 71 142 143 215 213z" />
    <glyph glyph-name="cent" unicode="&#xa2;" horiz-adv-x="413" 
d="M340 553c12 27 52 3 40 -24c-13 -29 -26 -58 -40 -87c8 -6 14 -14 19 -23c20 -35 18 -79 3 -116c-5 -11 -16 -20 -29 -16c-11 3 -21 17 -16 29c11 27 18 66 -6 90c-17 17 -46 12 -66 3c-50 -22 -84 -76 -108 -123c-25 -49 -44 -107 -38 -162c4 -45 34 -85 82 -84
c53 1 102 46 123 92c5 12 22 14 31 8c12 -6 14 -20 9 -31c-30 -68 -112 -129 -189 -113c-3 1 -7 2 -10 3c-16 -36 -33 -71 -48 -106c-5 -12 -22 -15 -32 -9c-12 7 -13 21 -8 32c15 35 31 69 47 104c-35 27 -52 73 -53 120c-1 71 27 143 64 203c35 56 89 118 160 121
c8 0 16 -1 24 -2c13 30 27 61 41 91z" />
    <glyph glyph-name="question" unicode="?" horiz-adv-x="499" 
d="M215 516c-9 -32 -54 -19 -46 10c22 77 68 162 149 190c62 22 135 -8 154 -73c19 -63 -7 -137 -44 -189c-37 -53 -89 -90 -141 -130c-44 -33 -88 -71 -105 -125c-9 -29 -54 -17 -45 12c19 60 63 103 111 141c45 36 93 68 130 112c33 41 61 100 52 154c-3 22 -15 42 -36 52
c-22 10 -47 8 -69 -1c-61 -26 -93 -93 -110 -153zM143 36c4 -16 -2 -34 -15 -44c-17 -11 -40 -3 -46 16c-4 14 0 30 12 42c7 6 16 7 24 7c12 0 22 -9 25 -21z" />
    <glyph glyph-name="exclam" unicode="!" horiz-adv-x="385" 
d="M112 36c4 -16 -1 -34 -15 -44c-16 -11 -39 -3 -45 16c-5 14 0 30 12 42c6 6 15 7 23 7c12 0 23 -9 25 -21zM267 392c-90 -207 -66 -155 -97 -224c-8 -18 -27 -20 -36 -14c-12 7 -11 21 -6 33c95 215 113 271 234 530c12 27 52 3 40 -24c-25 -53 -49 -106 -73 -160
c-20 -47 -42 -94 -62 -141z" />
    <glyph glyph-name="period" unicode="." horiz-adv-x="185" 
d="M83 36c4 -16 -2 -34 -15 -44c-16 -11 -40 -3 -46 16c-4 14 0 30 12 42c7 6 16 7 24 7c12 0 22 -9 25 -21z" />
    <glyph glyph-name="comma" unicode="," horiz-adv-x="200" 
d="M80 27c-1 -18 -6 -31 -12 -44c-10 -21 -25 -42 -45 -55c-17 -12 -32 15 -16 26c13 9 22 22 29 35c-9 3 -16 10 -19 19c-5 14 0 30 12 42c7 7 15 8 24 8c12 0 27 -12 27 -31z" />
    <glyph glyph-name="colon" unicode=":" horiz-adv-x="287" 
d="M87 57c12 0 23 -9 25 -21c4 -16 -1 -34 -15 -44c-16 -11 -39 -3 -45 16c-5 14 0 30 11 42c7 6 16 7 24 7zM235 421c4 -16 -1 -34 -15 -43c-16 -12 -39 -4 -45 15c-5 14 0 30 12 42c6 6 15 7 23 7c12 0 23 -9 25 -21z" />
    <glyph glyph-name="semicolon" unicode=";" horiz-adv-x="298" 
d="M102 58c12 0 27 -12 27 -31c0 -18 -6 -31 -12 -44c-10 -21 -25 -42 -44 -55c-17 -12 -32 15 -16 26c12 9 21 22 28 35c-8 3 -16 10 -19 19c-4 14 1 30 12 42c7 7 16 8 24 8zM247 421c3 -16 -2 -34 -15 -43c-17 -12 -40 -4 -46 15c-5 14 0 30 12 42c7 6 15 7 24 7
c12 0 22 -9 25 -21z" />
    <glyph glyph-name="parenleft" unicode="(" horiz-adv-x="425" 
d="M515 803c29 7 42 -38 13 -45c-67 -17 -126 -55 -174 -103c-98 -95 -162 -225 -192 -358c-25 -116 -25 -252 50 -351c7 -10 1 -26 -9 -32c-12 -7 -24 -2 -32 8c-43 58 -63 130 -69 202c-11 144 34 293 106 417c68 117 172 228 307 262z" />
    <glyph glyph-name="percent" unicode="%" horiz-adv-x="774" 
d="M567 695c-25 -55 -50 -110 -75 -164c-83 -179 -168 -358 -246 -538c-5 -12 -22 -15 -32 -9c-12 7 -13 20 -8 32c11 27 24 53 35 79c73 160 146 320 220 480c-6 -3 -12 -5 -18 -8c-33 -11 -68 -10 -100 0c5 -31 -2 -65 -19 -90c-32 -45 -90 -63 -142 -47
c-49 15 -80 57 -82 108v3v3c2 56 37 108 94 119c36 7 74 1 104 -19c21 -14 86 -48 132 -32c47 17 77 63 97 106c8 17 24 14 33 9c11 -6 15 -15 7 -32zM292 516c11 25 8 61 -11 82c-21 24 -63 27 -91 15c-29 -12 -43 -41 -44 -72c1 -38 27 -66 65 -70c34 -3 67 12 81 45z
M655 241c26 -40 24 -99 -3 -137c-31 -46 -89 -63 -141 -48c-50 15 -80 58 -82 108c-1 1 -1 2 -1 4v3c3 56 38 107 95 118c49 10 105 -4 132 -48zM621 142c11 25 8 61 -11 82c-21 24 -63 27 -91 16c-29 -12 -44 -42 -44 -72c1 -38 26 -66 64 -70c34 -4 68 12 82 44z" />
    <glyph glyph-name="parenright" unicode=")" horiz-adv-x="434" 
d="M337 618c33 -131 13 -276 -37 -400c-52 -129 -140 -249 -265 -316c-26 -14 -50 26 -23 40c63 34 118 84 161 141c78 105 125 234 132 364c7 112 -16 235 -101 314c-22 21 11 54 33 33c50 -47 83 -110 100 -176z" />
    <glyph glyph-name="bracketleft" unicode="[" horiz-adv-x="460" 
d="M507 783c30 -1 30 -47 0 -47h-58c-25 -55 -50 -111 -75 -166c-60 -134 -119 -269 -178 -403c-29 -67 -59 -134 -88 -202h46c30 0 30 -46 0 -46c-26 0 -52 -1 -79 0c-18 1 -29 18 -22 35c13 31 27 62 40 93c54 123 108 247 162 370c53 118 104 236 159 353
c3 8 13 13 21 13h72z" />
    <glyph glyph-name="bracketright" unicode="]" horiz-adv-x="450" 
d="M459 773c12 -7 13 -20 8 -32c-13 -30 -26 -60 -39 -91c-52 -121 -104 -242 -157 -363c-51 -119 -104 -237 -155 -356c-3 -6 -10 -12 -21 -12h-72c-30 0 -30 47 0 46h57l75 171c58 132 115 265 173 398c28 65 56 131 84 196h-53c-30 0 -30 47 0 47c29 0 57 -1 86 -1
c3 0 10 0 14 -3z" />
    <glyph glyph-name="slash" unicode="/" horiz-adv-x="397" 
d="M236 417l158 353c13 28 53 4 40 -23c-27 -59 -53 -118 -80 -177c-60 -134 -119 -269 -178 -403c-34 -79 -69 -158 -103 -236c-5 -12 -22 -15 -32 -9c-11 7 -13 20 -8 32c14 31 27 62 41 93c53 123 107 247 162 370z" />
    <glyph glyph-name="backslash" unicode="\" horiz-adv-x="494" 
d="M306 305l126 -356c11 -28 -34 -40 -44 -12c-23 59 -44 120 -65 180c-47 133 -94 267 -140 401l-81 234c-10 29 35 41 45 13c11 -31 21 -62 32 -93c42 -122 84 -245 127 -367z" />
    <glyph glyph-name="ampersand" unicode="&#x26;" horiz-adv-x="683" 
d="M633 397c18 -39 9 -89 -25 -118c-31 -26 -70 -28 -108 -22c30 -61 17 -144 -20 -197c-55 -80 -150 -110 -242 -89c-86 20 -144 91 -155 177c-12 85 23 177 86 236c33 31 73 52 116 61c-15 15 -27 33 -35 54c-46 112 37 256 165 251c75 -3 137 -71 130 -148
c-8 -72 -69 -124 -141 -114c-13 2 -20 18 -16 29c3 13 16 18 28 16c57 -8 94 56 79 106c-16 56 -76 77 -127 56c-39 -15 -68 -49 -79 -88c-10 -36 -7 -76 12 -109c14 -23 35 -39 59 -49c17 -2 34 -6 51 -12c23 -8 22 -48 -6 -46c-18 2 -36 6 -52 11c-63 7 -124 -18 -168 -68
c-45 -51 -68 -126 -54 -194c15 -71 67 -118 140 -127c71 -10 142 21 178 85c29 51 35 140 -23 174c-2 1 -3 1 -4 2c-12 2 -24 2 -36 -1c-39 -9 -57 -48 -44 -85c10 -28 -35 -40 -45 -12c-15 43 -1 94 35 122c31 24 68 26 105 20c33 -5 66 -19 99 -18c34 1 65 26 60 62
c-5 34 -33 40 -62 32s-41 37 -12 45c43 12 91 2 111 -42z" />
    <glyph glyph-name="numbersign" unicode="#" horiz-adv-x="738" 
d="M665 421c30 0 30 -46 0 -46c-45 0 -91 1 -136 1c-16 -38 -33 -75 -49 -113c-6 -13 -12 -26 -18 -40c50 0 100 -1 150 -1c30 0 30 -47 0 -46h-139c-10 0 -21 1 -31 1c-8 -19 -79 -183 -77 -177c-4 -12 -15 -20 -28 -16c-11 3 -21 17 -16 28c20 48 41 96 62 144l9 21
c-48 0 -96 1 -143 1c-7 -16 -78 -180 -78 -179c-5 -11 -15 -20 -28 -16c-11 3 -21 17 -16 29c21 51 43 102 65 152c2 5 4 10 6 14c-42 0 -83 0 -125 -1c-30 -1 -30 46 0 46c19 1 39 1 59 1h86c22 51 44 102 67 153c-51 1 -102 0 -153 -1c-30 0 -30 46 0 47h59h113
c27 61 53 122 80 183c5 12 22 15 32 9c11 -7 13 -21 8 -32c-8 -18 -16 -37 -24 -55l-45 -105c48 0 96 0 144 -1c27 62 53 123 80 184c5 12 22 15 32 9c12 -7 13 -21 8 -32l-24 -57c-16 -34 -31 -69 -46 -104c39 0 78 0 116 -1zM268 224c48 0 96 0 144 -1
c22 51 44 102 67 153c-48 0 -96 1 -144 1c-16 -36 -31 -72 -47 -108c-6 -15 -13 -30 -20 -45z" />
    <glyph glyph-name="germandbls" unicode="&#xdf;" horiz-adv-x="477" 
d="M394 373c33 -45 37 -100 29 -154c-9 -60 -36 -116 -76 -162c-45 -51 -103 -84 -172 -85c-60 -1 -119 34 -136 94c-8 29 37 41 45 12c16 -56 80 -66 129 -54c99 24 160 132 167 227c3 39 -6 77 -33 107c-29 32 -71 45 -114 45c-31 0 -30 45 0 47c57 4 106 44 130 95
c19 40 27 112 -32 121c-51 9 -91 -43 -116 -80c-27 -41 -49 -86 -69 -132c-44 -102 -77 -208 -115 -312c-35 -97 -72 -205 -145 -280c-38 -39 -87 -66 -142 -67c-52 -1 -103 21 -130 66c-16 26 25 49 40 24c28 -47 94 -53 140 -33c63 27 101 93 131 151
c47 94 77 197 112 295c37 104 74 211 133 304c30 48 73 100 132 110c51 8 101 -19 117 -69c18 -56 -9 -122 -44 -165c-15 -19 -34 -34 -54 -46c29 -13 54 -32 73 -59z" />
    <glyph glyph-name="copyright" unicode="&#xa9;" horiz-adv-x="779" 
d="M748 482c3 -140 -50 -280 -140 -387c-52 -61 -120 -113 -200 -132c-72 -17 -155 -5 -215 40c-147 108 -129 318 -66 467c63 152 195 282 369 283c18 0 37 -2 55 -5c61 -10 115 -43 150 -95c33 -50 45 -112 47 -171zM618 188c61 96 93 215 81 330c-6 48 -22 98 -56 133
c-38 40 -92 55 -147 55c-19 0 -36 -1 -54 -4c-149 -29 -249 -164 -292 -302c-22 -73 -34 -152 -15 -226c18 -70 62 -134 132 -159c146 -51 277 56 351 173zM473 589c35 2 66 -13 84 -44c20 -35 17 -79 3 -116c-5 -11 -16 -20 -29 -16c-11 3 -21 17 -16 28c11 28 18 67 -6 91
c-17 17 -46 12 -66 3c-50 -22 -84 -76 -108 -123c-25 -49 -44 -106 -38 -162c5 -44 34 -85 82 -84c53 2 102 46 123 92c5 12 22 14 31 9c12 -7 14 -21 9 -32c-30 -68 -112 -128 -189 -112c-69 14 -102 77 -103 143c-2 71 26 143 63 203c35 56 89 118 160 120z" />
    <glyph glyph-name="registered" unicode="&#xae;" horiz-adv-x="779" 
d="M582 231c10 -6 16 -22 9 -32c-25 -33 -57 -64 -99 -71c-36 -6 -72 3 -95 32c-21 25 -30 57 -35 89c-3 15 -5 31 -8 46c-1 4 -1 10 -3 15c-7 3 -13 7 -20 11c-10 8 -15 20 -8 32c15 26 39 15 56 -3c32 -7 70 9 94 29c31 25 57 65 52 106c-3 27 -26 46 -51 49
c-30 2 -61 -15 -83 -34c-25 -23 -45 -50 -61 -79c-41 -88 -82 -177 -120 -266c-5 -11 -22 -14 -32 -8c-12 7 -13 20 -8 32c34 78 162 356 183 401c12 26 51 4 41 -22c35 21 78 30 117 13c42 -19 65 -61 60 -107c-5 -57 -43 -108 -92 -138c-23 -13 -51 -23 -79 -24
c4 -24 7 -49 14 -73c7 -25 19 -51 47 -56c37 -6 68 22 89 49c8 10 20 16 32 9zM748 482c3 -140 -50 -280 -140 -387c-52 -61 -120 -113 -200 -132c-72 -17 -155 -5 -215 40c-147 108 -129 318 -66 467c64 152 195 282 369 283c18 0 37 -2 55 -5c61 -10 115 -43 150 -95
c33 -50 45 -112 47 -171zM618 188c61 96 94 215 81 330c-6 48 -22 98 -55 133c-39 40 -93 55 -148 55c-18 0 -36 -1 -54 -4c-149 -29 -249 -164 -292 -302c-22 -73 -34 -152 -15 -226c18 -70 62 -134 133 -159c145 -51 276 56 350 173z" />
    <glyph glyph-name="section" unicode="&#xa7;" horiz-adv-x="574" 
d="M586 729c38 -71 11 -152 -51 -198c-10 -7 -26 -2 -32 8c-7 12 -2 25 8 32c30 22 48 55 46 92c-1 29 -15 58 -40 73c-52 32 -121 0 -137 -56c-26 -90 42 -173 75 -251c28 -66 39 -146 14 -215c-21 -60 -66 -103 -124 -124c12 -45 13 -94 -6 -137
c-38 -86 -148 -124 -231 -83c-40 19 -69 56 -81 97c-13 42 -6 85 12 124c20 43 59 76 107 78c53 1 97 -40 91 -94c-1 -13 -9 -23 -23 -23c-12 0 -25 10 -23 23c2 20 -5 39 -26 45c-19 6 -40 1 -55 -11c-30 -23 -46 -68 -43 -105c2 -32 19 -64 45 -83c33 -24 75 -26 113 -13
c31 10 58 33 71 63c18 40 12 86 -2 126c-18 50 -52 92 -67 144c-12 43 -16 89 -10 133c12 78 62 138 133 166c-1 3 -3 6 -4 9c-31 79 -26 185 58 229c64 33 146 16 182 -49zM436 299c0 40 -9 80 -25 117c-12 28 -27 55 -41 82c-41 -15 -75 -43 -93 -84
c-21 -46 -20 -100 -8 -148c11 -48 40 -88 60 -133c30 11 58 30 77 57c22 32 30 70 30 109z" />
    <glyph glyph-name="braceleft" unicode="{" horiz-adv-x="392" 
d="M474 836c13 -2 20 -18 17 -28c-4 -14 -16 -18 -29 -17c-14 2 -27 -15 -33 -24c-11 -16 -19 -35 -27 -52c-17 -39 -31 -80 -49 -118c-27 -59 -66 -114 -122 -145c14 -42 17 -86 11 -131c-7 -48 -25 -94 -47 -137c-17 -34 -38 -65 -56 -99c-15 -29 -28 -60 -37 -92
c-3 -13 -7 -29 -5 -44c3 -12 11 -13 23 -13c30 0 30 -46 0 -47c-23 0 -46 7 -59 27c-10 16 -12 37 -10 55c8 73 49 137 84 200c47 82 89 187 46 280c-7 15 -1 29 14 35c72 29 109 108 136 176c16 40 31 83 53 120c20 34 50 60 90 54z" />
    <glyph glyph-name="braceright" unicode="}" horiz-adv-x="437" 
d="M461 621c-14 -37 -29 -74 -39 -112c-6 -28 -11 -60 6 -83c8 -11 0 -32 -14 -34c-44 -6 -78 -36 -103 -71c-55 -75 -72 -169 -97 -256c-19 -65 -50 -188 -140 -178c-13 1 -24 9 -24 23c0 11 11 24 24 23c40 -4 59 41 72 73c35 93 49 194 92 284c27 57 73 118 136 140
c-17 53 11 121 28 168c13 35 28 70 39 106c6 21 22 65 -8 72c-29 8 -17 53 12 45c91 -23 37 -144 16 -200z" />
    <glyph glyph-name="guilsinglleft" unicode="&#x2039;" horiz-adv-x="485" 
d="M432 505c5 -10 3 -27 -9 -32c-91 -39 -183 -79 -276 -117c68 -58 137 -114 203 -172c23 -20 -10 -52 -32 -33c-76 66 -155 129 -230 195c-15 13 -5 33 10 39c101 42 202 85 302 128c11 5 25 4 32 -8z" />
    <glyph glyph-name="guilsinglright" unicode="&#x203a;" horiz-adv-x="505" 
d="M448 315c14 -13 4 -33 -11 -39c-101 -42 -201 -85 -302 -129c-11 -4 -25 -3 -32 9c-5 10 -3 27 9 32c92 39 184 79 276 117c-67 58 -136 114 -203 172c-23 20 10 52 33 33c76 -66 154 -129 230 -195z" />
    <glyph glyph-name="plus" unicode="+" horiz-adv-x="468" 
d="M395 408c30 1 30 -46 0 -46c-39 -1 -77 -1 -116 -1c-13 -42 -27 -84 -41 -125c-10 -29 -54 -16 -45 12c13 38 25 75 37 113c-35 0 -71 1 -107 1c-30 0 -30 46 0 46h122c13 40 26 81 38 122c9 29 54 17 45 -12c-11 -37 -23 -74 -34 -110c33 -1 67 0 101 0z" />
    <glyph glyph-name="hyphen" unicode="-" horiz-adv-x="434" 
d="M361 352h-208c-30 0 -30 46 0 46c69 0 139 -1 208 0c30 1 30 -46 0 -46z" />
    <glyph glyph-name="endash" unicode="&#x2013;" horiz-adv-x="500" 
d="M417 362h-274c-30 0 -30 46 0 46c69 0 205 -1 274 0c30 1 30 -46 0 -46z" />
    <glyph glyph-name="emdash" unicode="&#x2014;" horiz-adv-x="530" 
d="M447 362h-304c-30 0 -30 46 0 46c69 0 235 -1 304 0c30 1 30 -46 0 -46z" />
    <glyph glyph-name="divide" unicode="&#xf7;" horiz-adv-x="424" 
d="M351 362h-208c-30 0 -30 46 0 46c69 0 139 -1 208 0c30 1 30 -46 0 -46zM317 494c4 -16 -1 -34 -15 -44c-16 -12 -39 -4 -45 15c-5 14 0 30 11 42c7 7 16 8 24 8c12 0 22 -10 25 -21zM242 306c4 -16 -2 -34 -15 -44c-16 -12 -40 -4 -46 15c-4 14 0 30 12 42
c7 7 16 8 24 8c12 0 22 -10 25 -21z" />
    <glyph glyph-name="multiply" unicode="&#xd7;" horiz-adv-x="349" 
d="M315 485c7 -12 2 -24 -8 -32c-19 -14 -37 -28 -55 -42c12 -15 23 -30 35 -45c8 -9 10 -23 0 -33c-8 -8 -24 -9 -32 0c-14 17 -27 34 -40 50c-20 -15 -40 -30 -60 -46c-10 -7 -26 -1 -32 9c-6 12 -1 24 9 32c18 14 36 27 55 41c-13 17 -26 33 -39 49c-8 10 -10 23 0 33
c8 8 25 10 33 0l42 -54c20 16 40 31 60 46c10 8 27 2 32 -8z" />
    <glyph glyph-name="equal" unicode="=" horiz-adv-x="489" 
d="M386 377h-235c-30 0 -30 47 0 47c79 0 157 -2 235 0c30 0 30 -46 0 -47zM358 268h-235c-30 0 -29 46 0 46c79 0 157 -1 235 0c30 1 30 -46 0 -46z" />
    <glyph glyph-name="plusminus" unicode="&#xb1;" horiz-adv-x="509" 
d="M437 427c29 0 29 -46 0 -47h-116c-14 -42 -27 -84 -41 -126c-10 -28 -55 -16 -45 13c12 37 25 75 37 113h-107c-30 0 -30 47 0 47c40 0 81 -1 122 -1c13 41 25 82 38 123c8 28 53 16 45 -13c-12 -36 -23 -73 -35 -110c34 0 68 0 102 1zM386 206c30 1 30 -46 0 -46
c-88 -2 -176 0 -263 0c-30 0 -30 46 0 46c87 0 175 -1 263 0z" />
    <glyph glyph-name="underscore" unicode="_" horiz-adv-x="406" 
d="M313 -63h-320c-30 0 -30 47 0 47c106 0 213 -2 320 0c30 0 30 -46 0 -47z" />
    <glyph glyph-name="guillemotleft" unicode="&#xab;" horiz-adv-x="411" 
d="M326 438c25 16 48 -24 24 -41c-33 -22 -66 -46 -98 -69c23 -21 46 -42 68 -63s-11 -54 -32 -33c-29 28 -60 53 -89 81c-11 12 -7 28 5 37c40 29 81 59 122 88zM140 330c23 -21 46 -41 68 -63c22 -21 -11 -54 -32 -33c-29 28 -60 54 -89 82c-12 11 -7 28 5 36
c40 30 81 60 122 88c25 17 48 -23 24 -40c-33 -23 -66 -46 -98 -70z" />
    <glyph glyph-name="guillemotright" unicode="&#xbb;" horiz-adv-x="431" 
d="M262 355c11 -11 7 -28 -5 -36c-40 -30 -81 -60 -122 -88c-25 -17 -48 23 -24 40c33 22 66 46 98 70c-23 21 -46 41 -68 62s11 54 32 33c29 -28 60 -53 89 -81zM374 353c12 -12 7 -28 -5 -37c-40 -29 -81 -59 -122 -88c-25 -17 -48 24 -24 40c33 23 66 47 98 70
c-23 21 -46 41 -68 63c-22 21 11 54 32 33c29 -28 60 -54 89 -81z" />
    <glyph glyph-name="eth" unicode="&#xf0;" horiz-adv-x="464" 
d="M550 667c7 -11 2 -24 -8 -32c-31 -22 -61 -44 -91 -66c5 -22 8 -45 9 -65c6 -76 -12 -152 -34 -224c-20 -60 -45 -121 -83 -172c-34 -46 -77 -86 -131 -106c-65 -26 -141 -14 -183 45c-41 57 -32 135 -7 196c28 67 80 133 148 161c52 22 114 13 144 -39
c35 -59 9 -136 -27 -188c-17 -25 -57 -2 -40 23c27 39 61 116 16 155c-37 32 -90 5 -123 -24c-47 -42 -84 -103 -92 -166c-5 -48 8 -102 57 -123c52 -22 113 7 151 40c33 28 58 63 79 101c29 53 48 110 62 169s24 119 14 181c-1 2 -1 3 -1 5c-31 -22 -61 -45 -91 -68
c-10 -8 -26 -2 -32 8c-7 12 -2 24 8 32c34 26 68 51 102 76c-11 29 -29 55 -58 66c-52 21 -107 -2 -144 -41c-20 -22 -53 11 -33 33c52 56 135 81 206 46c32 -16 53 -43 67 -75c28 20 55 40 83 61c10 7 26 1 32 -9z" />
    <glyph glyph-name="paragraph" unicode="&#xb6;" horiz-adv-x="571" 
d="M598 732c14 -2 27 -19 21 -34c-23 -55 -45 -110 -68 -165c-72 -178 -143 -356 -212 -534c-5 -11 -22 -15 -31 -9c-12 6 -15 19 -10 30c10 27 21 53 31 79c77 197 155 394 236 591c-23 2 -47 3 -71 3c-23 -55 -46 -110 -68 -164c-74 -179 -148 -355 -218 -535
c-5 -11 -22 -15 -32 -9c-11 6 -14 19 -9 30c10 27 21 53 31 78c34 85 68 168 102 251c-54 -2 -110 13 -151 51c-46 42 -58 106 -42 164c18 60 54 107 111 134c56 28 118 39 180 44c67 6 134 2 200 -5z" />
    <glyph glyph-name="asterisk" unicode="*" horiz-adv-x="332" 
d="M309 652c30 -1 30 -47 0 -47h-40c8 -11 15 -23 23 -34c17 -25 -23 -48 -40 -24c-9 13 -17 26 -26 39c-8 -13 -17 -26 -26 -39c-17 -24 -57 -1 -40 24c8 11 15 22 23 34c-13 -1 -27 -1 -40 0c-30 0 -30 47 0 46h40c-7 12 -15 23 -23 35c-17 24 23 47 40 23
c9 -13 18 -26 26 -38c9 12 17 25 26 38c17 24 57 1 40 -23c-8 -12 -15 -23 -23 -34h40z" />
    <glyph glyph-name="quotesingle" unicode="'" horiz-adv-x="218" 
d="M154 599l51 112c12 27 52 4 40 -23c-22 -47 -30 -66 -51 -113c-5 -11 -22 -14 -32 -8c-12 7 -14 20 -8 32z" />
    <glyph glyph-name="quotedbl" unicode="&#x22;" horiz-adv-x="336" 
d="M154 599l51 112c12 27 52 4 40 -23c-22 -47 -30 -66 -51 -113c-5 -11 -22 -14 -32 -8c-12 7 -14 20 -8 32zM242 599l51 112c12 27 52 4 40 -23c-22 -47 -30 -66 -51 -113c-5 -11 -22 -14 -32 -8c-12 7 -14 20 -8 32z" />
    <glyph glyph-name="ae" unicode="&#xe6;" horiz-adv-x="576" 
d="M573 199c13 27 53 3 40 -23c-28 -54 -67 -101 -115 -137c-38 -27 -86 -49 -134 -45c-43 4 -82 25 -103 63c-9 15 -14 31 -17 48c-39 -66 -100 -133 -178 -118c-1 1 -5 2 -7 2c-88 27 -82 130 -60 203c13 45 32 89 55 130c19 36 43 71 73 98c33 31 78 52 124 40
c30 -9 52 -31 64 -60c1 -5 2 -9 4 -13c9 20 18 41 27 61c5 11 22 14 32 8c6 -3 10 -9 11 -15c34 23 78 33 117 14c48 -22 54 -78 36 -122c-37 -95 -148 -147 -245 -117c-6 -24 -10 -49 -10 -74c0 -30 7 -62 31 -83c23 -19 56 -22 84 -15c77 18 136 88 171 155zM506 378
c1 32 -29 46 -59 39c-33 -7 -59 -34 -79 -60c-14 -19 -27 -39 -39 -61c-5 -12 -10 -24 -16 -36c45 -13 89 -6 128 20c32 21 63 58 65 98zM175 87c30 36 52 79 69 123c14 35 26 73 31 111c3 23 3 52 -8 72c-10 17 -29 26 -52 24c-34 -4 -62 -33 -82 -58
c-45 -56 -77 -128 -94 -196c-11 -45 -21 -115 36 -130c41 -9 76 25 100 54z" />
    <glyph glyph-name="quotesinglbase" unicode="&#x201a;" horiz-adv-x="180" 
d="M100 27c-1 -18 -6 -31 -12 -44c-10 -21 -25 -42 -45 -55c-17 -12 -32 15 -16 26c13 9 22 22 29 35c-9 3 -16 10 -19 19c-5 14 0 30 12 42c7 7 15 8 24 8c12 0 27 -12 27 -31z" />
    <glyph glyph-name="quotedblbase" unicode="&#x201e;" horiz-adv-x="270" 
d="M100 27c-1 -18 -6 -31 -12 -44c-10 -21 -25 -42 -45 -55c-17 -12 -32 15 -16 26c13 9 22 22 29 35c-9 3 -16 10 -19 19c-5 14 0 30 12 42c7 7 15 8 24 8c12 0 27 -12 27 -31zM190 27c-1 -18 -6 -31 -12 -44c-10 -21 -25 -42 -45 -55c-17 -12 -32 15 -16 26
c13 9 22 22 29 35c-9 3 -16 10 -19 19c-5 14 0 30 12 42c7 7 15 8 24 8c12 0 27 -12 27 -31z" />
    <glyph glyph-name="quotedblright" unicode="&#x201d;" horiz-adv-x="270" 
d="M200 664c-1 -18 -6 -31 -12 -44c-10 -21 -25 -42 -45 -55c-17 -12 -32 15 -16 26c13 9 22 22 29 35c-9 3 -16 10 -19 19c-5 14 0 30 12 42c7 7 15 8 24 8c12 0 27 -12 27 -31zM290 664c-1 -18 -6 -31 -12 -44c-10 -21 -25 -42 -45 -55c-17 -12 -32 15 -16 26
c13 9 22 22 29 35c-9 3 -16 10 -19 19c-5 14 0 30 12 42c7 7 15 8 24 8c12 0 27 -12 27 -31z" />
    <glyph glyph-name="quotedblleft" unicode="&#x201c;" horiz-adv-x="270" 
d="M210 604c1 18 6 31 12 44c10 21 25 42 45 55c17 12 32 -15 16 -26c-13 -9 -22 -22 -29 -35c9 -3 16 -10 19 -19c5 -14 0 -30 -12 -42c-7 -7 -15 -8 -24 -8c-12 0 -27 12 -27 31zM120 604c1 18 6 31 12 44c10 21 25 42 45 55c17 12 32 -15 16 -26c-13 -9 -22 -22 -29 -35
c9 -3 16 -10 19 -19c5 -14 0 -30 -12 -42c-7 -7 -15 -8 -24 -8c-12 0 -27 12 -27 31z" />
    <glyph glyph-name="quoteleft" unicode="&#x2018;" horiz-adv-x="180" 
d="M120 604c1 18 6 31 12 44c10 21 25 42 45 55c17 12 32 -15 16 -26c-13 -9 -22 -22 -29 -35c9 -3 16 -10 19 -19c5 -14 0 -30 -12 -42c-7 -7 -15 -8 -24 -8c-12 0 -27 12 -27 31z" />
    <glyph glyph-name="quoteright" unicode="&#x2019;" horiz-adv-x="180" 
d="M200 664c-1 -18 -6 -31 -12 -44c-10 -21 -25 -42 -45 -55c-17 -12 -32 15 -16 26c13 9 22 22 29 35c-9 3 -16 10 -19 19c-5 14 0 30 12 42c7 7 15 8 24 8c12 0 27 -12 27 -31z" />
    <glyph glyph-name="oe" unicode="&#x153;" horiz-adv-x="612" 
d="M614 199c13 27 53 3 40 -23c-28 -54 -66 -102 -115 -137c-38 -28 -86 -49 -134 -45c-42 4 -81 25 -103 63c-22 41 -23 89 -16 134h1c-9 -20 -18 -40 -28 -59c-36 -69 -102 -162 -192 -145c-1 0 -6 2 -7 2c-101 30 -80 155 -51 231c28 77 68 163 135 213
c32 25 75 38 114 23c33 -12 54 -40 61 -73c7 -31 4 -64 -3 -95c6 13 13 26 19 38c23 42 52 82 90 111c35 25 82 37 123 18c47 -22 53 -79 36 -123c-38 -95 -149 -147 -245 -116c-7 -25 -11 -49 -10 -74c0 -30 7 -63 31 -83c23 -19 55 -22 84 -15c76 18 135 87 170 155z
M271 295c5 27 9 58 1 85c-7 22 -25 36 -48 36c-33 1 -61 -23 -81 -46c-45 -50 -76 -118 -97 -182c-15 -48 -37 -137 30 -155c36 -8 69 20 91 45c29 31 50 70 67 108c16 35 29 72 37 109zM410 356c-22 -28 -42 -61 -56 -96c44 -14 89 -7 128 19c32 21 64 58 65 98
c1 32 -29 46 -58 39c-33 -7 -59 -34 -79 -60z" />
    <glyph glyph-name="oslash" unicode="&#xf8;" horiz-adv-x="422" 
d="M313 387c10 -39 4 -81 -6 -120c-12 -46 -30 -93 -53 -135c-35 -68 -99 -158 -186 -146c-10 -22 -19 -44 -29 -66c-5 -12 -22 -14 -32 -9c-11 7 -13 21 -8 32l27 60c-65 43 -48 145 -24 212c27 78 68 165 135 217c28 21 64 36 99 29c10 22 20 44 31 65c12 27 52 4 40 -23
c-10 -20 -19 -41 -28 -61c17 -13 29 -33 34 -55zM39 181c-11 -39 -26 -104 7 -135c56 124 113 247 170 370c-33 -1 -60 -26 -80 -49c-46 -52 -77 -121 -97 -186zM266 296c6 28 10 62 -1 89c-1 5 -4 9 -7 13c-7 -15 -13 -29 -20 -44c-50 -107 -101 -215 -149 -323
c29 3 55 26 74 47c29 32 50 71 67 110c16 35 28 71 36 108zM418 192c15 26 55 2 40 -24c-39 -70 -134 -226 -231 -150c-10 7 -8 25 0 32c10 10 23 8 33 0c27 -21 60 10 79 30c32 32 57 72 79 112z" />
    <glyph glyph-name="lslash" unicode="&#x142;" horiz-adv-x="218" 
d="M82 272c-24 -55 -55 -115 -57 -176c-1 -19 2 -39 18 -51c18 -13 38 -7 55 4c51 32 84 94 113 145c14 26 55 2 40 -24c-21 -37 -44 -73 -71 -106c-22 -28 -49 -54 -82 -67c-58 -22 -112 20 -119 78c-3 32 5 66 14 96c11 37 26 72 41 107c10 24 20 48 31 72
c-27 -10 -54 -21 -80 -31c-12 -5 -26 5 -29 16c-3 13 5 24 16 28c40 16 79 31 119 47c37 87 76 173 116 259c13 27 53 4 40 -23c-30 -65 -59 -130 -88 -195c-2 -6 -5 -12 -7 -17c28 11 57 22 86 33c12 5 25 -5 28 -16c4 -13 -4 -24 -16 -28c-41 -17 -83 -33 -125 -49
c-14 -34 -29 -68 -43 -102z" />
    <glyph glyph-name="asciicircum" unicode="^" horiz-adv-x="369" 
d="M386 579c14 -26 -26 -49 -41 -23c-21 37 -44 75 -69 111c-41 -29 -80 -61 -121 -91c-10 -7 -26 -1 -31 9c-7 11 -2 24 8 31c46 34 91 72 139 103c11 7 25 2 32 -8c29 -43 57 -87 83 -132z" />
    <glyph glyph-name="asciitilde" unicode="~" horiz-adv-x="525" 
d="M399 389c7 29 51 17 45 -12c-7 -30 -25 -62 -50 -80c-28 -19 -69 -13 -96 6c-15 11 -28 24 -40 38c-10 10 -19 23 -32 29c-29 13 -52 -25 -60 -47c-9 -28 -53 -16 -44 12c11 35 32 67 68 79c33 11 62 -1 85 -24c21 -20 43 -58 76 -58c28 0 43 33 48 57z" />
    <glyph glyph-name="approxequal" unicode="&#x2248;" horiz-adv-x="429" 
d="M333 256c7 29 51 17 45 -12c-7 -30 -25 -62 -50 -80c-28 -19 -69 -13 -96 6c-15 11 -28 24 -40 38c-10 10 -19 23 -32 29c-29 13 -52 -25 -60 -47c-9 -28 -53 -16 -44 12c11 35 32 67 68 79c33 11 62 -1 85 -24c21 -20 43 -58 76 -58c28 0 43 33 48 57zM329 389
c7 29 51 17 45 -12c-7 -30 -25 -62 -50 -80c-28 -19 -69 -13 -96 6c-15 11 -28 24 -40 38c-10 10 -19 23 -32 29c-29 13 -52 -25 -60 -47c-9 -28 -53 -16 -44 12c11 35 32 67 68 79c33 11 62 -1 85 -24c21 -20 43 -58 76 -58c28 0 43 33 48 57z" />
    <glyph glyph-name="grave" unicode="`" horiz-adv-x="217" 
d="M160 709l52 -80c6 -11 6 -24 -5 -33c-8 -7 -25 -6 -32 4c-17 27 -33 54 -51 81c-16 25 21 53 36 28z" />
    <glyph glyph-name="acute" unicode="&#xb4;" horiz-adv-x="214" 
d="M138 642l70 65c21 20 50 -15 28 -36c-23 -22 -45 -44 -69 -66c-9 -8 -25 -6 -32 3c-8 12 -5 24 3 34z" />
    <glyph glyph-name="circumflex" unicode="&#x2c6;" horiz-adv-x="292" 
d="M310 616c9 -27 -33 -47 -43 -18c-7 21 -15 42 -23 63c-24 -14 -47 -27 -72 -40c-26 -16 -45 28 -19 42c31 17 62 35 93 52c11 6 26 0 32 -12c11 -28 22 -57 32 -87z" />
    <glyph glyph-name="tilde" unicode="&#x2dc;" horiz-adv-x="343" 
d="M184 637c-14 -29 -54 -6 -41 21c10 21 29 38 52 42c21 4 38 -3 54 -15c13 -10 25 -24 39 -32c17 -9 32 0 38 17c10 28 54 16 45 -13c-8 -22 -21 -41 -44 -49c-21 -8 -47 -5 -66 7c-15 10 -26 24 -41 34c-16 11 -28 5 -36 -12z" />
    <glyph glyph-name="dieresis" unicode="&#xa8;" horiz-adv-x="260" 
d="M193 650c3 -16 -2 -34 -15 -44c-17 -11 -40 -3 -46 16c-4 13 0 29 12 41c7 7 15 8 24 8c12 0 22 -9 25 -21zM299 650c3 -16 -2 -34 -15 -44c-17 -11 -40 -3 -46 16c-4 13 0 29 12 41c7 7 16 8 24 8c12 0 22 -9 25 -21z" />
    <glyph glyph-name="ring" unicode="&#x2da;" horiz-adv-x="240" 
d="M269 681c4 -42 -28 -79 -70 -81s-76 27 -79 69v6c3 41 33 72 75 73c40 0 71 -27 74 -67zM199 641c21 2 33 20 30 40c-2 19 -16 26 -34 26c-21 0 -34 -14 -35 -35c0 -24 19 -34 39 -31z" />
    <glyph glyph-name="breve" unicode="&#x2d8;" horiz-adv-x="286" 
d="M141 673c-4 32 43 38 44 8c2 -22 20 -38 41 -43c27 -6 53 5 65 30s56 8 42 -20c-20 -42 -65 -65 -113 -57c-40 9 -76 38 -79 82z" />
    <glyph glyph-name="macron" unicode="&#xaf;" horiz-adv-x="302" 
d="M309 618h-136c-30 0 -30 46 0 46h136c30 0 30 -46 0 -46z" />
    <glyph glyph-name="ogonek" unicode="&#x2db;" horiz-adv-x="158" 
d="M78 -121c31 -1 31 -47 1 -46c-45 1 -79 34 -79 79c0 47 35 87 79 99c29 8 40 -35 12 -44c-22 -7 -43 -27 -45 -51c-1 -21 11 -36 32 -37z" />
    <glyph glyph-name="cedilla" unicode="&#xb8;" horiz-adv-x="258" 
d="M196 -97c16 -25 15 -59 1 -84c-30 -55 -116 -50 -144 2c-14 27 26 50 40 24c12 -22 50 -27 64 -3c6 11 6 27 -1 38c-9 14 -27 18 -44 19c-18 1 -28 19 -20 35c10 19 19 39 27 58c5 12 16 20 29 17c11 -4 21 -17 16 -29c-6 -14 -12 -27 -18 -40c20 -7 38 -18 50 -37z" />
    <glyph glyph-name="afii61352" unicode="&#x2116;" horiz-adv-x="1014" 
d="M694 194c16 25 56 2 40 -23c-30 -50 -62 -105 -107 -143c-39 -33 -92 -50 -138 -20c-77 50 -26 165 0 229c25 58 52 115 77 173c21 49 45 102 44 156c0 31 -10 57 -37 68c-30 12 -63 4 -89 -17c-58 -47 -94 -137 -118 -191s-129 -286 -187 -421c-5 -11 -22 -14 -32 -8
c-11 7 -13 20 -8 32c57 131 121 259 176 392c29 70 50 162 11 233c-38 68 -135 82 -201 48c-60 -30 -99 -109 -87 -176c9 -47 42 -82 91 -85c44 -2 87 21 107 61c14 27 54 3 41 -23c-29 -56 -93 -90 -155 -84c-67 7 -118 56 -129 123c-14 85 30 185 109 225
c85 42 205 27 259 -57c20 -32 30 -67 32 -104c21 32 45 61 77 82c64 42 161 21 182 -58c12 -46 1 -96 -14 -140c-21 -61 -50 -119 -76 -178c-22 -49 -45 -98 -59 -151c-5 -18 -8 -36 -7 -55c0 -12 4 -22 12 -30c28 -26 68 -8 94 15c38 36 65 83 92 127zM1041 472
c30 0 30 -46 0 -47c-90 -1 -181 0 -271 0c-30 0 -30 47 0 47c90 0 181 -2 271 0zM993 741c40 -25 51 -73 39 -116s-46 -77 -89 -89c-45 -13 -97 2 -120 45c-23 44 -9 94 22 131l4 4c37 39 95 55 144 25zM973 611c17 22 27 61 5 83c-30 31 -72 13 -97 -13
c-23 -26 -35 -73 -1 -95c30 -19 72 -2 93 25z" />
    <glyph glyph-name="caron" unicode="&#x2c7;" horiz-adv-x="245" 
d="M123 674c-12 26 28 50 40 23l30 -60c23 16 45 32 67 48c25 18 48 -23 24 -40c-29 -20 -58 -42 -87 -62c-10 -7 -26 -2 -32 8c-15 27 -29 55 -42 83z" />
    <glyph glyph-name="hungarumlaut" unicode="&#x2dd;" horiz-adv-x="279" 
d="M145 629l52 80c15 25 52 -3 36 -28c-18 -27 -34 -54 -51 -81c-7 -10 -24 -11 -32 -4c-11 9 -11 22 -5 33zM237 629l52 80c15 25 52 -3 36 -28c-18 -27 -34 -54 -51 -81c-7 -10 -24 -11 -32 -4c-11 9 -11 22 -5 33z" />
    <glyph glyph-name="dotaccent" unicode="&#x2d9;" horiz-adv-x="164" 
d="M183 640c3 -16 -2 -34 -15 -44c-17 -11 -40 -3 -46 16c-4 13 0 29 12 41c7 7 15 8 24 8c12 0 22 -9 25 -21z" />
    <glyph glyph-name="commaaccent" unicode="&#xf6c3;" horiz-adv-x="280" 
d="M180 227c-1 -18 -6 -31 -12 -44c-10 -21 -25 -42 -45 -55c-17 -12 -32 15 -16 26c13 9 22 22 29 35c-9 3 -16 10 -19 19c-5 14 0 30 12 42c7 7 15 8 24 8c12 0 27 -12 27 -31z" />
    <glyph glyph-name="Aacute" unicode="&#xc1;" horiz-adv-x="815" 
d="M807 192c14 27 55 3 40 -23c-33 -59 -72 -125 -130 -162c-43 -28 -100 -22 -129 23c-30 48 -10 114 7 162c16 46 36 91 56 136c-47 -19 -100 -11 -143 16c-10 -20 -19 -41 -29 -61c-31 -65 -62 -132 -104 -192c-35 -50 -78 -98 -137 -119c-55 -20 -127 -11 -176 24
c-90 65 -90 201 -25 284c47 59 132 92 201 52c49 -28 76 -96 43 -147c-16 -25 -56 -1 -40 24c11 17 10 41 -3 62c-17 24 -50 36 -79 32c-64 -9 -107 -68 -119 -127c-8 -42 -1 -90 28 -123c32 -38 90 -52 138 -42c53 11 93 53 123 95c40 56 70 117 99 178c14 29 27 58 41 86
c-10 6 -21 10 -33 12c-14 1 -31 1 -44 -5c-16 -9 -29 -26 -34 -44c-9 -28 -54 -16 -45 13c7 23 21 45 40 60c18 15 38 21 62 22c26 2 52 -4 75 -16c10 21 21 42 31 63c31 59 61 119 101 172c18 24 41 51 68 68c-19 7 -38 16 -58 23c-74 28 -191 60 -250 -15
c-29 -37 -39 -101 12 -124c22 -10 50 -8 68 9c16 15 19 40 13 60c-10 29 35 41 45 13c11 -34 2 -77 -22 -103c-27 -28 -67 -37 -104 -28c-74 18 -100 100 -70 166c24 52 70 87 126 96c59 9 119 -3 175 -22c30 -10 60 -24 90 -35c37 -13 74 -22 114 -22c30 -1 30 -47 0 -47
h-1c1 -2 1 -4 2 -7c10 -29 2 -60 -9 -88c-1 -1 -152 -334 -175 -395c-10 -26 -19 -53 -24 -80c-3 -18 -5 -40 3 -57c18 -39 61 -20 85 1c41 36 70 85 97 132zM563 368c32 -9 67 -4 94 17c21 17 36 40 48 65c3 5 51 111 72 157c5 12 9 25 10 38c2 14 0 27 -13 35
c-9 6 -19 7 -29 7c-21 -2 -43 -19 -58 -35c-48 -49 -80 -114 -112 -174c-16 -31 -31 -62 -46 -92c10 -8 21 -14 34 -18zM779 842l70 65c21 20 50 -15 28 -36c-23 -22 -45 -44 -69 -66c-9 -8 -25 -6 -32 3c-8 12 -5 24 3 34z" />
    <glyph glyph-name="Abreve" unicode="&#x102;" horiz-adv-x="819" 
d="M807 192c14 27 55 3 40 -23c-33 -59 -72 -125 -130 -162c-43 -28 -100 -22 -129 23c-30 48 -10 114 7 162c16 46 36 91 56 136c-47 -19 -100 -11 -143 16c-10 -20 -19 -41 -29 -61c-31 -65 -62 -132 -104 -192c-35 -50 -78 -98 -137 -119c-55 -20 -127 -11 -176 24
c-90 65 -90 201 -25 284c47 59 132 92 201 52c49 -28 76 -96 43 -147c-16 -25 -56 -1 -40 24c11 17 10 41 -3 62c-17 24 -50 36 -79 32c-64 -9 -107 -68 -119 -127c-8 -42 -1 -90 28 -123c32 -38 90 -52 138 -42c53 11 93 53 123 95c40 56 70 117 99 178c14 29 27 58 41 86
c-10 6 -21 10 -33 12c-14 1 -31 1 -44 -5c-16 -9 -29 -26 -34 -44c-9 -28 -54 -16 -45 13c7 23 21 45 40 60c18 15 38 21 62 22c26 2 52 -4 75 -16c10 21 21 42 31 63c31 59 61 119 101 172c18 24 41 51 68 68c-19 7 -38 16 -58 23c-74 28 -191 60 -250 -15
c-29 -37 -39 -101 12 -124c22 -10 50 -8 68 9c16 15 19 40 13 60c-10 29 35 41 45 13c11 -34 2 -77 -22 -103c-27 -28 -67 -37 -104 -28c-74 18 -100 100 -70 166c24 52 70 87 126 96c59 9 119 -3 175 -22c30 -10 60 -24 90 -35c37 -13 74 -22 114 -22c30 -1 30 -47 0 -47
h-1c1 -2 1 -4 2 -7c10 -29 2 -60 -9 -88c-1 -1 -152 -334 -175 -395c-10 -26 -19 -53 -24 -80c-3 -18 -5 -40 3 -57c18 -39 61 -20 85 1c41 36 70 85 97 132zM563 368c32 -9 67 -4 94 17c21 17 36 40 48 65c3 5 51 111 72 157c5 12 9 25 10 38c2 14 0 27 -13 35
c-9 6 -19 7 -29 7c-21 -2 -43 -19 -58 -35c-48 -49 -80 -114 -112 -174c-16 -31 -31 -62 -46 -92c10 -8 21 -14 34 -18zM724 873c-4 32 43 38 44 8c2 -22 20 -38 41 -43c27 -6 53 5 65 30s56 8 42 -20c-20 -42 -65 -65 -113 -57c-40 9 -76 38 -79 82z" />
    <glyph glyph-name="Acircumflex" unicode="&#xc2;" horiz-adv-x="811" 
d="M807 192c14 27 55 3 40 -23c-33 -59 -72 -125 -130 -162c-43 -28 -100 -22 -129 23c-30 48 -10 114 7 162c16 46 36 91 56 136c-47 -19 -100 -11 -143 16c-10 -20 -19 -41 -29 -61c-31 -65 -62 -132 -104 -192c-35 -50 -78 -98 -137 -119c-55 -20 -127 -11 -176 24
c-90 65 -90 201 -25 284c47 59 132 92 201 52c49 -28 76 -96 43 -147c-16 -25 -56 -1 -40 24c11 17 10 41 -3 62c-17 24 -50 36 -79 32c-64 -9 -107 -68 -119 -127c-8 -42 -1 -90 28 -123c32 -38 90 -52 138 -42c53 11 93 53 123 95c40 56 70 117 99 178c14 29 27 58 41 86
c-10 6 -21 10 -33 12c-14 1 -31 1 -44 -5c-16 -9 -29 -26 -34 -44c-9 -28 -54 -16 -45 13c7 23 21 45 40 60c18 15 38 21 62 22c26 2 52 -4 75 -16c10 21 21 42 31 63c31 59 61 119 101 172c18 24 41 51 68 68c-19 7 -38 16 -58 23c-74 28 -191 60 -250 -15
c-29 -37 -39 -101 12 -124c22 -10 50 -8 68 9c16 15 19 40 13 60c-10 29 35 41 45 13c11 -34 2 -77 -22 -103c-27 -28 -67 -37 -104 -28c-74 18 -100 100 -70 166c24 52 70 87 126 96c59 9 119 -3 175 -22c30 -10 60 -24 90 -35c37 -13 74 -22 114 -22c30 -1 30 -47 0 -47
h-1c1 -2 1 -4 2 -7c10 -29 2 -60 -9 -88c-1 -1 -152 -334 -175 -395c-10 -26 -19 -53 -24 -80c-3 -18 -5 -40 3 -57c18 -39 61 -20 85 1c41 36 70 85 97 132zM563 368c32 -9 67 -4 94 17c21 17 36 40 48 65c3 5 51 111 72 157c5 12 9 25 10 38c2 14 0 27 -13 35
c-9 6 -19 7 -29 7c-21 -2 -43 -19 -58 -35c-48 -49 -80 -114 -112 -174c-16 -31 -31 -62 -46 -92c10 -8 21 -14 34 -18zM899 816c9 -27 -33 -47 -43 -18c-7 21 -15 42 -23 63c-24 -14 -47 -27 -72 -40c-26 -16 -45 28 -19 42c31 17 62 35 93 52c11 6 26 0 32 -12
c11 -28 22 -57 32 -87z" />
    <glyph glyph-name="Agrave" unicode="&#xc0;" horiz-adv-x="822" 
d="M817 192c14 27 55 3 40 -23c-33 -59 -72 -125 -130 -162c-43 -28 -100 -22 -129 23c-30 48 -10 114 7 162c16 46 36 91 56 136c-47 -19 -100 -11 -143 16c-10 -20 -19 -41 -29 -61c-31 -65 -62 -132 -104 -192c-35 -50 -78 -98 -137 -119c-55 -20 -127 -11 -176 24
c-90 65 -90 201 -25 284c47 59 132 92 201 52c49 -28 76 -96 43 -147c-16 -25 -56 -1 -40 24c11 17 10 41 -3 62c-17 24 -50 36 -79 32c-64 -9 -107 -68 -119 -127c-8 -42 -1 -90 28 -123c32 -38 90 -52 138 -42c53 11 93 53 123 95c40 56 70 117 99 178c14 29 27 58 41 86
c-10 6 -21 10 -33 12c-14 1 -31 1 -44 -5c-16 -9 -29 -26 -34 -44c-9 -28 -54 -16 -45 13c7 23 21 45 40 60c18 15 38 21 62 22c26 2 52 -4 75 -16c10 21 21 42 31 63c31 59 61 119 101 172c18 24 41 51 68 68c-19 7 -38 16 -58 23c-74 28 -191 60 -250 -15
c-29 -37 -39 -101 12 -124c22 -10 50 -8 68 9c16 15 19 40 13 60c-10 29 35 41 45 13c11 -34 2 -77 -22 -103c-27 -28 -67 -37 -104 -28c-74 18 -100 100 -70 166c24 52 70 87 126 96c59 9 119 -3 175 -22c30 -10 60 -24 90 -35c37 -13 74 -22 114 -22c30 -1 30 -47 0 -47
h-1c1 -2 1 -4 2 -7c10 -29 2 -60 -9 -88c-1 -1 -152 -334 -175 -395c-10 -26 -19 -53 -24 -80c-3 -18 -5 -40 3 -57c18 -39 61 -20 85 1c41 36 70 85 97 132zM573 368c32 -9 67 -4 94 17c21 17 36 40 48 65c3 5 51 111 72 157c5 12 9 25 10 38c2 14 0 27 -13 35
c-9 6 -19 7 -29 7c-21 -2 -43 -19 -58 -35c-48 -49 -80 -114 -112 -174c-16 -31 -31 -62 -46 -92c10 -8 21 -14 34 -18zM749 909l52 -80c6 -11 6 -24 -5 -33c-8 -7 -25 -6 -32 4c-17 27 -33 54 -51 81c-16 25 21 53 36 28z" />
    <glyph glyph-name="Adieresis" unicode="&#xc4;" horiz-adv-x="812" 
d="M807 192c14 27 55 3 40 -23c-33 -59 -72 -125 -130 -162c-43 -28 -100 -22 -129 23c-30 48 -10 114 7 162c16 46 36 91 56 136c-47 -19 -100 -11 -143 16c-10 -20 -19 -41 -29 -61c-31 -65 -62 -132 -104 -192c-35 -50 -78 -98 -137 -119c-55 -20 -127 -11 -176 24
c-90 65 -90 201 -25 284c47 59 132 92 201 52c49 -28 76 -96 43 -147c-16 -25 -56 -1 -40 24c11 17 10 41 -3 62c-17 24 -50 36 -79 32c-64 -9 -107 -68 -119 -127c-8 -42 -1 -90 28 -123c32 -38 90 -52 138 -42c53 11 93 53 123 95c40 56 70 117 99 178c14 29 27 58 41 86
c-10 6 -21 10 -33 12c-14 1 -31 1 -44 -5c-16 -9 -29 -26 -34 -44c-9 -28 -54 -16 -45 13c7 23 21 45 40 60c18 15 38 21 62 22c26 2 52 -4 75 -16c10 21 21 42 31 63c31 59 61 119 101 172c18 24 41 51 68 68c-19 7 -38 16 -58 23c-74 28 -191 60 -250 -15
c-29 -37 -39 -101 12 -124c22 -10 50 -8 68 9c16 15 19 40 13 60c-10 29 35 41 45 13c11 -34 2 -77 -22 -103c-27 -28 -67 -37 -104 -28c-74 18 -100 100 -70 166c24 52 70 87 126 96c59 9 119 -3 175 -22c30 -10 60 -24 90 -35c37 -13 74 -22 114 -22c30 -1 30 -47 0 -47
h-1c1 -2 1 -4 2 -7c10 -29 2 -60 -9 -88c-1 -1 -152 -334 -175 -395c-10 -26 -19 -53 -24 -80c-3 -18 -5 -40 3 -57c18 -39 61 -20 85 1c41 36 70 85 97 132zM563 368c32 -9 67 -4 94 17c21 17 36 40 48 65c3 5 51 111 72 157c5 12 9 25 10 38c2 14 0 27 -13 35
c-9 6 -19 7 -29 7c-21 -2 -43 -19 -58 -35c-48 -49 -80 -114 -112 -174c-16 -31 -31 -62 -46 -92c10 -8 21 -14 34 -18zM795 850c3 -16 -2 -34 -15 -44c-17 -11 -40 -3 -46 16c-4 13 0 29 12 41c7 7 15 8 24 8c12 0 22 -9 25 -21zM901 850c3 -16 -2 -34 -15 -44
c-17 -11 -40 -3 -46 16c-4 13 0 29 12 41c7 7 16 8 24 8c12 0 22 -9 25 -21z" />
    <glyph glyph-name="Amacron" unicode="&#x100;" horiz-adv-x="827" 
d="M817 192c14 27 55 3 40 -23c-33 -59 -72 -125 -130 -162c-43 -28 -100 -22 -129 23c-30 48 -10 114 7 162c16 46 36 91 56 136c-47 -19 -100 -11 -143 16c-10 -20 -19 -41 -29 -61c-31 -65 -62 -132 -104 -192c-35 -50 -78 -98 -137 -119c-55 -20 -127 -11 -176 24
c-90 65 -90 201 -25 284c47 59 132 92 201 52c49 -28 76 -96 43 -147c-16 -25 -56 -1 -40 24c11 17 10 41 -3 62c-17 24 -50 36 -79 32c-64 -9 -107 -68 -119 -127c-8 -42 -1 -90 28 -123c32 -38 90 -52 138 -42c53 11 93 53 123 95c40 56 70 117 99 178c14 29 27 58 41 86
c-10 6 -21 10 -33 12c-14 1 -31 1 -44 -5c-16 -9 -29 -26 -34 -44c-9 -28 -54 -16 -45 13c7 23 21 45 40 60c18 15 38 21 62 22c26 2 52 -4 75 -16c10 21 21 42 31 63c31 59 61 119 101 172c18 24 41 51 68 68c-19 7 -38 16 -58 23c-74 28 -191 60 -250 -15
c-29 -37 -39 -101 12 -124c22 -10 50 -8 68 9c16 15 19 40 13 60c-10 29 35 41 45 13c11 -34 2 -77 -22 -103c-27 -28 -67 -37 -104 -28c-74 18 -100 100 -70 166c24 52 70 87 126 96c59 9 119 -3 175 -22c30 -10 60 -24 90 -35c37 -13 74 -22 114 -22c30 -1 30 -47 0 -47
h-1c1 -2 1 -4 2 -7c10 -29 2 -60 -9 -88c-1 -1 -152 -334 -175 -395c-10 -26 -19 -53 -24 -80c-3 -18 -5 -40 3 -57c18 -39 61 -20 85 1c41 36 70 85 97 132zM573 368c32 -9 67 -4 94 17c21 17 36 40 48 65c3 5 51 111 72 157c5 12 9 25 10 38c2 14 0 27 -13 35
c-9 6 -19 7 -29 7c-21 -2 -43 -19 -58 -35c-48 -49 -80 -114 -112 -174c-16 -31 -31 -62 -46 -92c10 -8 21 -14 34 -18zM894 818h-136c-30 0 -30 46 0 46h136c30 0 30 -46 0 -46z" />
    <glyph glyph-name="Aogonek" unicode="&#x104;" horiz-adv-x="812" 
d="M807 192c14 27 55 3 40 -23c-33 -59 -72 -125 -130 -162c-43 -28 -100 -22 -129 23c-30 48 -10 114 7 162c16 46 36 91 56 136c-47 -19 -100 -11 -143 16c-10 -20 -19 -41 -29 -61c-31 -65 -62 -132 -104 -192c-35 -50 -78 -98 -137 -119c-55 -20 -127 -11 -176 24
c-90 65 -90 201 -25 284c47 59 132 92 201 52c49 -28 76 -96 43 -147c-16 -25 -56 -1 -40 24c11 17 10 41 -3 62c-17 24 -50 36 -79 32c-64 -9 -107 -68 -119 -127c-8 -42 -1 -90 28 -123c32 -38 90 -52 138 -42c53 11 93 53 123 95c40 56 70 117 99 178c14 29 27 58 41 86
c-10 6 -21 10 -33 12c-14 1 -31 1 -44 -5c-16 -9 -29 -26 -34 -44c-9 -28 -54 -16 -45 13c7 23 21 45 40 60c18 15 38 21 62 22c26 2 52 -4 75 -16c10 21 21 42 31 63c31 59 61 119 101 172c18 24 41 51 68 68c-19 7 -38 16 -58 23c-74 28 -191 60 -250 -15
c-29 -37 -39 -101 12 -124c22 -10 50 -8 68 9c16 15 19 40 13 60c-10 29 35 41 45 13c11 -34 2 -77 -22 -103c-27 -28 -67 -37 -104 -28c-74 18 -100 100 -70 166c24 52 70 87 126 96c59 9 119 -3 175 -22c30 -10 60 -24 90 -35c37 -13 74 -22 114 -22c30 -1 30 -47 0 -47
h-1c1 -2 1 -4 2 -7c10 -29 2 -60 -9 -88c-1 -1 -152 -334 -175 -395c-10 -26 -19 -53 -24 -80c-3 -18 -5 -40 3 -57c18 -39 61 -20 85 1c41 36 70 85 97 132zM563 368c32 -9 67 -4 94 17c21 17 36 40 48 65c3 5 51 111 72 157c5 12 9 25 10 38c2 14 0 27 -13 35
c-9 6 -19 7 -29 7c-21 -2 -43 -19 -58 -35c-48 -49 -80 -114 -112 -174c-16 -31 -31 -62 -46 -92c10 -8 21 -14 34 -18zM684 -91c31 -1 31 -47 1 -46c-45 1 -79 34 -79 79c0 47 35 87 79 99c29 8 40 -35 12 -44c-22 -7 -43 -27 -45 -51c-1 -21 11 -36 32 -37z" />
    <glyph glyph-name="Aring" unicode="&#xc5;" horiz-adv-x="821" 
d="M817 192c14 27 55 3 40 -23c-33 -59 -72 -125 -130 -162c-43 -28 -100 -22 -129 23c-30 48 -10 114 7 162c16 46 36 91 56 136c-47 -19 -100 -11 -143 16c-10 -20 -19 -41 -29 -61c-31 -65 -62 -132 -104 -192c-35 -50 -78 -98 -137 -119c-55 -20 -127 -11 -176 24
c-90 65 -90 201 -25 284c47 59 132 92 201 52c49 -28 76 -96 43 -147c-16 -25 -56 -1 -40 24c11 17 10 41 -3 62c-17 24 -50 36 -79 32c-64 -9 -107 -68 -119 -127c-8 -42 -1 -90 28 -123c32 -38 90 -52 138 -42c53 11 93 53 123 95c40 56 70 117 99 178c14 29 27 58 41 86
c-10 6 -21 10 -33 12c-14 1 -31 1 -44 -5c-16 -9 -29 -26 -34 -44c-9 -28 -54 -16 -45 13c7 23 21 45 40 60c18 15 38 21 62 22c26 2 52 -4 75 -16c10 21 21 42 31 63c31 59 61 119 101 172c18 24 41 51 68 68c-19 7 -38 16 -58 23c-74 28 -191 60 -250 -15
c-29 -37 -39 -101 12 -124c22 -10 50 -8 68 9c16 15 19 40 13 60c-10 29 35 41 45 13c11 -34 2 -77 -22 -103c-27 -28 -67 -37 -104 -28c-74 18 -100 100 -70 166c24 52 70 87 126 96c59 9 119 -3 175 -22c30 -10 60 -24 90 -35c37 -13 74 -22 114 -22c30 -1 30 -47 0 -47
h-1c1 -2 1 -4 2 -7c10 -29 2 -60 -9 -88c-1 -1 -152 -334 -175 -395c-10 -26 -19 -53 -24 -80c-3 -18 -5 -40 3 -57c18 -39 61 -20 85 1c41 36 70 85 97 132zM573 368c32 -9 67 -4 94 17c21 17 36 40 48 65c3 5 51 111 72 157c5 12 9 25 10 38c2 14 0 27 -13 35
c-9 6 -19 7 -29 7c-21 -2 -43 -19 -58 -35c-48 -49 -80 -114 -112 -174c-16 -31 -31 -62 -46 -92c10 -8 21 -14 34 -18zM905 881c4 -42 -28 -79 -70 -81s-76 27 -79 69v6c3 41 33 72 75 73c40 0 71 -27 74 -67zM835 841c21 2 33 20 30 40c-2 19 -16 26 -34 26
c-21 0 -34 -14 -35 -35c0 -24 19 -34 39 -31z" />
    <glyph glyph-name="Atilde" unicode="&#xc3;" horiz-adv-x="827" 
d="M817 192c14 27 55 3 40 -23c-33 -59 -72 -125 -130 -162c-43 -28 -100 -22 -129 23c-30 48 -10 114 7 162c16 46 36 91 56 136c-47 -19 -100 -11 -143 16c-10 -20 -19 -41 -29 -61c-31 -65 -62 -132 -104 -192c-35 -50 -78 -98 -137 -119c-55 -20 -127 -11 -176 24
c-90 65 -90 201 -25 284c47 59 132 92 201 52c49 -28 76 -96 43 -147c-16 -25 -56 -1 -40 24c11 17 10 41 -3 62c-17 24 -50 36 -79 32c-64 -9 -107 -68 -119 -127c-8 -42 -1 -90 28 -123c32 -38 90 -52 138 -42c53 11 93 53 123 95c40 56 70 117 99 178c14 29 27 58 41 86
c-10 6 -21 10 -33 12c-14 1 -31 1 -44 -5c-16 -9 -29 -26 -34 -44c-9 -28 -54 -16 -45 13c7 23 21 45 40 60c18 15 38 21 62 22c26 2 52 -4 75 -16c10 21 21 42 31 63c31 59 61 119 101 172c18 24 41 51 68 68c-19 7 -38 16 -58 23c-74 28 -191 60 -250 -15
c-29 -37 -39 -101 12 -124c22 -10 50 -8 68 9c16 15 19 40 13 60c-10 29 35 41 45 13c11 -34 2 -77 -22 -103c-27 -28 -67 -37 -104 -28c-74 18 -100 100 -70 166c24 52 70 87 126 96c59 9 119 -3 175 -22c30 -10 60 -24 90 -35c37 -13 74 -22 114 -22c30 -1 30 -47 0 -47
h-1c1 -2 1 -4 2 -7c10 -29 2 -60 -9 -88c-1 -1 -152 -334 -175 -395c-10 -26 -19 -53 -24 -80c-3 -18 -5 -40 3 -57c18 -39 61 -20 85 1c41 36 70 85 97 132zM573 368c32 -9 67 -4 94 17c21 17 36 40 48 65c3 5 51 111 72 157c5 12 9 25 10 38c2 14 0 27 -13 35
c-9 6 -19 7 -29 7c-21 -2 -43 -19 -58 -35c-48 -49 -80 -114 -112 -174c-16 -31 -31 -62 -46 -92c10 -8 21 -14 34 -18zM748 837c-14 -29 -54 -6 -41 21c10 21 29 38 52 42c21 4 38 -3 54 -15c13 -10 25 -24 39 -32c17 -9 32 0 38 17c10 28 54 16 45 -13
c-8 -22 -21 -41 -44 -49c-21 -8 -47 -5 -66 7c-15 10 -26 24 -41 34c-16 11 -28 5 -36 -12z" />
    <glyph glyph-name="AEacute" unicode="&#x1fc;" horiz-adv-x="1089" 
d="M1076 192c14 26 54 3 40 -24c-43 -77 -98 -155 -183 -190c-77 -32 -174 -23 -240 30c-58 48 -83 127 -73 201c4 37 23 96 40 119c-46 -19 -99 -12 -143 15c-10 -20 -19 -40 -29 -60c-31 -65 -62 -132 -104 -192c-34 -50 -78 -98 -137 -119c-55 -19 -127 -11 -175 24
c-90 65 -91 201 -25 284c46 59 131 92 201 52c48 -28 75 -96 43 -146c-16 -26 -57 -2 -40 23c11 17 10 41 -4 62c-16 24 -50 36 -78 32c-65 -9 -108 -68 -119 -127c-8 -41 -1 -90 27 -123c33 -37 91 -52 138 -41c53 11 93 52 124 94c39 56 69 117 98 178c14 29 27 57 41 86
c-10 6 -21 10 -33 12c-13 1 -31 1 -44 -5c-16 -9 -29 -26 -34 -44c-9 -28 -54 -16 -45 13c7 23 21 44 40 60c18 15 39 20 62 22c26 2 52 -4 75 -16c10 21 21 42 31 62c31 59 61 120 101 173c18 24 41 50 68 67c-20 8 -39 16 -58 23c-74 28 -191 60 -250 -14
c-29 -37 -39 -101 12 -124c22 -10 50 -8 68 9c16 14 20 40 13 60c-10 28 35 40 45 12c11 -34 2 -76 -22 -102c-27 -28 -67 -37 -103 -28c-75 18 -100 100 -71 166c24 51 70 86 126 95c59 9 119 -3 175 -22c30 -10 60 -24 90 -35c37 -13 74 -21 113 -22c13 0 20 -9 22 -19
c39 27 87 38 133 24c38 -12 73 -39 87 -77c13 -34 8 -74 -7 -107c-17 -36 -50 -59 -90 -63c-36 -3 -74 14 -89 48c-5 11 -3 25 8 32c11 5 27 3 32 -9c11 -24 40 -30 64 -21c28 12 42 44 43 73c0 26 -8 47 -30 63c-24 19 -56 25 -86 17c-41 -11 -73 -38 -93 -97
c-10 -32 -7 -78 11 -112c9 -17 23 -30 38 -40c26 -2 51 -9 75 -19c22 -10 10 -44 -12 -44c-27 1 -53 7 -76 18c-45 1 -89 -16 -124 -46c-38 -33 -51 -65 -65 -99c-29 -84 -14 -181 70 -227c62 -34 141 -26 199 10c58 37 97 96 129 155zM787 498c-8 -17 -37 -81 -39 -84
c22 13 45 22 68 26c-11 15 -20 31 -27 50c-1 3 -1 5 -2 8zM666 384c20 17 35 39 46 62c25 54 49 107 74 161c6 15 19 56 -3 72c-9 7 -19 8 -30 7c-20 -1 -42 -18 -58 -35c-48 -48 -79 -113 -111 -173c-16 -31 -31 -62 -46 -93c10 -7 21 -13 34 -17c32 -9 67 -4 94 16z
M857 842l70 65c21 20 50 -15 28 -36c-23 -22 -45 -44 -69 -66c-9 -8 -25 -6 -32 3c-8 12 -5 24 3 34z" />
    <glyph glyph-name="perthousand" unicode="&#x2030;" horiz-adv-x="1087" 
d="M597 695c-25 -55 -50 -110 -75 -164c-83 -179 -168 -358 -246 -538c-5 -12 -22 -15 -32 -9c-12 7 -13 20 -8 32c11 27 24 53 35 79c73 160 146 320 220 480c-6 -3 -12 -5 -18 -8c-33 -11 -68 -10 -100 0c5 -31 -2 -65 -19 -90c-32 -45 -90 -63 -142 -47
c-49 15 -80 57 -82 108v3v3c2 56 37 108 94 119c36 7 74 1 104 -19c21 -14 86 -48 132 -32c47 17 77 63 97 106c8 17 24 14 33 9c11 -6 15 -15 7 -32zM322 516c11 25 8 61 -11 82c-21 24 -63 27 -91 15c-29 -12 -43 -41 -44 -72c1 -38 27 -66 65 -70c34 -3 67 12 81 45z
M685 241c26 -40 24 -99 -3 -137c-31 -46 -89 -63 -141 -48c-50 15 -80 58 -82 108c-1 1 -1 2 -1 4v3c3 56 38 107 95 118c49 10 105 -4 132 -48zM651 142c11 25 8 61 -11 82c-21 24 -63 27 -91 16c-29 -12 -44 -42 -44 -72c1 -38 26 -66 64 -70c34 -4 68 12 82 44zM968 241
c26 -40 24 -99 -3 -137c-31 -46 -89 -63 -141 -48c-50 15 -80 58 -82 108c-1 1 -1 2 -1 4v3c3 56 38 107 95 118c49 10 105 -4 132 -48zM934 142c11 25 8 61 -11 82c-21 24 -63 27 -91 16c-29 -12 -44 -42 -44 -72c1 -38 26 -66 64 -70c34 -4 68 12 82 44z" />
    <glyph glyph-name="Cacute" unicode="&#x106;" horiz-adv-x="479" 
d="M471 191c15 26 55 3 40 -24c-42 -73 -100 -144 -179 -180c-60 -27 -128 -32 -190 -7c-52 21 -93 61 -116 112c-27 63 -30 132 -21 199c21 148 97 311 229 391c64 38 147 51 210 6c70 -50 86 -149 57 -226c-29 -78 -95 -149 -185 -136c-80 12 -118 102 -83 172
c13 27 53 3 40 -24c-13 -26 -7 -62 12 -83c24 -25 66 -24 95 -10c35 16 58 50 73 84c18 42 20 85 6 128c-20 58 -79 87 -137 75c-57 -12 -105 -51 -142 -93c-44 -50 -77 -110 -99 -172c-23 -64 -37 -133 -33 -202c2 -46 15 -94 45 -130c28 -33 67 -53 110 -59
c121 -16 213 83 268 179zM438 832l70 65c21 20 50 -15 28 -36c-23 -22 -45 -44 -69 -66c-9 -8 -25 -6 -32 3c-8 12 -5 24 3 34z" />
    <glyph glyph-name="Ccaron" unicode="&#x10c;" horiz-adv-x="472" 
d="M471 191c15 26 55 3 40 -24c-42 -73 -100 -144 -179 -180c-60 -27 -128 -32 -190 -7c-52 21 -93 61 -116 112c-27 63 -30 132 -21 199c21 148 97 311 229 391c64 38 147 51 210 6c70 -50 86 -149 57 -226c-29 -78 -95 -149 -185 -136c-80 12 -118 102 -83 172
c13 27 53 3 40 -24c-13 -26 -7 -62 12 -83c24 -25 66 -24 95 -10c35 16 58 50 73 84c18 42 20 85 6 128c-20 58 -79 87 -137 75c-57 -12 -105 -51 -142 -93c-44 -50 -77 -110 -99 -172c-23 -64 -37 -133 -33 -202c2 -46 15 -94 45 -130c28 -33 67 -53 110 -59
c121 -16 213 83 268 179zM410 874c-12 26 28 50 40 23l30 -60c23 16 45 32 67 48c25 18 48 -23 24 -40c-29 -20 -58 -42 -87 -62c-10 -7 -26 -2 -32 8c-15 27 -29 55 -42 83z" />
    <glyph glyph-name="Ccedilla" unicode="&#xc7;" horiz-adv-x="475" 
d="M471 191c15 26 55 3 40 -24c-42 -73 -100 -144 -179 -180c-60 -27 -128 -32 -190 -7c-52 21 -93 61 -116 112c-27 63 -30 132 -21 199c21 148 97 311 229 391c64 38 147 51 210 6c70 -50 86 -149 57 -226c-29 -78 -95 -149 -185 -136c-80 12 -118 102 -83 172
c13 27 53 3 40 -24c-13 -26 -7 -62 12 -83c24 -25 66 -24 95 -10c35 16 58 50 73 84c18 42 20 85 6 128c-20 58 -79 87 -137 75c-57 -12 -105 -51 -142 -93c-44 -50 -77 -110 -99 -172c-23 -64 -37 -133 -33 -202c2 -46 15 -94 45 -130c28 -33 67 -53 110 -59
c121 -16 213 83 268 179zM208 -97c16 -25 15 -59 1 -84c-30 -55 -116 -50 -144 2c-14 27 26 50 40 24c12 -22 50 -27 64 -3c6 11 6 27 -1 38c-9 14 -27 18 -44 19c-18 1 -28 19 -20 35c10 19 19 39 27 58c5 12 16 20 29 17c11 -4 21 -17 16 -29c-6 -14 -12 -27 -18 -40
c20 -7 38 -18 50 -37z" />
    <glyph glyph-name="Ccircumflex" unicode="&#x108;" horiz-adv-x="480" 
d="M471 191c15 26 55 3 40 -24c-42 -73 -100 -144 -179 -180c-60 -27 -128 -32 -190 -7c-52 21 -93 61 -116 112c-27 63 -30 132 -21 199c21 148 97 311 229 391c64 38 147 51 210 6c70 -50 86 -149 57 -226c-29 -78 -95 -149 -185 -136c-80 12 -118 102 -83 172
c13 27 53 3 40 -24c-13 -26 -7 -62 12 -83c24 -25 66 -24 95 -10c35 16 58 50 73 84c18 42 20 85 6 128c-20 58 -79 87 -137 75c-57 -12 -105 -51 -142 -93c-44 -50 -77 -110 -99 -172c-23 -64 -37 -133 -33 -202c2 -46 15 -94 45 -130c28 -33 67 -53 110 -59
c121 -16 213 83 268 179zM548 816c9 -27 -33 -47 -43 -18c-7 21 -15 42 -23 63c-24 -14 -47 -27 -72 -40c-26 -16 -45 28 -19 42c31 17 62 35 93 52c11 6 26 0 32 -12c11 -28 22 -57 32 -87z" />
    <glyph glyph-name="Cdotaccent" unicode="&#x10a;" horiz-adv-x="475" 
d="M471 191c15 26 55 3 40 -24c-42 -73 -100 -144 -179 -180c-60 -27 -128 -32 -190 -7c-52 21 -93 61 -116 112c-27 63 -30 132 -21 199c21 148 97 311 229 391c64 38 147 51 210 6c70 -50 86 -149 57 -226c-29 -78 -95 -149 -185 -136c-80 12 -118 102 -83 172
c13 27 53 3 40 -24c-13 -26 -7 -62 12 -83c24 -25 66 -24 95 -10c35 16 58 50 73 84c18 42 20 85 6 128c-20 58 -79 87 -137 75c-57 -12 -105 -51 -142 -93c-44 -50 -77 -110 -99 -172c-23 -64 -37 -133 -33 -202c2 -46 15 -94 45 -130c28 -33 67 -53 110 -59
c121 -16 213 83 268 179zM524 840c3 -16 -2 -34 -15 -44c-17 -11 -40 -3 -46 16c-4 13 0 29 12 41c7 7 15 8 24 8c12 0 22 -9 25 -21z" />
    <glyph glyph-name="Dcaron" unicode="&#x10e;" horiz-adv-x="730" 
d="M708 424c11 -131 -29 -278 -129 -368c-46 -42 -102 -68 -164 -75c-70 -7 -143 13 -206 42c-22 11 -44 24 -65 36c-12 -17 -25 -34 -42 -46c-44 -33 -132 -46 -164 12c-14 26 -7 61 11 84c20 24 51 34 81 36c34 2 66 -10 96 -25c10 20 19 40 27 60c9 20 18 41 26 61
c-35 21 -65 50 -84 87c-64 123 -6 279 104 354c97 67 223 70 328 23c113 -51 172 -162 181 -281zM54 39c16 7 33 19 48 42c-10 5 -21 9 -32 13c-22 6 -52 8 -74 -6c-16 -10 -27 -34 -12 -46c18 -17 50 -13 70 -3zM511 62c107 67 152 202 152 322c0 111 -42 221 -145 274
c-94 48 -210 44 -297 -17c-97 -68 -146 -220 -67 -319c12 -15 27 -28 43 -38c24 60 50 121 83 177c46 80 111 159 209 168c30 3 29 -44 0 -47c-15 -1 -35 -7 -48 -13c-79 -39 -125 -131 -161 -208c-15 -32 -28 -65 -42 -98c18 -6 37 -10 55 -10c64 -3 129 26 161 83
c15 26 55 3 40 -23c-17 -31 -44 -55 -73 -74c-60 -39 -135 -42 -200 -18c-17 -42 -34 -83 -55 -123c1 0 2 0 2 -1c105 -58 232 -104 343 -35zM534 874c-12 26 28 50 40 23l30 -60c23 16 45 32 67 48c25 18 48 -23 24 -40c-29 -20 -58 -42 -87 -62c-10 -7 -26 -2 -32 8
c-15 27 -29 55 -42 83z" />
    <glyph glyph-name="Dcroat" unicode="&#x110;" horiz-adv-x="730" 
d="M708 424c11 -131 -29 -278 -129 -368c-46 -42 -102 -68 -164 -75c-70 -7 -143 13 -206 42c-22 11 -44 24 -65 36c-12 -17 -25 -34 -42 -46c-44 -33 -132 -46 -164 12c-14 26 -7 61 11 84c20 24 51 34 81 36c34 2 66 -10 96 -25c10 20 19 40 27 60c9 20 18 41 26 61
c-35 21 -65 50 -84 87c-64 123 -6 279 104 354c97 67 223 70 328 23c113 -51 172 -162 181 -281zM54 39c16 7 33 19 48 42c-10 5 -21 9 -32 13c-22 6 -52 8 -74 -6c-16 -10 -27 -34 -12 -46c18 -17 50 -13 70 -3zM511 62c107 67 152 202 152 322c0 111 -42 221 -145 274
c-94 48 -210 44 -297 -17c-97 -68 -146 -220 -67 -319c12 -15 27 -28 43 -38c24 60 50 121 83 177c46 80 111 159 209 168c30 3 29 -44 0 -47c-15 -1 -35 -7 -48 -13c-79 -39 -125 -131 -161 -208c-15 -32 -28 -65 -42 -98c18 -6 37 -10 55 -10c64 -3 129 26 161 83
c15 26 55 3 40 -23c-17 -31 -44 -55 -73 -74c-60 -39 -135 -42 -200 -18c-17 -42 -34 -83 -55 -123c1 0 2 0 2 -1c105 -58 232 -104 343 -35zM587 818h-136c-30 0 -30 46 0 46h136c30 0 30 -46 0 -46z" />
    <glyph glyph-name="Eacute" unicode="&#xc9;" horiz-adv-x="464" 
d="M458 192c15 26 55 2 40 -24c-42 -78 -98 -155 -182 -190c-78 -33 -175 -24 -241 30c-58 48 -82 127 -73 200c10 81 53 157 121 201c23 16 49 26 75 32c-11 14 -20 31 -26 49c-18 54 -12 116 15 165c36 64 115 104 188 82c37 -11 73 -39 87 -76c12 -35 8 -75 -8 -108
c-17 -35 -50 -59 -89 -63c-36 -3 -74 14 -89 48c-6 12 -4 25 8 32c10 6 27 3 32 -8c11 -25 40 -31 64 -21c27 11 41 44 42 72c1 26 -8 47 -29 64c-25 19 -56 24 -86 16c-47 -12 -79 -48 -92 -93c-11 -37 -9 -81 9 -115c10 -18 23 -31 39 -41c25 -2 50 -8 75 -19
c22 -10 10 -44 -12 -43c-28 0 -54 6 -76 17c-45 1 -90 -15 -125 -46c-92 -81 -118 -260 6 -326c61 -34 140 -27 199 10c57 36 96 96 128 155zM428 842l70 65c21 20 50 -15 28 -36c-23 -22 -45 -44 -69 -66c-9 -8 -25 -6 -32 3c-8 12 -5 24 3 34z" />
    <glyph glyph-name="Ebreve" unicode="&#x114;" horiz-adv-x="464" 
d="M458 192c15 26 55 2 40 -24c-42 -78 -98 -155 -182 -190c-78 -33 -175 -24 -241 30c-58 48 -82 127 -73 200c10 81 53 157 121 201c23 16 49 26 75 32c-11 14 -20 31 -26 49c-18 54 -12 116 15 165c36 64 115 104 188 82c37 -11 73 -39 87 -76c12 -35 8 -75 -8 -108
c-17 -35 -50 -59 -89 -63c-36 -3 -74 14 -89 48c-6 12 -4 25 8 32c10 6 27 3 32 -8c11 -25 40 -31 64 -21c27 11 41 44 42 72c1 26 -8 47 -29 64c-25 19 -56 24 -86 16c-47 -12 -79 -48 -92 -93c-11 -37 -9 -81 9 -115c10 -18 23 -31 39 -41c25 -2 50 -8 75 -19
c22 -10 10 -44 -12 -43c-28 0 -54 6 -76 17c-45 1 -90 -15 -125 -46c-92 -81 -118 -260 6 -326c61 -34 140 -27 199 10c57 36 96 96 128 155zM339 873c-4 32 43 38 44 8c2 -22 20 -38 41 -43c27 -6 53 5 65 30s56 8 42 -20c-20 -42 -65 -65 -113 -57c-40 9 -76 38 -79 82z
" />
    <glyph glyph-name="Ecaron" unicode="&#x11a;" horiz-adv-x="467" 
d="M458 192c15 26 55 2 40 -24c-42 -78 -98 -155 -182 -190c-78 -33 -175 -24 -241 30c-58 48 -82 127 -73 200c10 81 53 157 121 201c23 16 49 26 75 32c-11 14 -20 31 -26 49c-18 54 -12 116 15 165c36 64 115 104 188 82c37 -11 73 -39 87 -76c12 -35 8 -75 -8 -108
c-17 -35 -50 -59 -89 -63c-36 -3 -74 14 -89 48c-6 12 -4 25 8 32c10 6 27 3 32 -8c11 -25 40 -31 64 -21c27 11 41 44 42 72c1 26 -8 47 -29 64c-25 19 -56 24 -86 16c-47 -12 -79 -48 -92 -93c-11 -37 -9 -81 9 -115c10 -18 23 -31 39 -41c25 -2 50 -8 75 -19
c22 -10 10 -44 -12 -43c-28 0 -54 6 -76 17c-45 1 -90 -15 -125 -46c-92 -81 -118 -260 6 -326c61 -34 140 -27 199 10c57 36 96 96 128 155zM375 874c-12 26 28 50 40 23l30 -60c23 16 45 32 67 48c25 18 48 -23 24 -40c-29 -20 -58 -42 -87 -62c-10 -7 -26 -2 -32 8
c-15 27 -29 55 -42 83z" />
    <glyph glyph-name="Ecircumflex" unicode="&#xca;" horiz-adv-x="460" 
d="M458 192c15 26 55 2 40 -24c-42 -78 -98 -155 -182 -190c-78 -33 -175 -24 -241 30c-58 48 -82 127 -73 200c10 81 53 157 121 201c23 16 49 26 75 32c-11 14 -20 31 -26 49c-18 54 -12 116 15 165c36 64 115 104 188 82c37 -11 73 -39 87 -76c12 -35 8 -75 -8 -108
c-17 -35 -50 -59 -89 -63c-36 -3 -74 14 -89 48c-6 12 -4 25 8 32c10 6 27 3 32 -8c11 -25 40 -31 64 -21c27 11 41 44 42 72c1 26 -8 47 -29 64c-25 19 -56 24 -86 16c-47 -12 -79 -48 -92 -93c-11 -37 -9 -81 9 -115c10 -18 23 -31 39 -41c25 -2 50 -8 75 -19
c22 -10 10 -44 -12 -43c-28 0 -54 6 -76 17c-45 1 -90 -15 -125 -46c-92 -81 -118 -260 6 -326c61 -34 140 -27 199 10c57 36 96 96 128 155zM513 816c9 -27 -33 -47 -43 -18c-7 21 -15 42 -23 63c-24 -14 -47 -27 -72 -40c-26 -16 -45 28 -19 42c31 17 62 35 93 52
c11 6 26 0 32 -12c11 -28 22 -57 32 -87z" />
    <glyph glyph-name="Edieresis" unicode="&#xcb;" horiz-adv-x="466" 
d="M458 192c15 26 55 2 40 -24c-42 -78 -98 -155 -182 -190c-78 -33 -175 -24 -241 30c-58 48 -82 127 -73 200c10 81 53 157 121 201c23 16 49 26 75 32c-11 14 -20 31 -26 49c-18 54 -12 116 15 165c36 64 115 104 188 82c37 -11 73 -39 87 -76c12 -35 8 -75 -8 -108
c-17 -35 -50 -59 -89 -63c-36 -3 -74 14 -89 48c-6 12 -4 25 8 32c10 6 27 3 32 -8c11 -25 40 -31 64 -21c27 11 41 44 42 72c1 26 -8 47 -29 64c-25 19 -56 24 -86 16c-47 -12 -79 -48 -92 -93c-11 -37 -9 -81 9 -115c10 -18 23 -31 39 -41c25 -2 50 -8 75 -19
c22 -10 10 -44 -12 -43c-28 0 -54 6 -76 17c-45 1 -90 -15 -125 -46c-92 -81 -118 -260 6 -326c61 -34 140 -27 199 10c57 36 96 96 128 155zM399 850c3 -16 -2 -34 -15 -44c-17 -11 -40 -3 -46 16c-4 13 0 29 12 41c7 7 15 8 24 8c12 0 22 -9 25 -21zM505 850
c3 -16 -2 -34 -15 -44c-17 -11 -40 -3 -46 16c-4 13 0 29 12 41c7 7 16 8 24 8c12 0 22 -9 25 -21z" />
    <glyph glyph-name="Edotaccent" unicode="&#x116;" horiz-adv-x="462" 
d="M458 192c15 26 55 2 40 -24c-42 -78 -98 -155 -182 -190c-78 -33 -175 -24 -241 30c-58 48 -82 127 -73 200c10 81 53 157 121 201c23 16 49 26 75 32c-11 14 -20 31 -26 49c-18 54 -12 116 15 165c36 64 115 104 188 82c37 -11 73 -39 87 -76c12 -35 8 -75 -8 -108
c-17 -35 -50 -59 -89 -63c-36 -3 -74 14 -89 48c-6 12 -4 25 8 32c10 6 27 3 32 -8c11 -25 40 -31 64 -21c27 11 41 44 42 72c1 26 -8 47 -29 64c-25 19 -56 24 -86 16c-47 -12 -79 -48 -92 -93c-11 -37 -9 -81 9 -115c10 -18 23 -31 39 -41c25 -2 50 -8 75 -19
c22 -10 10 -44 -12 -43c-28 0 -54 6 -76 17c-45 1 -90 -15 -125 -46c-92 -81 -118 -260 6 -326c61 -34 140 -27 199 10c57 36 96 96 128 155zM489 840c3 -16 -2 -34 -15 -44c-17 -11 -40 -3 -46 16c-4 13 0 29 12 41c7 7 15 8 24 8c12 0 22 -9 25 -21z" />
    <glyph glyph-name="Egrave" unicode="&#xc8;" horiz-adv-x="462" 
d="M458 192c15 26 55 2 40 -24c-42 -78 -98 -155 -182 -190c-78 -33 -175 -24 -241 30c-58 48 -82 127 -73 200c10 81 53 157 121 201c23 16 49 26 75 32c-11 14 -20 31 -26 49c-18 54 -12 116 15 165c36 64 115 104 188 82c37 -11 73 -39 87 -76c12 -35 8 -75 -8 -108
c-17 -35 -50 -59 -89 -63c-36 -3 -74 14 -89 48c-6 12 -4 25 8 32c10 6 27 3 32 -8c11 -25 40 -31 64 -21c27 11 41 44 42 72c1 26 -8 47 -29 64c-25 19 -56 24 -86 16c-47 -12 -79 -48 -92 -93c-11 -37 -9 -81 9 -115c10 -18 23 -31 39 -41c25 -2 50 -8 75 -19
c22 -10 10 -44 -12 -43c-28 0 -54 6 -76 17c-45 1 -90 -15 -125 -46c-92 -81 -118 -260 6 -326c61 -34 140 -27 199 10c57 36 96 96 128 155zM326 909l52 -80c6 -11 6 -24 -5 -33c-8 -7 -25 -6 -32 4c-17 27 -33 54 -51 81c-16 25 21 53 36 28z" />
    <glyph glyph-name="Emacron" unicode="&#x112;" horiz-adv-x="462" 
d="M458 192c15 26 55 2 40 -24c-42 -78 -98 -155 -182 -190c-78 -33 -175 -24 -241 30c-58 48 -82 127 -73 200c10 81 53 157 121 201c23 16 49 26 75 32c-11 14 -20 31 -26 49c-18 54 -12 116 15 165c36 64 115 104 188 82c37 -11 73 -39 87 -76c12 -35 8 -75 -8 -108
c-17 -35 -50 -59 -89 -63c-36 -3 -74 14 -89 48c-6 12 -4 25 8 32c10 6 27 3 32 -8c11 -25 40 -31 64 -21c27 11 41 44 42 72c1 26 -8 47 -29 64c-25 19 -56 24 -86 16c-47 -12 -79 -48 -92 -93c-11 -37 -9 -81 9 -115c10 -18 23 -31 39 -41c25 -2 50 -8 75 -19
c22 -10 10 -44 -12 -43c-28 0 -54 6 -76 17c-45 1 -90 -15 -125 -46c-92 -81 -118 -260 6 -326c61 -34 140 -27 199 10c57 36 96 96 128 155zM471 818h-136c-30 0 -30 46 0 46h136c30 0 30 -46 0 -46z" />
    <glyph glyph-name="Eogonek" unicode="&#x118;" horiz-adv-x="462" 
d="M458 192c15 26 55 2 40 -24c-42 -78 -98 -155 -182 -190c-78 -33 -175 -24 -241 30c-58 48 -82 127 -73 200c10 81 53 157 121 201c23 16 49 26 75 32c-11 14 -20 31 -26 49c-18 54 -12 116 15 165c36 64 115 104 188 82c37 -11 73 -39 87 -76c12 -35 8 -75 -8 -108
c-17 -35 -50 -59 -89 -63c-36 -3 -74 14 -89 48c-6 12 -4 25 8 32c10 6 27 3 32 -8c11 -25 40 -31 64 -21c27 11 41 44 42 72c1 26 -8 47 -29 64c-25 19 -56 24 -86 16c-47 -12 -79 -48 -92 -93c-11 -37 -9 -81 9 -115c10 -18 23 -31 39 -41c25 -2 50 -8 75 -19
c22 -10 10 -44 -12 -43c-28 0 -54 6 -76 17c-45 1 -90 -15 -125 -46c-92 -81 -118 -260 6 -326c61 -34 140 -27 199 10c57 36 96 96 128 155zM272 -121c31 -1 31 -47 1 -46c-45 1 -79 34 -79 79c0 47 35 87 79 99c29 8 40 -35 12 -44c-22 -7 -43 -27 -45 -51
c-1 -21 11 -36 32 -37z" />
    <glyph glyph-name="Gbreve" unicode="&#x11e;" horiz-adv-x="542" 
d="M278 514c13 27 53 4 40 -23c-13 -28 -5 -68 19 -87c31 -24 77 -16 107 4c32 21 53 57 65 92c14 42 14 90 -10 129c-34 56 -108 60 -165 43c-55 -16 -104 -50 -144 -91c-49 -51 -86 -113 -110 -179c-23 -65 -39 -135 -32 -204c4 -47 22 -94 59 -124c36 -29 88 -38 133 -31
c117 20 165 156 218 246c15 26 54 4 40 -23c0 0 0 -2 -1 -2c-45 -99 -90 -198 -138 -295c-18 -38 -37 -76 -61 -111c-45 -65 -109 -117 -192 -103c-82 14 -115 105 -86 177c5 12 16 20 29 16c11 -3 21 -17 16 -28c-13 -32 -15 -71 9 -98c25 -27 69 -29 101 -15
c36 14 64 46 85 78c23 34 41 70 59 107l24 48c-50 -38 -111 -52 -173 -42c-57 9 -107 42 -136 91c-34 58 -39 130 -30 196c20 157 104 321 246 401c65 37 147 57 218 26c82 -34 112 -130 89 -212c-22 -81 -87 -163 -180 -156c-40 2 -77 22 -96 57s-21 77 -3 113zM427 873
c-4 32 43 38 44 8c2 -22 20 -38 41 -43c27 -6 53 5 65 30s56 8 42 -20c-20 -42 -65 -65 -113 -57c-40 9 -76 38 -79 82z" />
    <glyph glyph-name="Gcircumflex" unicode="&#x11c;" horiz-adv-x="535" 
d="M278 514c13 27 53 4 40 -23c-13 -28 -5 -68 19 -87c31 -24 77 -16 107 4c32 21 53 57 65 92c14 42 14 90 -10 129c-34 56 -108 60 -165 43c-55 -16 -104 -50 -144 -91c-49 -51 -86 -113 -110 -179c-23 -65 -39 -135 -32 -204c4 -47 22 -94 59 -124c36 -29 88 -38 133 -31
c117 20 165 156 218 246c15 26 54 4 40 -23c0 0 0 -2 -1 -2c-45 -99 -90 -198 -138 -295c-18 -38 -37 -76 -61 -111c-45 -65 -109 -117 -192 -103c-82 14 -115 105 -86 177c5 12 16 20 29 16c11 -3 21 -17 16 -28c-13 -32 -15 -71 9 -98c25 -27 69 -29 101 -15
c36 14 64 46 85 78c23 34 41 70 59 107l24 48c-50 -38 -111 -52 -173 -42c-57 9 -107 42 -136 91c-34 58 -39 130 -30 196c20 157 104 321 246 401c65 37 147 57 218 26c82 -34 112 -130 89 -212c-22 -81 -87 -163 -180 -156c-40 2 -77 22 -96 57s-21 77 -3 113zM603 816
c9 -27 -33 -47 -43 -18c-7 21 -15 42 -23 63c-24 -14 -47 -27 -72 -40c-26 -16 -45 28 -19 42c31 17 62 35 93 52c11 6 26 0 32 -12c11 -28 22 -57 32 -87z" />
    <glyph glyph-name="Gcommaaccent" unicode="&#x122;" horiz-adv-x="525" 
d="M278 514c13 27 53 4 40 -23c-13 -28 -5 -68 19 -87c31 -24 77 -16 107 4c32 21 53 57 65 92c14 42 14 90 -10 129c-34 56 -108 60 -165 43c-55 -16 -104 -50 -144 -91c-49 -51 -86 -113 -110 -179c-23 -65 -39 -135 -32 -204c4 -47 22 -94 59 -124c36 -29 88 -38 133 -31
c117 20 165 156 218 246c15 26 54 4 40 -23c0 0 0 -2 -1 -2c-45 -99 -90 -198 -138 -295c-18 -38 -37 -76 -61 -111c-45 -65 -109 -117 -192 -103c-82 14 -115 105 -86 177c5 12 16 20 29 16c11 -3 21 -17 16 -28c-13 -32 -15 -71 9 -98c25 -27 69 -29 101 -15
c36 14 64 46 85 78c23 34 41 70 59 107l24 48c-50 -38 -111 -52 -173 -42c-57 9 -107 42 -136 91c-34 58 -39 130 -30 196c20 157 104 321 246 401c65 37 147 57 218 26c82 -34 112 -130 89 -212c-22 -81 -87 -163 -180 -156c-40 2 -77 22 -96 57s-21 77 -3 113zM176 -81
c-1 -18 -6 -31 -12 -44c-10 -21 -25 -42 -45 -55c-17 -12 -32 15 -16 26c13 9 22 22 29 35c-9 3 -16 10 -19 19c-5 14 0 30 12 42c7 7 15 8 24 8c12 0 27 -12 27 -31z" />
    <glyph glyph-name="Gdotaccent" unicode="&#x120;" horiz-adv-x="526" 
d="M278 514c13 27 53 4 40 -23c-13 -28 -5 -68 19 -87c31 -24 77 -16 107 4c32 21 53 57 65 92c14 42 14 90 -10 129c-34 56 -108 60 -165 43c-55 -16 -104 -50 -144 -91c-49 -51 -86 -113 -110 -179c-23 -65 -39 -135 -32 -204c4 -47 22 -94 59 -124c36 -29 88 -38 133 -31
c117 20 165 156 218 246c15 26 54 4 40 -23c0 0 0 -2 -1 -2c-45 -99 -90 -198 -138 -295c-18 -38 -37 -76 -61 -111c-45 -65 -109 -117 -192 -103c-82 14 -115 105 -86 177c5 12 16 20 29 16c11 -3 21 -17 16 -28c-13 -32 -15 -71 9 -98c25 -27 69 -29 101 -15
c36 14 64 46 85 78c23 34 41 70 59 107l24 48c-50 -38 -111 -52 -173 -42c-57 9 -107 42 -136 91c-34 58 -39 130 -30 196c20 157 104 321 246 401c65 37 147 57 218 26c82 -34 112 -130 89 -212c-22 -81 -87 -163 -180 -156c-40 2 -77 22 -96 57s-21 77 -3 113zM565 840
c3 -16 -2 -34 -15 -44c-17 -11 -40 -3 -46 16c-4 13 0 29 12 41c7 7 15 8 24 8c12 0 22 -9 25 -21z" />
    <glyph glyph-name="Hbar" unicode="&#x126;" horiz-adv-x="883" 
d="M861 436l-353 89c-30 7 -18 52 11 45c67 -18 286 -74 353 -89c30 -6 18 -52 -11 -45zM765 307c-26 -59 -55 -119 -69 -183c-4 -21 -9 -51 4 -70c12 -18 34 -22 52 -14c27 11 49 37 66 59c23 29 43 61 61 93c15 27 55 3 40 -23c-23 -40 -47 -79 -77 -114
c-24 -28 -54 -57 -91 -64c-31 -6 -63 5 -83 29c-21 25 -25 58 -21 89c8 72 42 140 71 207c2 4 4 8 5 12c-60 -25 -128 0 -186 27c-4 2 -8 4 -13 6c-6 -17 -13 -33 -21 -50c-44 -102 -95 -214 -180 -289c-36 -32 -78 -55 -125 -59c-55 -5 -116 11 -153 53
c-67 76 -53 205 11 278c47 53 134 76 196 34c45 -30 68 -94 37 -143c-16 -25 -56 -1 -40 24c10 15 10 35 1 54c-12 25 -39 38 -65 40c-61 5 -108 -44 -126 -96c-26 -77 -8 -173 82 -194c42 -10 80 -4 115 17c36 21 65 53 90 87c57 80 98 171 136 262
c-52 18 -111 26 -130 -36c-9 -28 -54 -16 -45 13c8 24 23 46 43 62c18 15 40 20 63 20c31 2 59 -6 87 -16c34 84 65 170 103 253c-70 12 -136 46 -209 50c-49 3 -105 -2 -144 -36c-31 -28 -51 -75 -46 -119c6 -48 47 -85 96 -87c53 -1 98 44 100 98c1 30 47 30 46 0
c-2 -80 -70 -150 -152 -144c-64 5 -122 51 -134 115c-11 58 10 122 51 164c45 45 111 58 173 56c43 -1 85 -11 126 -24s82 -28 125 -30c9 -1 20 -7 23 -13c4 -7 4 -15 1 -22c0 0 0 -1 -1 -1c-45 -90 -79 -185 -116 -279c27 -12 54 -25 83 -33c36 -10 74 -9 104 14
c21 16 35 39 47 63c39 86 79 173 119 259c13 27 53 3 40 -24c-29 -64 -152 -334 -170 -375z" />
    <glyph glyph-name="Hcircumflex" unicode="&#x124;" horiz-adv-x="883" 
d="M765 307c-26 -59 -55 -119 -69 -183c-4 -21 -9 -51 4 -70c12 -18 34 -22 52 -14c27 11 49 37 66 59c23 29 43 61 61 93c15 27 55 3 40 -23c-23 -40 -47 -79 -77 -114c-24 -28 -54 -57 -91 -64c-31 -6 -63 5 -83 29c-21 25 -25 58 -21 89c8 72 42 140 71 207c2 4 4 8 5 12
c-60 -25 -128 0 -186 27c-4 2 -8 4 -13 6c-6 -17 -13 -33 -21 -50c-44 -102 -95 -214 -180 -289c-36 -32 -78 -55 -125 -59c-55 -5 -116 11 -153 53c-67 76 -53 205 11 278c47 53 134 76 196 34c45 -30 68 -94 37 -143c-16 -25 -56 -1 -40 24c10 15 10 35 1 54
c-12 25 -39 38 -65 40c-61 5 -108 -44 -126 -96c-26 -77 -8 -173 82 -194c42 -10 80 -4 115 17c36 21 65 53 90 87c57 80 98 171 136 262c-52 18 -111 26 -130 -36c-9 -28 -54 -16 -45 13c8 24 23 46 43 62c18 15 40 20 63 20c31 2 59 -6 87 -16c34 84 65 170 103 253
c-70 12 -136 46 -209 50c-49 3 -105 -2 -144 -36c-31 -28 -51 -75 -46 -119c6 -48 47 -85 96 -87c53 -1 98 44 100 98c1 30 47 30 46 0c-2 -80 -70 -150 -152 -144c-64 5 -122 51 -134 115c-11 58 10 122 51 164c45 45 111 58 173 56c43 -1 85 -11 126 -24s82 -28 125 -30
c9 -1 20 -7 23 -13c4 -7 4 -15 1 -22c0 0 0 -1 -1 -1c-45 -90 -79 -185 -116 -279c27 -12 54 -25 83 -33c36 -10 74 -9 104 14c21 16 35 39 47 63c39 86 79 173 119 259c13 27 53 3 40 -24c-29 -64 -152 -334 -170 -375zM897 816c9 -27 -33 -47 -43 -18c-7 21 -15 42 -23 63
c-24 -14 -47 -27 -72 -40c-26 -16 -45 28 -19 42c31 17 62 35 93 52c11 6 26 0 32 -12c11 -28 22 -57 32 -87z" />
    <glyph glyph-name="Iacute" unicode="&#xcd;" horiz-adv-x="510" 
d="M595 701c6 -12 -3 -27 -6 -30c-27 -30 -47 -72 -62 -112c-21 -53 -37 -108 -54 -163c-46 -155 -116 -450 -337 -412c-58 10 -105 50 -125 105c-22 60 -7 136 30 187c37 50 99 76 161 64c68 -14 110 -79 97 -146c-5 -30 -50 -17 -44 12c12 64 -53 100 -109 87
c-60 -13 -94 -73 -98 -131c-4 -50 16 -97 61 -121c38 -20 88 -17 123 0c68 32 106 107 133 176c36 88 59 181 88 271c19 60 39 125 75 179c-52 -6 -100 -26 -135 -67c-40 -46 -66 -123 -54 -182c6 -30 -39 -42 -45 -13c-15 77 14 166 64 225c53 63 133 88 213 84
c10 1 19 -4 24 -13zM624 842l70 65c21 20 50 -15 28 -36c-23 -22 -45 -44 -69 -66c-9 -8 -25 -6 -32 3c-8 12 -5 24 3 34z" />
    <glyph glyph-name="Ibreve" unicode="&#x12c;" horiz-adv-x="519" 
d="M595 701c6 -12 -3 -27 -6 -30c-27 -30 -47 -72 -62 -112c-21 -53 -37 -108 -54 -163c-46 -155 -116 -450 -337 -412c-58 10 -105 50 -125 105c-22 60 -7 136 30 187c37 50 99 76 161 64c68 -14 110 -79 97 -146c-5 -30 -50 -17 -44 12c12 64 -53 100 -109 87
c-60 -13 -94 -73 -98 -131c-4 -50 16 -97 61 -121c38 -20 88 -17 123 0c68 32 106 107 133 176c36 88 59 181 88 271c19 60 39 125 75 179c-52 -6 -100 -26 -135 -67c-40 -46 -66 -123 -54 -182c6 -30 -39 -42 -45 -13c-15 77 14 166 64 225c53 63 133 88 213 84
c10 1 19 -4 24 -13zM574 873c-4 32 43 38 44 8c2 -22 20 -38 41 -43c27 -6 53 5 65 30s56 8 42 -20c-20 -42 -65 -65 -113 -57c-40 9 -76 38 -79 82z" />
    <glyph glyph-name="Icircumflex" unicode="&#xce;" horiz-adv-x="520" 
d="M595 701c6 -12 -3 -27 -6 -30c-27 -30 -47 -72 -62 -112c-21 -53 -37 -108 -54 -163c-46 -155 -116 -450 -337 -412c-58 10 -105 50 -125 105c-22 60 -7 136 30 187c37 50 99 76 161 64c68 -14 110 -79 97 -146c-5 -30 -50 -17 -44 12c12 64 -53 100 -109 87
c-60 -13 -94 -73 -98 -131c-4 -50 16 -97 61 -121c38 -20 88 -17 123 0c68 32 106 107 133 176c36 88 59 181 88 271c19 60 39 125 75 179c-52 -6 -100 -26 -135 -67c-40 -46 -66 -123 -54 -182c6 -30 -39 -42 -45 -13c-15 77 14 166 64 225c53 63 133 88 213 84
c10 1 19 -4 24 -13zM738 816c9 -27 -33 -47 -43 -18c-7 21 -15 42 -23 63c-24 -14 -47 -27 -72 -40c-26 -16 -45 28 -19 42c31 17 62 35 93 52c11 6 26 0 32 -12c11 -28 22 -57 32 -87z" />
    <glyph glyph-name="Idieresis" unicode="&#xcf;" horiz-adv-x="516" 
d="M595 701c6 -12 -3 -27 -6 -30c-27 -30 -47 -72 -62 -112c-21 -53 -37 -108 -54 -163c-46 -155 -116 -450 -337 -412c-58 10 -105 50 -125 105c-22 60 -7 136 30 187c37 50 99 76 161 64c68 -14 110 -79 97 -146c-5 -30 -50 -17 -44 12c12 64 -53 100 -109 87
c-60 -13 -94 -73 -98 -131c-4 -50 16 -97 61 -121c38 -20 88 -17 123 0c68 32 106 107 133 176c36 88 59 181 88 271c19 60 39 125 75 179c-52 -6 -100 -26 -135 -67c-40 -46 -66 -123 -54 -182c6 -30 -39 -42 -45 -13c-15 77 14 166 64 225c53 63 133 88 213 84
c10 1 19 -4 24 -13zM629 850c3 -16 -2 -34 -15 -44c-17 -11 -40 -3 -46 16c-4 13 0 29 12 41c7 7 15 8 24 8c12 0 22 -9 25 -21zM735 850c3 -16 -2 -34 -15 -44c-17 -11 -40 -3 -46 16c-4 13 0 29 12 41c7 7 16 8 24 8c12 0 22 -9 25 -21z" />
    <glyph glyph-name="Idotaccent" unicode="&#x130;" horiz-adv-x="515" 
d="M595 701c6 -12 -3 -27 -6 -30c-27 -30 -47 -72 -62 -112c-21 -53 -37 -108 -54 -163c-46 -155 -116 -450 -337 -412c-58 10 -105 50 -125 105c-22 60 -7 136 30 187c37 50 99 76 161 64c68 -14 110 -79 97 -146c-5 -30 -50 -17 -44 12c12 64 -53 100 -109 87
c-60 -13 -94 -73 -98 -131c-4 -50 16 -97 61 -121c38 -20 88 -17 123 0c68 32 106 107 133 176c36 88 59 181 88 271c19 60 39 125 75 179c-52 -6 -100 -26 -135 -67c-40 -46 -66 -123 -54 -182c6 -30 -39 -42 -45 -13c-15 77 14 166 64 225c53 63 133 88 213 84
c10 1 19 -4 24 -13zM704 840c3 -16 -2 -34 -15 -44c-17 -11 -40 -3 -46 16c-4 13 0 29 12 41c7 7 15 8 24 8c12 0 22 -9 25 -21z" />
    <glyph glyph-name="Igrave" unicode="&#xcc;" horiz-adv-x="520" 
d="M595 701c6 -12 -3 -27 -6 -30c-27 -30 -47 -72 -62 -112c-21 -53 -37 -108 -54 -163c-46 -155 -116 -450 -337 -412c-58 10 -105 50 -125 105c-22 60 -7 136 30 187c37 50 99 76 161 64c68 -14 110 -79 97 -146c-5 -30 -50 -17 -44 12c12 64 -53 100 -109 87
c-60 -13 -94 -73 -98 -131c-4 -50 16 -97 61 -121c38 -20 88 -17 123 0c68 32 106 107 133 176c36 88 59 181 88 271c19 60 39 125 75 179c-52 -6 -100 -26 -135 -67c-40 -46 -66 -123 -54 -182c6 -30 -39 -42 -45 -13c-15 77 14 166 64 225c53 63 133 88 213 84
c10 1 19 -4 24 -13zM583 909l52 -80c6 -11 6 -24 -5 -33c-8 -7 -25 -6 -32 4c-17 27 -33 54 -51 81c-16 25 21 53 36 28z" />
    <glyph glyph-name="Imacron" unicode="&#x12a;" horiz-adv-x="521" 
d="M595 701c6 -12 -3 -27 -6 -30c-27 -30 -47 -72 -62 -112c-21 -53 -37 -108 -54 -163c-46 -155 -116 -450 -337 -412c-58 10 -105 50 -125 105c-22 60 -7 136 30 187c37 50 99 76 161 64c68 -14 110 -79 97 -146c-5 -30 -50 -17 -44 12c12 64 -53 100 -109 87
c-60 -13 -94 -73 -98 -131c-4 -50 16 -97 61 -121c38 -20 88 -17 123 0c68 32 106 107 133 176c36 88 59 181 88 271c19 60 39 125 75 179c-52 -6 -100 -26 -135 -67c-40 -46 -66 -123 -54 -182c6 -30 -39 -42 -45 -13c-15 77 14 166 64 225c53 63 133 88 213 84
c10 1 19 -4 24 -13zM688 818h-136c-30 0 -30 46 0 46h136c30 0 30 -46 0 -46z" />
    <glyph glyph-name="Iogonek" unicode="&#x12e;" horiz-adv-x="518" 
d="M595 701c6 -12 -3 -27 -6 -30c-27 -30 -47 -72 -62 -112c-21 -53 -37 -108 -54 -163c-46 -155 -116 -450 -337 -412c-58 10 -105 50 -125 105c-22 60 -7 136 30 187c37 50 99 76 161 64c68 -14 110 -79 97 -146c-5 -30 -50 -17 -44 12c12 64 -53 100 -109 87
c-60 -13 -94 -73 -98 -131c-4 -50 16 -97 61 -121c38 -20 88 -17 123 0c68 32 106 107 133 176c36 88 59 181 88 271c19 60 39 125 75 179c-52 -6 -100 -26 -135 -67c-40 -46 -66 -123 -54 -182c6 -30 -39 -42 -45 -13c-15 77 14 166 64 225c53 63 133 88 213 84
c10 1 19 -4 24 -13zM185 -105c31 -1 31 -47 1 -46c-45 1 -79 34 -79 79c0 47 35 87 79 99c29 8 40 -35 12 -44c-22 -7 -43 -27 -45 -51c-1 -21 11 -36 32 -37z" />
    <glyph glyph-name="Itilde" unicode="&#x128;" horiz-adv-x="515" 
d="M595 701c6 -12 -3 -27 -6 -30c-27 -30 -47 -72 -62 -112c-21 -53 -37 -108 -54 -163c-46 -155 -116 -450 -337 -412c-58 10 -105 50 -125 105c-22 60 -7 136 30 187c37 50 99 76 161 64c68 -14 110 -79 97 -146c-5 -30 -50 -17 -44 12c12 64 -53 100 -109 87
c-60 -13 -94 -73 -98 -131c-4 -50 16 -97 61 -121c38 -20 88 -17 123 0c68 32 106 107 133 176c36 88 59 181 88 271c19 60 39 125 75 179c-52 -6 -100 -26 -135 -67c-40 -46 -66 -123 -54 -182c6 -30 -39 -42 -45 -13c-15 77 14 166 64 225c53 63 133 88 213 84
c10 1 19 -4 24 -13zM556 837c-14 -29 -54 -6 -41 21c10 21 29 38 52 42c21 4 38 -3 54 -15c13 -10 25 -24 39 -32c17 -9 32 0 38 17c10 28 54 16 45 -13c-8 -22 -21 -41 -44 -49c-21 -8 -47 -5 -66 7c-15 10 -26 24 -41 34c-16 11 -28 5 -36 -12z" />
    <glyph glyph-name="Jcircumflex" unicode="&#x134;" horiz-adv-x="587" 
d="M685 698c17 -1 24 -15 22 -28c-2 -12 -12 -19 -23 -18c-13 0 -21 -2 -23 -3c-33 -7 -59 -29 -79 -55c-26 -35 -45 -76 -60 -115c-39 -97 -66 -199 -110 -294c-37 -83 -93 -168 -185 -195c-64 -18 -138 -3 -184 47c-53 57 -52 135 -21 202c28 64 87 109 159 106
c78 -4 134 -72 120 -149c-6 -30 -51 -17 -45 12c6 34 -12 67 -43 82c-27 13 -61 11 -87 -2c-60 -28 -94 -115 -74 -177c18 -56 76 -86 133 -82c40 3 74 23 102 48c62 59 95 149 124 230c32 88 57 180 101 263c21 39 48 76 84 100c-58 16 -114 35 -172 48
c-60 12 -134 16 -187 -18c-36 -23 -60 -68 -62 -111c-2 -52 35 -99 88 -105c57 -7 107 40 109 97c1 30 47 30 46 0c-1 -41 -19 -81 -49 -108c-31 -29 -72 -40 -113 -35c-71 10 -125 69 -127 141c-2 59 28 121 77 156c61 44 147 43 218 30c89 -16 194 -62 261 -67zM755 816
c9 -27 -33 -47 -43 -18c-7 21 -15 42 -23 63c-24 -14 -47 -27 -72 -40c-26 -16 -45 28 -19 42c31 17 62 35 93 52c11 6 26 0 32 -12c11 -28 22 -57 32 -87z" />
    <glyph glyph-name="Kcommaaccent" unicode="&#x136;" horiz-adv-x="814" 
d="M947 689c26 -15 3 -55 -23 -40c-56 33 -122 -9 -166 -45c-61 -50 -112 -111 -157 -175c39 11 81 4 101 -39c13 -29 10 -62 4 -93c-9 -42 -26 -82 -45 -120c-16 -34 -41 -73 -38 -112c2 -21 21 -31 41 -26c31 8 56 34 77 56c26 30 49 63 68 97c14 26 54 3 40 -23
c-22 -40 -49 -78 -80 -112c-26 -27 -58 -56 -96 -64c-30 -6 -62 2 -81 27c-20 27 -17 63 -9 93c23 78 83 147 82 232c0 22 -6 36 -26 42c-21 6 -46 -6 -64 -21c-43 -33 -77 -84 -103 -133c-4 -8 -15 -31 -16 -32c-34 -64 -73 -126 -126 -174c-33 -31 -73 -56 -119 -63
c-56 -8 -118 6 -159 46c-74 72 -63 202 0 277c48 56 135 85 201 42c45 -30 70 -95 38 -144c-16 -25 -56 -1 -40 24c10 15 10 35 1 54c-12 25 -38 38 -65 40c-61 5 -113 -48 -130 -101c-13 -39 -14 -81 1 -119c16 -39 51 -64 93 -72c43 -7 79 1 114 23c34 22 64 56 88 90
c25 34 46 70 66 106c6 14 13 27 20 40c65 133 110 277 173 411c-72 9 -140 41 -213 44c-49 3 -104 -2 -142 -37c-31 -28 -51 -76 -46 -119c7 -49 49 -85 98 -86c53 -1 97 45 98 98c1 30 48 30 47 0c-3 -79 -68 -148 -148 -144c-65 3 -123 47 -138 111c-13 58 8 123 49 166
c44 46 110 60 172 58c44 -1 87 -10 129 -22c41 -12 82 -24 125 -25c12 0 24 -6 27 -15c2 -7 1 -14 -2 -20c-36 -71 -65 -145 -94 -219c47 66 101 128 165 177c58 45 138 83 208 41zM494 -53c-1 -18 -6 -31 -12 -44c-10 -21 -25 -42 -45 -55c-17 -12 -32 15 -16 26
c13 9 22 22 29 35c-9 3 -16 10 -19 19c-5 14 0 30 12 42c7 7 15 8 24 8c12 0 27 -12 27 -31z" />
    <glyph glyph-name="Lacute" unicode="&#x139;" horiz-adv-x="631" 
d="M329 240c-31 -70 -65 -140 -112 -200v-1c30 -23 60 -48 90 -72c98 -75 241 -119 354 -49c25 16 49 -25 23 -40c-27 -17 -56 -29 -87 -35c-64 -13 -131 -6 -192 17c-66 24 -120 65 -173 109l-45 36c-34 -34 -75 -61 -122 -69c-49 -9 -115 -4 -148 38c-36 45 -9 109 37 134
c58 31 127 13 181 -16c16 -8 30 -17 44 -26c30 37 53 79 74 122c41 81 72 167 107 251c-74 13 -142 49 -188 107c-8 9 -10 23 0 32c9 9 25 10 33 0c15 -18 32 -35 52 -49c36 -24 78 -39 121 -46c22 50 45 99 73 146c31 52 71 106 129 129c33 14 73 15 105 -2
c61 -31 57 -102 33 -156c-52 -118 -183 -174 -309 -167c-27 -64 -52 -129 -80 -193zM523 654c-39 -49 -81 -143 -95 -175c39 0 77 7 113 20c48 17 90 48 118 90c24 36 54 110 -5 130c-37 13 -76 2 -131 -65zM-4 -18c41 -7 106 5 152 50c-31 20 -65 37 -101 43
c-25 5 -52 4 -74 -10c-16 -11 -31 -33 -25 -52c5 -19 30 -29 48 -31zM645 872l70 65c21 20 50 -15 28 -36c-23 -22 -45 -44 -69 -66c-9 -8 -25 -6 -32 3c-8 12 -5 24 3 34z" />
    <glyph glyph-name="Lcaron" unicode="&#x13d;" horiz-adv-x="615" 
d="M329 240c-31 -70 -65 -140 -112 -200v-1c30 -23 60 -48 90 -72c98 -75 241 -119 354 -49c25 16 49 -25 23 -40c-27 -17 -56 -29 -87 -35c-64 -13 -131 -6 -192 17c-66 24 -120 65 -173 109l-45 36c-34 -34 -75 -61 -122 -69c-49 -9 -115 -4 -148 38c-36 45 -9 109 37 134
c58 31 127 13 181 -16c16 -8 30 -17 44 -26c30 37 53 79 74 122c41 81 72 167 107 251c-74 13 -142 49 -188 107c-8 9 -10 23 0 32c9 9 25 10 33 0c15 -18 32 -35 52 -49c36 -24 78 -39 121 -46c22 50 45 99 73 146c31 52 71 106 129 129c33 14 73 15 105 -2
c61 -31 57 -102 33 -156c-52 -118 -183 -174 -309 -167c-27 -64 -52 -129 -80 -193zM523 654c-39 -49 -81 -143 -95 -175c39 0 77 7 113 20c48 17 90 48 118 90c24 36 54 110 -5 130c-37 13 -76 2 -131 -65zM-4 -18c41 -7 106 5 152 50c-31 20 -65 37 -101 43
c-25 5 -52 4 -74 -10c-16 -11 -31 -33 -25 -52c5 -19 30 -29 48 -31zM497 378c-1 -18 -6 -31 -12 -44c-10 -21 -25 -42 -45 -55c-17 -12 -32 15 -16 26c13 9 22 22 29 35c-9 3 -16 10 -19 19c-5 14 0 30 12 42c7 7 15 8 24 8c12 0 27 -12 27 -31z" />
    <glyph glyph-name="Lcommaaccent" unicode="&#x13b;" horiz-adv-x="625" 
d="M329 240c-31 -70 -65 -140 -112 -200v-1c30 -23 60 -48 90 -72c98 -75 241 -119 354 -49c25 16 49 -25 23 -40c-27 -17 -56 -29 -87 -35c-64 -13 -131 -6 -192 17c-66 24 -120 65 -173 109l-45 36c-34 -34 -75 -61 -122 -69c-49 -9 -115 -4 -148 38c-36 45 -9 109 37 134
c58 31 127 13 181 -16c16 -8 30 -17 44 -26c30 37 53 79 74 122c41 81 72 167 107 251c-74 13 -142 49 -188 107c-8 9 -10 23 0 32c9 9 25 10 33 0c15 -18 32 -35 52 -49c36 -24 78 -39 121 -46c22 50 45 99 73 146c31 52 71 106 129 129c33 14 73 15 105 -2
c61 -31 57 -102 33 -156c-52 -118 -183 -174 -309 -167c-27 -64 -52 -129 -80 -193zM523 654c-39 -49 -81 -143 -95 -175c39 0 77 7 113 20c48 17 90 48 118 90c24 36 54 110 -5 130c-37 13 -76 2 -131 -65zM-4 -18c41 -7 106 5 152 50c-31 20 -65 37 -101 43
c-25 5 -52 4 -74 -10c-16 -11 -31 -33 -25 -52c5 -19 30 -29 48 -31zM209 -153c-1 -18 -6 -31 -12 -44c-10 -21 -25 -42 -45 -55c-17 -12 -32 15 -16 26c13 9 22 22 29 35c-9 3 -16 10 -19 19c-5 14 0 30 12 42c7 7 15 8 24 8c12 0 27 -12 27 -31z" />
    <glyph glyph-name="Ldot" unicode="&#x13f;" horiz-adv-x="625" 
d="M478 365c3 -16 -2 -34 -15 -44c-17 -11 -40 -3 -46 16c-4 13 0 29 12 41c7 7 15 8 24 8c12 0 22 -9 25 -21zM329 240c-31 -70 -65 -140 -112 -200v-1c30 -23 60 -48 90 -72c98 -75 241 -119 354 -49c25 16 49 -25 23 -40c-27 -17 -56 -29 -87 -35
c-64 -13 -131 -6 -192 17c-66 24 -120 65 -173 109l-45 36c-34 -34 -75 -61 -122 -69c-49 -9 -115 -4 -148 38c-36 45 -9 109 37 134c58 31 127 13 181 -16c16 -8 30 -17 44 -26c30 37 53 79 74 122c41 81 72 167 107 251c-74 13 -142 49 -188 107c-8 9 -10 23 0 32
c9 9 25 10 33 0c15 -18 32 -35 52 -49c36 -24 78 -39 121 -46c22 50 45 99 73 146c31 52 71 106 129 129c33 14 73 15 105 -2c61 -31 57 -102 33 -156c-52 -118 -183 -174 -309 -167c-27 -64 -52 -129 -80 -193zM523 654c-39 -49 -81 -143 -95 -175c39 0 77 7 113 20
c48 17 90 48 118 90c24 36 54 110 -5 130c-37 13 -76 2 -131 -65zM-4 -18c41 -7 106 5 152 50c-31 20 -65 37 -101 43c-25 5 -52 4 -74 -10c-16 -11 -31 -33 -25 -52c5 -19 30 -29 48 -31z" />
    <glyph glyph-name="Lslash" unicode="&#x141;" horiz-adv-x="615" 
d="M469 318l-282 -111c-27 -11 -45 31 -16 43c63 25 218 84 282 111c27 12 45 -31 16 -43zM329 240c-31 -70 -65 -140 -112 -200v-1c30 -23 60 -48 90 -72c98 -75 241 -119 354 -49c25 16 49 -25 23 -40c-27 -17 -56 -29 -87 -35c-64 -13 -131 -6 -192 17
c-66 24 -120 65 -173 109l-45 36c-34 -34 -75 -61 -122 -69c-49 -9 -115 -4 -148 38c-36 45 -9 109 37 134c58 31 127 13 181 -16c16 -8 30 -17 44 -26c30 37 53 79 74 122c41 81 72 167 107 251c-74 13 -142 49 -188 107c-8 9 -10 23 0 32c9 9 25 10 33 0
c15 -18 32 -35 52 -49c36 -24 78 -39 121 -46c22 50 45 99 73 146c31 52 71 106 129 129c33 14 73 15 105 -2c61 -31 57 -102 33 -156c-52 -118 -183 -174 -309 -167c-27 -64 -52 -129 -80 -193zM523 654c-39 -49 -81 -143 -95 -175c39 0 77 7 113 20c48 17 90 48 118 90
c24 36 54 110 -5 130c-37 13 -76 2 -131 -65zM-4 -18c41 -7 106 5 152 50c-31 20 -65 37 -101 43c-25 5 -52 4 -74 -10c-16 -11 -31 -33 -25 -52c5 -19 30 -29 48 -31z" />
    <glyph glyph-name="Nacute" unicode="&#x143;" horiz-adv-x="692" 
d="M687 192c16 25 56 2 41 -24c-31 -50 -63 -105 -108 -143c-39 -33 -92 -50 -138 -20c-78 50 -27 166 0 230c24 58 51 115 76 173c22 49 45 103 45 157c0 31 -11 57 -37 68c-31 13 -64 4 -90 -17c-58 -47 -94 -138 -118 -192s-129 -287 -188 -422c-5 -11 -22 -14 -32 -8
c-11 7 -13 20 -8 32c57 132 122 260 176 393c30 71 51 163 12 234c-38 69 -135 82 -202 49c-61 -31 -99 -110 -87 -177c8 -47 42 -82 91 -85c45 -2 88 21 108 61c14 27 54 3 40 -24c-28 -55 -93 -89 -155 -83c-68 7 -119 55 -130 123c-14 86 31 186 110 225
c85 43 206 28 260 -57c20 -31 30 -67 32 -103c21 32 46 61 78 81c64 42 161 22 182 -58c12 -46 1 -96 -14 -140c-21 -61 -50 -120 -76 -179c-22 -49 -45 -99 -59 -151c-5 -18 -9 -37 -8 -56c1 -12 4 -22 13 -30c28 -26 68 -8 93 16c39 36 66 82 93 127zM593 842l70 65
c21 20 50 -15 28 -36c-23 -22 -45 -44 -69 -66c-9 -8 -25 -6 -32 3c-8 12 -5 24 3 34z" />
    <glyph glyph-name="Ncaron" unicode="&#x147;" horiz-adv-x="692" 
d="M687 192c16 25 56 2 41 -24c-31 -50 -63 -105 -108 -143c-39 -33 -92 -50 -138 -20c-78 50 -27 166 0 230c24 58 51 115 76 173c22 49 45 103 45 157c0 31 -11 57 -37 68c-31 13 -64 4 -90 -17c-58 -47 -94 -138 -118 -192s-129 -287 -188 -422c-5 -11 -22 -14 -32 -8
c-11 7 -13 20 -8 32c57 132 122 260 176 393c30 71 51 163 12 234c-38 69 -135 82 -202 49c-61 -31 -99 -110 -87 -177c8 -47 42 -82 91 -85c45 -2 88 21 108 61c14 27 54 3 40 -24c-28 -55 -93 -89 -155 -83c-68 7 -119 55 -130 123c-14 86 31 186 110 225
c85 43 206 28 260 -57c20 -31 30 -67 32 -103c21 32 46 61 78 81c64 42 161 22 182 -58c12 -46 1 -96 -14 -140c-21 -61 -50 -120 -76 -179c-22 -49 -45 -99 -59 -151c-5 -18 -9 -37 -8 -56c1 -12 4 -22 13 -30c28 -26 68 -8 93 16c39 36 66 82 93 127zM541 874
c-12 26 28 50 40 23l30 -60c23 16 45 32 67 48c25 18 48 -23 24 -40c-29 -20 -58 -42 -87 -62c-10 -7 -26 -2 -32 8c-15 27 -29 55 -42 83z" />
    <glyph glyph-name="Ncommaaccent" unicode="&#x145;" horiz-adv-x="692" 
d="M687 192c16 25 56 2 41 -24c-31 -50 -63 -105 -108 -143c-39 -33 -92 -50 -138 -20c-78 50 -27 166 0 230c24 58 51 115 76 173c22 49 45 103 45 157c0 31 -11 57 -37 68c-31 13 -64 4 -90 -17c-58 -47 -94 -138 -118 -192s-129 -287 -188 -422c-5 -11 -22 -14 -32 -8
c-11 7 -13 20 -8 32c57 132 122 260 176 393c30 71 51 163 12 234c-38 69 -135 82 -202 49c-61 -31 -99 -110 -87 -177c8 -47 42 -82 91 -85c45 -2 88 21 108 61c14 27 54 3 40 -24c-28 -55 -93 -89 -155 -83c-68 7 -119 55 -130 123c-14 86 31 186 110 225
c85 43 206 28 260 -57c20 -31 30 -67 32 -103c21 32 46 61 78 81c64 42 161 22 182 -58c12 -46 1 -96 -14 -140c-21 -61 -50 -120 -76 -179c-22 -49 -45 -99 -59 -151c-5 -18 -9 -37 -8 -56c1 -12 4 -22 13 -30c28 -26 68 -8 93 16c39 36 66 82 93 127zM320 -70
c-1 -18 -6 -31 -12 -44c-10 -21 -25 -42 -45 -55c-17 -12 -32 15 -16 26c13 9 22 22 29 35c-9 3 -16 10 -19 19c-5 14 0 30 12 42c7 7 15 8 24 8c12 0 27 -12 27 -31z" />
    <glyph glyph-name="Ntilde" unicode="&#xd1;" horiz-adv-x="694" 
d="M687 192c16 25 56 2 41 -24c-31 -50 -63 -105 -108 -143c-39 -33 -92 -50 -138 -20c-78 50 -27 166 0 230c24 58 51 115 76 173c22 49 45 103 45 157c0 31 -11 57 -37 68c-31 13 -64 4 -90 -17c-58 -47 -94 -138 -118 -192s-129 -287 -188 -422c-5 -11 -22 -14 -32 -8
c-11 7 -13 20 -8 32c57 132 122 260 176 393c30 71 51 163 12 234c-38 69 -135 82 -202 49c-61 -31 -99 -110 -87 -177c8 -47 42 -82 91 -85c45 -2 88 21 108 61c14 27 54 3 40 -24c-28 -55 -93 -89 -155 -83c-68 7 -119 55 -130 123c-14 86 31 186 110 225
c85 43 206 28 260 -57c20 -31 30 -67 32 -103c21 32 46 61 78 81c64 42 161 22 182 -58c12 -46 1 -96 -14 -140c-21 -61 -50 -120 -76 -179c-22 -49 -45 -99 -59 -151c-5 -18 -9 -37 -8 -56c1 -12 4 -22 13 -30c28 -26 68 -8 93 16c39 36 66 82 93 127zM550 790
c-14 -29 -54 -6 -41 21c10 21 29 38 52 42c21 4 38 -3 54 -15c13 -10 25 -24 39 -32c17 -9 32 0 38 17c10 28 54 16 45 -13c-8 -22 -21 -41 -44 -49c-21 -8 -47 -5 -66 7c-15 10 -26 24 -41 34c-16 11 -28 5 -36 -12z" />
    <glyph glyph-name="Oacute" unicode="&#xd3;" horiz-adv-x="467" 
d="M474 452c-20 -81 -54 -160 -93 -233c-35 -65 -78 -131 -134 -179c-42 -35 -97 -62 -152 -45c-1 1 -2 1 -3 1c-1 1 -2 1 -2 1c-140 56 -83 248 -43 353c29 73 63 145 106 210c32 49 70 96 118 128c35 24 77 37 118 28c45 -9 78 -44 91 -86c19 -57 8 -122 -6 -178zM238 96
c56 57 96 130 130 202c30 64 56 132 69 202c8 42 12 94 -8 132c-14 28 -42 45 -71 41c-49 -7 -76 -33 -91 -47c-42 -38 -74 -86 -102 -135c-34 -59 -63 -122 -85 -187c-18 -51 -33 -106 -32 -161c0 -43 14 -86 57 -102c51 -17 99 20 133 55zM501 842l70 65
c21 20 50 -15 28 -36c-23 -22 -45 -44 -69 -66c-9 -8 -25 -6 -32 3c-8 12 -5 24 3 34z" />
    <glyph glyph-name="Obreve" unicode="&#x14e;" horiz-adv-x="481" 
d="M474 452c-20 -81 -54 -160 -93 -233c-35 -65 -78 -131 -134 -179c-42 -35 -97 -62 -152 -45c-1 1 -2 1 -3 1c-1 1 -2 1 -2 1c-140 56 -83 248 -43 353c29 73 63 145 106 210c32 49 70 96 118 128c35 24 77 37 118 28c45 -9 78 -44 91 -86c19 -57 8 -122 -6 -178zM238 96
c56 57 96 130 130 202c30 64 56 132 69 202c8 42 12 94 -8 132c-14 28 -42 45 -71 41c-49 -7 -76 -33 -91 -47c-42 -38 -74 -86 -102 -135c-34 -59 -63 -122 -85 -187c-18 -51 -33 -106 -32 -161c0 -43 14 -86 57 -102c51 -17 99 20 133 55zM446 873c-4 32 43 38 44 8
c2 -22 20 -38 41 -43c27 -6 53 5 65 30s56 8 42 -20c-20 -42 -65 -65 -113 -57c-40 9 -76 38 -79 82z" />
    <glyph glyph-name="Ocircumflex" unicode="&#xd4;" horiz-adv-x="462" 
d="M474 452c-20 -81 -54 -160 -93 -233c-35 -65 -78 -131 -134 -179c-42 -35 -97 -62 -152 -45c-1 1 -2 1 -3 1c-1 1 -2 1 -2 1c-140 56 -83 248 -43 353c29 73 63 145 106 210c32 49 70 96 118 128c35 24 77 37 118 28c45 -9 78 -44 91 -86c19 -57 8 -122 -6 -178zM238 96
c56 57 96 130 130 202c30 64 56 132 69 202c8 42 12 94 -8 132c-14 28 -42 45 -71 41c-49 -7 -76 -33 -91 -47c-42 -38 -74 -86 -102 -135c-34 -59 -63 -122 -85 -187c-18 -51 -33 -106 -32 -161c0 -43 14 -86 57 -102c51 -17 99 20 133 55zM620 816c9 -27 -33 -47 -43 -18
c-7 21 -15 42 -23 63c-24 -14 -47 -27 -72 -40c-26 -16 -45 28 -19 42c31 17 62 35 93 52c11 6 26 0 32 -12c11 -28 22 -57 32 -87z" />
    <glyph glyph-name="Odieresis" unicode="&#xd6;" horiz-adv-x="467" 
d="M474 452c-20 -81 -54 -160 -93 -233c-35 -65 -78 -131 -134 -179c-42 -35 -97 -62 -152 -45c-1 1 -2 1 -3 1c-1 1 -2 1 -2 1c-140 56 -83 248 -43 353c29 73 63 145 106 210c32 49 70 96 118 128c35 24 77 37 118 28c45 -9 78 -44 91 -86c19 -57 8 -122 -6 -178zM238 96
c56 57 96 130 130 202c30 64 56 132 69 202c8 42 12 94 -8 132c-14 28 -42 45 -71 41c-49 -7 -76 -33 -91 -47c-42 -38 -74 -86 -102 -135c-34 -59 -63 -122 -85 -187c-18 -51 -33 -106 -32 -161c0 -43 14 -86 57 -102c51 -17 99 20 133 55zM500 850c3 -16 -2 -34 -15 -44
c-17 -11 -40 -3 -46 16c-4 13 0 29 12 41c7 7 15 8 24 8c12 0 22 -9 25 -21zM606 850c3 -16 -2 -34 -15 -44c-17 -11 -40 -3 -46 16c-4 13 0 29 12 41c7 7 16 8 24 8c12 0 22 -9 25 -21z" />
    <glyph glyph-name="Ograve" unicode="&#xd2;" horiz-adv-x="460" 
d="M469 452c-20 -81 -54 -160 -93 -233c-35 -65 -78 -131 -134 -179c-42 -35 -97 -62 -152 -45c-1 1 -2 1 -3 1c-1 1 -2 1 -2 1c-140 56 -83 248 -43 353c29 73 63 145 106 210c32 49 70 96 118 128c35 24 77 37 118 28c45 -9 78 -44 91 -86c19 -57 8 -122 -6 -178zM233 96
c56 57 96 130 130 202c30 64 56 132 69 202c8 42 12 94 -8 132c-14 28 -42 45 -71 41c-49 -7 -76 -33 -91 -47c-42 -38 -74 -86 -102 -135c-34 -59 -63 -122 -85 -187c-18 -51 -33 -106 -32 -161c0 -43 14 -86 57 -102c51 -17 99 20 133 55zM438 909l52 -80
c6 -11 6 -24 -5 -33c-8 -7 -25 -6 -32 4c-17 27 -33 54 -51 81c-16 25 21 53 36 28z" />
    <glyph glyph-name="Ohungarumlaut" unicode="&#x150;" horiz-adv-x="471" 
d="M474 452c-20 -81 -54 -160 -93 -233c-35 -65 -78 -131 -134 -179c-42 -35 -97 -62 -152 -45c-1 1 -2 1 -3 1c-1 1 -2 1 -2 1c-140 56 -83 248 -43 353c29 73 63 145 106 210c32 49 70 96 118 128c35 24 77 37 118 28c45 -9 78 -44 91 -86c19 -57 8 -122 -6 -178zM238 96
c56 57 96 130 130 202c30 64 56 132 69 202c8 42 12 94 -8 132c-14 28 -42 45 -71 41c-49 -7 -76 -33 -91 -47c-42 -38 -74 -86 -102 -135c-34 -59 -63 -122 -85 -187c-18 -51 -33 -106 -32 -161c0 -43 14 -86 57 -102c51 -17 99 20 133 55zM457 829l52 80
c15 25 52 -3 36 -28c-18 -27 -34 -54 -51 -81c-7 -10 -24 -11 -32 -4c-11 9 -11 22 -5 33zM549 829l52 80c15 25 52 -3 36 -28c-18 -27 -34 -54 -51 -81c-7 -10 -24 -11 -32 -4c-11 9 -11 22 -5 33z" />
    <glyph glyph-name="Omacron" unicode="&#x14c;" horiz-adv-x="457" 
d="M469 452c-20 -81 -54 -160 -93 -233c-35 -65 -78 -131 -134 -179c-42 -35 -97 -62 -152 -45c-1 1 -2 1 -3 1c-1 1 -2 1 -2 1c-140 56 -83 248 -43 353c29 73 63 145 106 210c32 49 70 96 118 128c35 24 77 37 118 28c45 -9 78 -44 91 -86c19 -57 8 -122 -6 -178zM233 96
c56 57 96 130 130 202c30 64 56 132 69 202c8 42 12 94 -8 132c-14 28 -42 45 -71 41c-49 -7 -76 -33 -91 -47c-42 -38 -74 -86 -102 -135c-34 -59 -63 -122 -85 -187c-18 -51 -33 -106 -32 -161c0 -43 14 -86 57 -102c51 -17 99 20 133 55zM584 818h-136c-30 0 -30 46 0 46
h136c30 0 30 -46 0 -46z" />
    <glyph glyph-name="Otilde" unicode="&#xd5;" horiz-adv-x="459" 
d="M469 452c-20 -81 -54 -160 -93 -233c-35 -65 -78 -131 -134 -179c-42 -35 -97 -62 -152 -45c-1 1 -2 1 -3 1c-1 1 -2 1 -2 1c-140 56 -83 248 -43 353c29 73 63 145 106 210c32 49 70 96 118 128c35 24 77 37 118 28c45 -9 78 -44 91 -86c19 -57 8 -122 -6 -178zM233 96
c56 57 96 130 130 202c30 64 56 132 69 202c8 42 12 94 -8 132c-14 28 -42 45 -71 41c-49 -7 -76 -33 -91 -47c-42 -38 -74 -86 -102 -135c-34 -59 -63 -122 -85 -187c-18 -51 -33 -106 -32 -161c0 -43 14 -86 57 -102c51 -17 99 20 133 55zM430 837c-14 -29 -54 -6 -41 21
c10 21 29 38 52 42c21 4 38 -3 54 -15c13 -10 25 -24 39 -32c17 -9 32 0 38 17c10 28 54 16 45 -13c-8 -22 -21 -41 -44 -49c-21 -8 -47 -5 -66 7c-15 10 -26 24 -41 34c-16 11 -28 5 -36 -12z" />
    <glyph glyph-name="Racute" unicode="&#x154;" horiz-adv-x="879" 
d="M545 551c-24 -45 -42 -94 -59 -143c-33 -95 -62 -194 -113 -282c-47 -79 -123 -151 -223 -143c-62 4 -120 40 -146 98c-27 63 -11 139 28 193c36 52 96 80 159 69c70 -13 113 -79 100 -147c-5 -30 -50 -17 -45 12c6 30 -7 59 -32 76c-24 16 -53 18 -80 11
c-58 -16 -95 -82 -97 -139c-3 -53 28 -100 77 -118c42 -16 89 -9 126 11c67 39 107 118 136 189c34 85 59 173 93 258c28 69 63 147 132 184c26 14 50 -26 23 -40c-17 -10 -29 -19 -43 -36c-13 -14 -25 -34 -36 -53zM870 195c15 26 55 2 41 -24c-13 -23 -27 -45 -42 -66
c-50 -68 -132 -143 -224 -106c-63 25 -88 89 -99 152c-4 29 -7 61 -11 88v2c-11 2 -22 6 -32 11c-23 11 -33 39 -17 61c16 23 53 15 71 -2c8 -8 13 -17 17 -28c75 -5 150 35 193 98c35 53 51 122 40 184c-12 62 -50 114 -104 146c-72 42 -163 49 -243 36
c-73 -11 -144 -42 -192 -100c-19 -24 -33 -52 -41 -82s-12 -64 8 -91c21 -30 67 -36 99 -19c33 18 49 55 46 92c-2 30 44 29 47 0c2 -24 -2 -47 -12 -68c-19 -44 -60 -75 -108 -80c-47 -4 -98 19 -119 63c-36 71 1 163 48 219c57 69 145 103 231 114c93 11 197 1 276 -54
c63 -44 103 -111 112 -187c9 -79 -18 -164 -69 -224c-33 -38 -75 -66 -122 -82c-25 -8 -52 -12 -78 -12h-4c1 -6 2 -13 2 -19c7 -57 11 -139 68 -170c94 -52 181 80 218 148zM802 842l70 65c21 20 50 -15 28 -36c-23 -22 -45 -44 -69 -66c-9 -8 -25 -6 -32 3
c-8 12 -5 24 3 34z" />
    <glyph glyph-name="Rcaron" unicode="&#x158;" horiz-adv-x="891" 
d="M555 551c-24 -45 -42 -94 -59 -143c-33 -95 -62 -194 -113 -282c-47 -79 -123 -151 -223 -143c-62 4 -120 40 -146 98c-27 63 -11 139 28 193c36 52 96 80 159 69c70 -13 113 -79 100 -147c-5 -30 -50 -17 -45 12c6 30 -7 59 -32 76c-24 16 -53 18 -80 11
c-58 -16 -95 -82 -97 -139c-3 -53 28 -100 77 -118c42 -16 89 -9 126 11c67 39 107 118 136 189c34 85 59 173 93 258c28 69 63 147 132 184c26 14 50 -26 23 -40c-17 -10 -29 -19 -43 -36c-13 -14 -25 -34 -36 -53zM880 195c15 26 55 2 41 -24c-13 -23 -27 -45 -42 -66
c-50 -68 -132 -143 -224 -106c-63 25 -88 89 -99 152c-4 29 -7 61 -11 88v2c-11 2 -22 6 -32 11c-23 11 -33 39 -17 61c16 23 53 15 71 -2c8 -8 13 -17 17 -28c75 -5 150 35 193 98c35 53 51 122 40 184c-12 62 -50 114 -104 146c-72 42 -163 49 -243 36
c-73 -11 -144 -42 -192 -100c-19 -24 -33 -52 -41 -82s-12 -64 8 -91c21 -30 67 -36 99 -19c33 18 49 55 46 92c-2 30 44 29 47 0c2 -24 -2 -47 -12 -68c-19 -44 -60 -75 -108 -80c-47 -4 -98 19 -119 63c-36 71 1 163 48 219c57 69 145 103 231 114c93 11 197 1 276 -54
c63 -44 103 -111 112 -187c9 -79 -18 -164 -69 -224c-33 -38 -75 -66 -122 -82c-25 -8 -52 -12 -78 -12h-4c1 -6 2 -13 2 -19c7 -57 11 -139 68 -170c94 -52 181 80 218 148zM789 874c-12 26 28 50 40 23l30 -60c23 16 45 32 67 48c25 18 48 -23 24 -40
c-29 -20 -58 -42 -87 -62c-10 -7 -26 -2 -32 8c-15 27 -29 55 -42 83z" />
    </font>
</defs>
</svg>
